<svg id="Calque_1" data-name="Calque 1" xmlns="http://www.w3.org/2000/svg" xmlns:xlink="http://www.w3.org/1999/xlink" viewBox="0 0 3000 1301.77"><defs><style>.cls-1{fill:none;}.cls-2{clip-path:url(#clip-path);}.cls-3{fill:#f7f7f7;}.cls-4{fill:#232323;}.cls-5{fill:#3c76b4;}.cls-6{fill:#fff;opacity:0.7;isolation:isolate;}.cls-7{fill:#dc897c;}.cls-8{fill:#e4897b;}.cls-9{opacity:0.2;}.cls-10{fill:#263238;}.cls-11,.cls-13{fill:#fafafa;}.cls-11,.cls-12{opacity:0.6;}.cls-14{fill:#de5753;}.cls-15{fill:#0c8935;}.cls-16{fill:#178636;}</style><clipPath id="clip-path" transform="translate(0 -1266.28)"><rect class="cls-1" y="1266.28" width="3000" height="1194"/></clipPath></defs><g class="cls-2"><rect class="cls-3" width="3000" height="1194"/><path class="cls-4" d="M987.26,1403.2h12.33c13.89,0,22.23,7.77,22.23,23.33s-8.34,23.75-21.78,23.75H987.26Zm11.82,40.29c9,0,14.13-5.38,14.13-17s-5.15-16.53-14.13-16.53h-3.44v33.49Z" transform="translate(0 -1266.28)"/><path class="cls-4" d="M1028.65,1432.64c0-11.81,8.44-18.59,17.76-18.59s17.76,6.78,17.76,18.59-8.44,18.51-17.76,18.51S1028.65,1444.37,1028.65,1432.64Zm27,0c0-7.11-3.46-11.8-9.23-11.8s-9.23,4.69-9.23,11.8,3.46,11.71,9.23,11.71S1055.64,1439.71,1055.64,1432.64Z" transform="translate(0 -1266.28)"/><path class="cls-4" d="M1117.28,1443.24h11.34v-33h-11.34v-7h31.06v7H1137v33h11.35v7h-31.06Z" transform="translate(0 -1266.28)"/><path class="cls-4" d="M1203.53,1399.44h8.33v13.12l-.49,7.57h.24c3.08-3.31,7.05-6.08,12.43-6.08,8.15,0,11.83,5.22,11.83,14.33v21.9h-8.33v-20.82c0-5.67-1.83-8.27-6.59-8.27-3.49,0-5.85,1.69-9.09,5v24.12h-8.33Z" transform="translate(0 -1266.28)"/><path class="cls-4" d="M1245.88,1440.79c0-7.93,7-11.88,24.44-13.11-.3-4-2.66-6.93-8.42-6.93-4,0-7.92,1.73-11.55,3.75l-3.09-5.51c4.28-2.57,10.08-4.94,16.18-4.94,9.81,0,15.21,5.45,15.21,15.3v20.93h-6.85l-.64-4.38h-.24c-3.71,2.86-8.46,5.25-13.2,5.25C1250.83,1451.15,1245.88,1446.92,1245.88,1440.79Zm24.44-.47v-7.44c-12.71.84-16.37,3.45-16.37,7.26,0,3.12,2.75,4.46,6.26,4.46S1267.05,1442.94,1270.32,1440.32Z" transform="translate(0 -1266.28)"/><path class="cls-4" d="M1286.92,1414.92h8.42l6.82,18.29c1.26,3.56,2.4,7.12,3.54,10.69h.29c1.15-3.57,2.19-7.13,3.5-10.69l6.82-18.29h8l-13.8,35.36H1301Z" transform="translate(0 -1266.28)"/><path class="cls-4" d="M1331.62,1432.55c0-11.53,8.76-18.5,18.23-18.5,10.56,0,16.41,7,16.41,16.79a26.81,26.81,0,0,1-.37,4.18h-28.32v-5.88h22.94l-1.59,1.84c0-7-3.28-10.53-8.82-10.53-5.85,0-10.35,4.21-10.35,12.1,0,8.23,5,12.15,12.31,12.15a19.19,19.19,0,0,0,9.91-2.89l2.85,5.16a25.73,25.73,0,0,1-13.86,4.18C1340.13,1451.15,1331.62,1444.32,1331.62,1432.55Z" transform="translate(0 -1266.28)"/><path class="cls-4" d="M1418.89,1432.64c0-11.81,9.3-18.59,20.09-18.59a18.57,18.57,0,0,1,13.06,5l-3.93,5.22a13.75,13.75,0,0,0-8.73-3.41c-7.08,0-12,4.69-12,11.8s4.81,11.71,11.72,11.71a16.42,16.42,0,0,0,10.09-3.89l3.48,5.32a22.06,22.06,0,0,1-14.29,5.37C1427.31,1451.15,1418.89,1444.37,1418.89,1432.64Z" transform="translate(0 -1266.28)"/><path class="cls-4" d="M1461.22,1432.55c0-11.53,8.76-18.5,18.23-18.5,10.56,0,16.41,7,16.41,16.79a28.1,28.1,0,0,1-.37,4.18h-28.33v-5.88h22.95l-1.59,1.84c0-7-3.29-10.53-8.82-10.53-5.85,0-10.35,4.21-10.35,12.1,0,8.23,5,12.15,12.3,12.15a19.22,19.22,0,0,0,9.92-2.89l2.85,5.16a25.75,25.75,0,0,1-13.86,4.18C1469.73,1451.15,1461.22,1444.32,1461.22,1432.55Z" transform="translate(0 -1266.28)"/><path class="cls-4" d="M1509.36,1414.92h6.87l.71,8h.19c3.6-5.77,9-8.91,15-8.91a14.71,14.71,0,0,1,6.88,1.44l-1.76,7a18,18,0,0,0-6.4-1.1c-4.84,0-9.59,2.48-13.21,9.35v19.5h-8.33Z" transform="translate(0 -1266.28)"/><path class="cls-4" d="M1556.87,1436.06v-14.55h-9.46v-6.21l9.81-.38,1.08-11.08h6.9v11.08h16.08v6.59H1565.2V1436c0,5.84,2.19,8.47,8.17,8.47a22,22,0,0,0,7.69-1.42l1.61,6.06a34.64,34.64,0,0,1-11.31,2C1560.55,1451.15,1556.87,1445.07,1556.87,1436.06Z" transform="translate(0 -1266.28)"/><path class="cls-4" d="M1607.73,1421.51h-15.27v-6.59h23.6v35.36h-8.33Zm-2.29-18.6c0-3.32,2.49-5.61,5.91-5.61s5.92,2.29,5.92,5.61-2.5,5.56-5.92,5.56S1605.44,1406.27,1605.44,1402.91Z" transform="translate(0 -1266.28)"/><path class="cls-4" d="M1636.25,1415.3l10-.38h21.46v6.59h-31.43ZM1646,1413c0-8.33,4.62-14.42,15.06-14.42a29.79,29.79,0,0,1,10.45,2l-1.71,6.16a19.68,19.68,0,0,0-7.79-1.52c-5.4,0-7.73,2.73-7.73,7.69v37.42H1646Z" transform="translate(0 -1266.28)"/><path class="cls-4" d="M1694.13,1421.51h-15.28v-6.59h23.61v35.36h-8.33Zm-2.3-18.6c0-3.32,2.5-5.61,5.92-5.61s5.92,2.29,5.92,5.61-2.5,5.56-5.92,5.56S1691.83,1406.27,1691.83,1402.91Z" transform="translate(0 -1266.28)"/><path class="cls-4" d="M1721.28,1432.64c0-11.81,9.3-18.59,20.1-18.59a18.57,18.57,0,0,1,13.06,5l-3.93,5.22a13.75,13.75,0,0,0-8.73-3.41c-7.09,0-12,4.69-12,11.8s4.81,11.71,11.72,11.71a16.44,16.44,0,0,0,10.09-3.89l3.48,5.32a22.08,22.08,0,0,1-14.29,5.37C1729.7,1451.15,1721.28,1444.37,1721.28,1432.64Z" transform="translate(0 -1266.28)"/><path class="cls-4" d="M1764.27,1440.79c0-7.93,7-11.88,24.44-13.11-.29-4-2.65-6.93-8.42-6.93-4,0-7.91,1.73-11.55,3.75l-3.09-5.51c4.29-2.57,10.09-4.94,16.18-4.94,9.81,0,15.21,5.45,15.21,15.3v20.93h-6.85l-.63-4.38h-.24c-3.72,2.86-8.47,5.25-13.2,5.25C1769.22,1451.15,1764.27,1446.92,1764.27,1440.79Zm24.44-.47v-7.44c-12.7.84-16.37,3.45-16.37,7.26,0,3.12,2.76,4.46,6.26,4.46S1785.44,1442.94,1788.71,1440.32Z" transform="translate(0 -1266.28)"/><path class="cls-4" d="M1816.07,1436.06v-14.55h-9.47v-6.21l9.81-.38,1.09-11.08h6.89v11.08h16.08v6.59h-16.08V1436c0,5.84,2.2,8.47,8.17,8.47a22,22,0,0,0,7.7-1.42l1.61,6.06a34.71,34.71,0,0,1-11.32,2C1819.75,1451.15,1816.07,1445.07,1816.07,1436.06Z" transform="translate(0 -1266.28)"/><path class="cls-4" d="M1850,1432.55c0-11.53,8.76-18.5,18.22-18.5,10.56,0,16.41,7,16.41,16.79a26.81,26.81,0,0,1-.37,4.18H1856v-5.88h23l-1.6,1.84c0-7-3.28-10.53-8.82-10.53-5.84,0-10.35,4.21-10.35,12.1,0,8.23,4.95,12.15,12.31,12.15a19.16,19.16,0,0,0,9.91-2.89l2.85,5.16a25.72,25.72,0,0,1-13.85,4.18C1858.53,1451.15,1850,1444.32,1850,1432.55Z" transform="translate(0 -1266.28)"/><path class="cls-4" d="M1893.25,1445.67l3.63-5.31a26,26,0,0,0,14.8,4.49c4.9,0,7.2-1.86,7.2-4.21s-1.56-3.61-9.79-5.32c-9.44-2-13.63-5.31-13.63-10.7,0-6.14,5.6-10.57,15.5-10.57a27.65,27.65,0,0,1,14.8,4.68l-3.84,5.11a21.75,21.75,0,0,0-11.71-3.54c-4.58,0-6.48,1.77-6.48,3.93,0,2.49,2.61,3.37,9.23,4.8,11.3,2.49,14.24,5.51,14.24,11.12,0,6.08-5.86,11-16.61,11A32,32,0,0,1,1893.25,1445.67Z" transform="translate(0 -1266.28)"/><path class="cls-4" d="M2002.32,1413.66c0-3.41-2.53-5.7-6.6-5.7-3.33,0-6,1.48-8.36,3.71l-4.72-4.32a18.39,18.39,0,0,1,13.62-6.18c8.13,0,14.08,4.1,14.08,11.5,0,9.63-12.37,11.23-11.33,20h-7.29C1990.1,1422.78,2002.32,1420,2002.32,1413.66Zm-12.81,31a6.28,6.28,0,1,1,12.56,0,6.28,6.28,0,1,1-12.56,0Z" transform="translate(0 -1266.28)"/><path class="cls-5" d="M2105,1866.84c0-15.37,14.35-29.26,37.44-39.24a17.42,17.42,0,0,1-1.16-6.15c0-20.48,37.18-37.12,83.44-37.6,14-19.79,55.93-34.16,105.49-34.16,39.52,0,74.17,9.14,93.69,22.87,4.85-.37,9.83-.58,14.93-.58,47.2,0,85.46,16.84,85.46,37.62a18.93,18.93,0,0,1-3.3,10.34c30.06,8.83,49.87,23.9,49.87,41,0,16.47-18.39,31-46.6,40,0,.18,0,.35,0,.53,0,20.16-36.05,36.62-81.32,37.57-25,13.65-63.21,22.39-106.12,22.39-30.11,0-57.93-4.32-80.48-11.6q-5.7.35-11.61.35c-47.2,0-85.46-16.84-85.46-37.61,0-.13,0-.26,0-.39C2126.52,1902.28,2105,1885.67,2105,1866.84Z" transform="translate(0 -1266.28)"/><path class="cls-5" d="M2573.06,1977.34c0,3.44,4,6.22,8.9,6.22s8.9-2.78,8.9-6.22-4-6.22-8.9-6.22S2573.06,1973.91,2573.06,1977.34Z" transform="translate(0 -1266.28)"/><path class="cls-5" d="M2511.45,1962.55c0,10,11.57,18,25.84,18s25.85-8.06,25.85-18-11.57-18-25.85-18S2511.45,1952.61,2511.45,1962.55Z" transform="translate(0 -1266.28)"/><path class="cls-6" d="M2105,1866.84c0-15.37,14.35-29.26,37.44-39.24a17.42,17.42,0,0,1-1.16-6.15c0-20.48,37.18-37.12,83.44-37.6,14-19.79,55.93-34.16,105.49-34.16,39.52,0,74.17,9.14,93.69,22.87,4.85-.37,9.83-.58,14.93-.58,47.2,0,85.46,16.84,85.46,37.62a18.93,18.93,0,0,1-3.3,10.34c30.06,8.83,49.87,23.9,49.87,41,0,16.47-18.39,31-46.6,40,0,.18,0,.35,0,.53,0,20.16-36.05,36.62-81.32,37.57-25,13.65-63.21,22.39-106.12,22.39-30.11,0-57.93-4.32-80.48-11.6q-5.7.35-11.61.35c-47.2,0-85.46-16.84-85.46-37.61,0-.13,0-.26,0-.39C2126.52,1902.28,2105,1885.67,2105,1866.84Z" transform="translate(0 -1266.28)"/><path class="cls-6" d="M2573.06,1977.34c0,3.44,4,6.22,8.9,6.22s8.9-2.78,8.9-6.22-4-6.22-8.9-6.22S2573.06,1973.91,2573.06,1977.34Z" transform="translate(0 -1266.28)"/><path class="cls-6" d="M2511.45,1962.55c0,10,11.57,18,25.84,18s25.85-8.06,25.85-18-11.57-18-25.85-18S2511.45,1952.61,2511.45,1962.55Z" transform="translate(0 -1266.28)"/><path class="cls-7" d="M2573.72,2179.81c-23.26,30.2-48,61.92-78.07,84.88-6.61,4.82-12.22,7.93-17.78,9.58-.45.15.09.37.54.74.28.32.3.32.29.52.23.16.83.73,1.05.94,2.52,2.44,4.64,6.29,4.68,9.65,0,.73-.16.67-.16.2,1.61-12.05,8.92-24,15.13-35.21,25-42.34,56.59-81.88,86.85-121.25l-23.7-23.16a795.78,795.78,0,0,0-75.07,72.87c-18.05,20.21-35.71,41.41-49.39,65.8-13.62,23.31-21.76,56.42,2.48,77,10.13,8.93,25.41,14.19,38.3,13.93,45.93-.63,87.91-43.92,116.08-75.05a475.16,475.16,0,0,0,33.57-43l-54.8-38.39Z" transform="translate(0 -1266.28)"/><path class="cls-8" d="M2640.48,2079l-27.67-1.34a14.79,14.79,0,0,0-8.73,2.35l-42.88,27.79,7,29.89c26.71,16.86,49.52,1.38,56.5-4.37a14.5,14.5,0,0,1,5.53-2.84l15.18-4.06a14.73,14.73,0,0,0,10.86-15.72l-1.88-18.48A14.74,14.74,0,0,0,2640.48,2079Z" transform="translate(0 -1266.28)"/><path class="cls-5" d="M2492.42,2264.64l27.76,88.47s3.12-1.64,8.21-4.5c13.42-7.53,40.55-23.34,60.6-39,11.65-9.1,20.89-18.13,23.66-25.46,9.3-24.7-46.15-112.17-46.15-112.17-17.42,4.36-38.58,36-38.58,36S2499.1,2248.63,2492.42,2264.64Z" transform="translate(0 -1266.28)"/><path class="cls-9" d="M2528.39,2348.61c13.42-7.53,40.55-23.34,60.6-39a158,158,0,0,0-2.86-37.24S2541.57,2297.64,2528.39,2348.61Z" transform="translate(0 -1266.28)"/><path class="cls-10" d="M2566.5,2172s-53.74,138.49-1.75,396l245.06-.59c1.59-37.62-15.44-213.72,20.41-391.06,0,0-10-12.28-89.11-17.51-31.28-2.07-76.65-2.32-104.17.26C2600.66,2162.54,2566.5,2172,2566.5,2172Z" transform="translate(0 -1266.28)"/><path class="cls-11" d="M2542.63,2386.61q.48,14,1.44,29c.53,8,1.15,16.3,1.89,24.75.91,10.09,2,20.45,3.26,31.08q1.5,13,3.42,26.58c1.56,10.89,3.29,22,5.27,33.43q3,17.88,6.82,36.64l245.08-.59c.35-8.18-.18-22.92-.86-42.79-.29-8-.58-16.75-.85-26.25-.2-6.92-.38-14.25-.53-21.9q-.27-12.76-.38-26.81-.09-10.9,0-22.52c0-8.94.15-18.19.35-27.66.12-7,.33-14.19.56-21.46.86-25.84,2.41-53.21,5-81.52a1122.14,1122.14,0,0,1,17.18-120.17s-10.06-12.27-89.11-17.51c-31.29-2.06-76.64-2.33-104.19.26-36.26,3.42-70.43,12.89-70.43,12.89S2537.75,2246.07,2542.63,2386.61Z" transform="translate(0 -1266.28)"/><path class="cls-9" d="M2782.53,2285.25s2.17,58.48,25.54,92.82c.86-25.84,2.41-53.21,5-81.52C2803.48,2289.28,2793.06,2284.92,2782.53,2285.25Z" transform="translate(0 -1266.28)"/><g class="cls-12"><path class="cls-13" d="M2542.63,2386.61q.48,14,1.44,29l25.73,30.28,36.93-43.47,36.91,43.47,36.94-43.47,36.9,43.47,36.94-43.47,36.91,43.47,15.83-18.66c0-8.94.15-18.19.35-27.66l-16.18,19-36.91-43.47-36.94,43.47-36.9-43.47-36.94,43.47-36.91-43.47-36.93,43.47Z" transform="translate(0 -1266.28)"/></g><g class="cls-12"><path class="cls-13" d="M2546,2440.32c.91,10.09,2,20.45,3.26,31.08l20.58,24.25,36.93-43.47,36.91,43.47,36.94-43.47,36.9,43.47,36.94-43.47,36.91,43.47,16.24-19.13q-.27-12.76-.38-26.81l-15.86,18.66-36.91-43.47-36.94,43.47-36.9-43.47-36.94,43.47-36.91-43.47-36.93,43.47Z" transform="translate(0 -1266.28)"/></g><g class="cls-12"><path class="cls-13" d="M2552.64,2498c1.56,10.89,3.29,22,5.27,33.43l11.89,14,36.93-43.44,36.91,43.44,36.94-43.44,36.9,43.44,36.94-43.44,36.91,43.44,17.62-20.75c-.29-8-.58-16.75-.85-26.25l-16.77,19.75-36.91-43.47-36.94,43.47-36.9-43.47-36.94,43.47-36.91-43.47-36.93,43.47Z" transform="translate(0 -1266.28)"/></g><path class="cls-8" d="M2744.27,2050.79c-9.67,32.76-21.93,93.29-.67,117.75-33.25,10.59-57.18,17.59-86.58,39.42-7.73-21.4-17.14-49.14-17.14-49.14,38-5.4,39.68-33.1,35.62-59.63Z" transform="translate(0 -1266.28)"/><path class="cls-9" d="M2716.23,2070.54l-40.7,28.62a106.79,106.79,0,0,1,1.48,18.71c14.41-.72,35.4-14.5,38.3-29.24C2716.76,2081.27,2717.12,2074.11,2716.23,2070.54Z" transform="translate(0 -1266.28)"/><polygon class="cls-5" points="2772.09 895.11 2748.62 873.02 2685.69 894.63 2658.19 936.9 2647.91 894.06 2633.7 881.22 2608.79 896.46 2612.64 923.64 2630.66 914.81 2652.4 950.42 2701.04 921.88 2714.61 934.88 2772.09 895.11"/><polygon class="cls-9" points="2652.4 950.42 2639.7 905.91 2612.64 923.64 2630.66 914.81 2652.4 950.42"/><polygon class="cls-9" points="2652.4 950.42 2695.28 908.43 2714.61 934.88 2701.04 921.88 2652.4 950.42"/><path class="cls-7" d="M2756.08,2247.24c-15.66,19-37.28,45.33-53.24,63.44-19,21.16-38,43.62-61,59.84-.9.56.13,0,.56-.08a2.51,2.51,0,0,1,.76-.15c.22,0,0,.06,0,.13-10.34,2.28-22-.14-33-1.63-33.68-5.67-66.8-15.2-100.51-23.88l-13.26,30.37c12.76,7.78,25.52,14.55,38.74,21,33.1,15.57,93.51,43.63,130.07,29.87,14.15-6.1,26.15-15,37.45-24,17.66-14.43,33.93-30.43,49.33-46.71,15.15-16.11,29.48-32.56,43.29-49.71,4.64-5.72,9-11.35,13.62-17.49l-52.88-41Z" transform="translate(0 -1266.28)"/><path class="cls-5" d="M2851.92,2206.72c26.85,85.08-93.78,168.4-93.78,168.4l-64.45-73.28s28.4-52.55,60.56-99.15C2788,2153.87,2837.78,2161.92,2851.92,2206.72Z" transform="translate(0 -1266.28)"/><path class="cls-8" d="M2515,2348.91l-45.35-47.07-34.29,45.71s27.07,37.36,63.89,27.73Z" transform="translate(0 -1266.28)"/><polygon class="cls-8" points="2425.38 1021.13 2407.98 1061.32 2435.32 1081.27 2469.61 1035.56 2425.38 1021.13"/><path class="cls-10" d="M2656.64,1929c-23.35,9.15-39.36,72.79-11,88.1S2700.86,1911.7,2656.64,1929Z" transform="translate(0 -1266.28)"/><path class="cls-8" d="M2757.21,2003.9c-12.09,44.52-16.9,71.11-44.54,90.29-41.58,28.86-93.19-1.31-94.69-48.07-1.35-42.09,18.66-107.82,66.67-118.15C2732,1917.8,2769.31,1959.38,2757.21,2003.9Z" transform="translate(0 -1266.28)"/><path class="cls-10" d="M2717.43,1946.54l5-39.23c10.32,5.14,21.38,7.7,31.63,5.93,47.15-8.11,81,23.89,57.76,48.66,21.36,10.84,7.41,40.18-8.45,58.47-22,25.41-44.51,36.66-58.8,23.69-13-7.39-12.39-54-6.9-70.93C2745.9,1947.59,2717.43,1946.54,2717.43,1946.54Z" transform="translate(0 -1266.28)"/><path class="cls-8" d="M2765.18,2051.41c-8.54,9.26-19.92,14.4-29.44,15.53-14.32,1.7-16.84-11.62-9-24,7.08-11.11,23.06-25.37,35.57-21.37C2774.65,2025.57,2775,2040.82,2765.18,2051.41Z" transform="translate(0 -1266.28)"/><path class="cls-10" d="M2688.9,2004.73c-.76,3.66-3.33,6.3-5.74,5.89s-3.74-3.72-3-7.38,3.33-6.3,5.74-5.89S2689.66,2001.07,2688.9,2004.73Z" transform="translate(0 -1266.28)"/><path class="cls-10" d="M2647.24,1997.6c-.76,3.66-3.33,6.3-5.73,5.89s-3.75-3.72-3-7.38,3.32-6.3,5.73-5.89S2648,1993.94,2647.24,1997.6Z" transform="translate(0 -1266.28)"/><path class="cls-14" d="M2657.16,2001.69s-12.75,19.7-24.09,28.32c5.27,7.17,16.93,6.3,16.93,6.3Z" transform="translate(0 -1266.28)"/><path class="cls-10" d="M2675.54,1985.52a2.15,2.15,0,0,0-.87.67,2.2,2.2,0,0,0,.38,3.08,21.08,21.08,0,0,0,19.46,3.83,2.16,2.16,0,0,0,1.3-2.82A2.2,2.2,0,0,0,2693,1989a16.72,16.72,0,0,1-15.25-3.16A2.19,2.19,0,0,0,2675.54,1985.52Z" transform="translate(0 -1266.28)"/><path class="cls-10" d="M2635.22,1977.64a2.21,2.21,0,0,0,2-.48,18.39,18.39,0,0,1,15.51-4.74,2.19,2.19,0,0,0,1.06-4.26h0a22.7,22.7,0,0,0-19.47,5.72,2.2,2.2,0,0,0-.19,3.1A2.16,2.16,0,0,0,2635.22,1977.64Z" transform="translate(0 -1266.28)"/><path class="cls-10" d="M2756.5,1918.42s-32.61-62.92-93.29-50.11c0,0,11.61,2.58,16.54,7,0,0-53-4.6-69.48,32.59l10.15-5.94s-13.51,30.82,2.29,51.15l3-10.22s21.67,26.92,54,19.28l-11.18-5.69s55.74-1.7,69.57-15.91S2756.5,1918.42,2756.5,1918.42Z" transform="translate(0 -1266.28)"/><path class="cls-10" d="M2644.51,2055.56a1.76,1.76,0,0,0,1.29-.56c8.24-8.89,22.64-5.49,22.78-5.46a1.77,1.77,0,0,0,.84-3.43c-.67-.16-16.54-3.94-26.21,6.48a1.77,1.77,0,0,0,1.3,3Z" transform="translate(0 -1266.28)"/><path class="cls-4" d="M2180.54,1843.49h6.1l1.64,18.62c.18,2.72.31,4.72.4,7.75h.17c.51-3,1-5,1.57-7.72l2.64-10.44h4.29l2.52,10.44c.6,2.63,1,4.65,1.57,7.72h.2c.12-3.07.18-5.07.37-7.72l1.57-18.65h5.76l-4.34,32.15h-6.44l-2.51-11.42a55.87,55.87,0,0,1-1-6h-.15c-.27,2-.55,4-1,6l-2.48,11.42h-6.31Z" transform="translate(0 -1266.28)"/><path class="cls-4" d="M2213.72,1841h5.68v9l-.34,5.17h.17c2.1-2.26,4.81-4.15,8.47-4.15,5.56,0,8.08,3.56,8.08,9.77v15h-5.69v-14.21c0-3.87-1.24-5.64-4.49-5.64-2.38,0-4,1.16-6.2,3.39v16.46h-5.68Z" transform="translate(0 -1266.28)"/><path class="cls-4" d="M2242.61,1869.16c0-5.41,4.76-8.1,16.67-8.94-.2-2.7-1.81-4.73-5.74-4.73-2.72,0-5.4,1.18-7.88,2.56l-2.11-3.76a22.16,22.16,0,0,1,11-3.37c6.69,0,10.37,3.72,10.37,10.44v14.28h-4.67l-.43-3h-.17c-2.53,1.95-5.77,3.58-9,3.58C2246,1876.23,2242.61,1873.34,2242.61,1869.16Zm16.67-.32v-5.07c-8.67.57-11.17,2.35-11.17,5,0,2.12,1.88,3,4.27,3S2257.05,1870.63,2259.28,1868.84Z" transform="translate(0 -1266.28)"/><path class="cls-4" d="M2278,1865.94V1856h-6.46v-4.23l6.69-.27.74-7.55h4.71v7.55h11v4.5h-11v9.91c0,4,1.49,5.78,5.57,5.78a15,15,0,0,0,5.25-1l1.1,4.13a23.38,23.38,0,0,1-7.72,1.38C2280.46,1876.23,2278,1872.08,2278,1865.94Z" transform="translate(0 -1266.28)"/><path class="cls-4" d="M2330.59,1863.54a12.21,12.21,0,0,1,12.43-12.62c7.2,0,11.19,4.78,11.19,11.45a18.65,18.65,0,0,1-.25,2.86h-19.32v-4h15.65l-1.08,1.25c0-4.76-2.24-7.18-6-7.18-4,0-7.06,2.87-7.06,8.25,0,5.61,3.38,8.29,8.39,8.29a13.14,13.14,0,0,0,6.77-2l1.94,3.52a17.53,17.53,0,0,1-9.45,2.85C2336.39,1876.23,2330.59,1871.57,2330.59,1863.54Z" transform="translate(0 -1266.28)"/><path class="cls-4" d="M2368.12,1866.85v-21.4h-8V1841h13.73v26.2c0,3.22,1.9,4.44,4.34,4.44a10.74,10.74,0,0,0,4.13-.93l1.32,4.19a17.26,17.26,0,0,1-6.84,1.38C2371.12,1876.23,2368.12,1872.77,2368.12,1866.85Z" transform="translate(0 -1266.28)"/><path class="cls-4" d="M2389.56,1872.49l2.48-3.62a17.76,17.76,0,0,0,10.09,3.06c3.34,0,4.91-1.27,4.91-2.87s-1.06-2.46-6.68-3.63c-6.43-1.35-9.29-3.62-9.29-7.3,0-4.19,3.82-7.21,10.57-7.21a18.84,18.84,0,0,1,10.09,3.19l-2.61,3.49a14.83,14.83,0,0,0-8-2.42c-3.12,0-4.42,1.21-4.42,2.69,0,1.7,1.78,2.29,6.29,3.27,7.71,1.7,9.72,3.76,9.72,7.58,0,4.16-4,7.51-11.33,7.51A21.83,21.83,0,0,1,2389.56,1872.49Z" transform="translate(0 -1266.28)"/><path class="cls-4" d="M2419,1863.54a12.22,12.22,0,0,1,12.44-12.62c7.2,0,11.19,4.78,11.19,11.45a18.65,18.65,0,0,1-.25,2.86h-19.32v-4h15.65l-1.09,1.25c0-4.76-2.24-7.18-6-7.18-4,0-7.07,2.87-7.07,8.25,0,5.61,3.38,8.29,8.4,8.29a13.14,13.14,0,0,0,6.76-2l1.95,3.52a17.56,17.56,0,0,1-9.45,2.85C2424.82,1876.23,2419,1871.57,2419,1863.54Z" transform="translate(0 -1266.28)"/><path class="cls-4" d="M2493.45,1850.66c0-2.33-1.72-3.89-4.5-3.89a8.19,8.19,0,0,0-5.7,2.53l-3.22-3a12.52,12.52,0,0,1,9.29-4.21c5.54,0,9.6,2.8,9.6,7.84,0,6.57-8.44,7.66-7.73,13.65h-5C2485.11,1856.87,2493.45,1855,2493.45,1850.66Zm-8.74,21.14a4.29,4.29,0,1,1,8.57,0,4.29,4.29,0,1,1-8.57,0Z" transform="translate(0 -1266.28)"/><path class="cls-15" d="M264.39,1784.84l6.55-4.28a95.21,95.21,0,0,1,8.73,17.5H280c5-16.77,13.47-32.23,23-41.9l6.31,5.52c-9.43,8.82-18.53,22.75-24.14,43l-9.68,1.11A85.41,85.41,0,0,0,264.39,1784.84Z" transform="translate(0 -1266.28)"/><path class="cls-4" d="M344.83,1768.39h9.42c10.61,0,17,5.93,17,17.81s-6.37,18.15-16.64,18.15h-9.76Zm9,30.77c6.86,0,10.79-4.11,10.79-13s-3.93-12.62-10.79-12.62h-2.63v25.58Z" transform="translate(0 -1266.28)"/><path class="cls-4" d="M377.39,1797.09c0-6,5.32-9.07,18.66-10-.22-3-2-5.29-6.42-5.29-3.05,0-6.05,1.33-8.83,2.87l-2.36-4.21a24.76,24.76,0,0,1,12.36-3.77c7.49,0,11.62,4.16,11.62,11.68v16h-5.23l-.49-3.35h-.18c-2.84,2.19-6.47,4-10.08,4C381.17,1805,377.39,1801.78,377.39,1797.09Zm18.66-.35v-5.68c-9.7.64-12.5,2.63-12.5,5.54,0,2.38,2.11,3.41,4.78,3.41S393.56,1798.74,396.05,1796.74Z" transform="translate(0 -1266.28)"/><path class="cls-4" d="M417,1793.49v-11.12h-7.22v-4.74l7.49-.29.83-8.46h5.26v8.46H435.6v5H423.31v11.09c0,4.46,1.68,6.47,6.24,6.47a16.65,16.65,0,0,0,5.88-1.09l1.23,4.63A26.31,26.31,0,0,1,428,1805C419.77,1805,417,1800.37,417,1793.49Z" transform="translate(0 -1266.28)"/><path class="cls-4" d="M443.39,1797.09c0-6,5.32-9.07,18.66-10-.22-3-2-5.29-6.43-5.29-3,0-6,1.33-8.82,2.87l-2.36-4.21a24.72,24.72,0,0,1,12.36-3.77c7.49,0,11.61,4.16,11.61,11.68v16h-5.22l-.49-3.35h-.19c-2.83,2.19-6.46,4-10.07,4C447.17,1805,443.39,1801.78,443.39,1797.09Zm18.66-.35v-5.68c-9.7.64-12.5,2.63-12.5,5.54,0,2.38,2.11,3.41,4.78,3.41S459.56,1798.74,462.05,1796.74Z" transform="translate(0 -1266.28)"/><path class="cls-4" d="M508.73,1799.75l3.72-4.4a15.21,15.21,0,0,0,10,4.09c4.19,0,6.4-1.84,6.4-4.35,0-3.2-2.46-4.06-6-5.54L518,1787.4c-3.78-1.47-7.67-4.26-7.67-9.53,0-5.73,5.15-10.14,12.49-10.14a16.61,16.61,0,0,1,11.51,4.58l-3.27,4.06a12.74,12.74,0,0,0-8.55-3.08c-3.41,0-5.71,1.54-5.71,4.2s2.87,3.82,6.13,5.07l4.71,2c4.58,1.76,7.82,4.49,7.82,9.69,0,5.84-4.92,10.7-13.33,10.7A19.5,19.5,0,0,1,508.73,1799.75Z" transform="translate(0 -1266.28)"/><path class="cls-4" d="M542.55,1790.88c0-9,7.1-14.2,15.34-14.2a14.19,14.19,0,0,1,10,3.8l-3,4a10.55,10.55,0,0,0-6.67-2.6c-5.41,0-9.14,3.58-9.14,9s3.67,8.94,9,8.94a12.57,12.57,0,0,0,7.7-3l2.67,4.06a16.85,16.85,0,0,1-10.92,4.09C549,1805,542.55,1799.83,542.55,1790.88Z" transform="translate(0 -1266.28)"/><path class="cls-4" d="M587.8,1782.37H576.14v-5h18v27H587.8Zm-1.75-14.2a4.52,4.52,0,0,1,9,0,4.52,4.52,0,0,1-9,0Z" transform="translate(0 -1266.28)"/><path class="cls-4" d="M607.89,1790.81a13.68,13.68,0,0,1,13.92-14.13c8.06,0,12.53,5.34,12.53,12.82a21.11,21.11,0,0,1-.28,3.19H612.43v-4.49H630l-1.21,1.41c0-5.34-2.51-8-6.74-8-4.47,0-7.91,3.22-7.91,9.25,0,6.28,3.79,9.27,9.4,9.27a14.66,14.66,0,0,0,7.57-2.2l2.18,3.94a19.64,19.64,0,0,1-10.58,3.18C614.39,1805,607.89,1799.8,607.89,1790.81Z" transform="translate(0 -1266.28)"/><path class="cls-4" d="M642,1777.34h5.19l.49,4.06h.22c2.58-2.61,5.62-4.72,9.74-4.72,6.24,0,9.06,4,9.06,10.94v16.73h-6.37v-15.91c0-4.33-1.39-6.31-5-6.31-2.67,0-4.47,1.29-6.94,3.79v18.43H642Z" transform="translate(0 -1266.28)"/><path class="cls-4" d="M674.55,1790.88c0-9,7.1-14.2,15.34-14.2a14.19,14.19,0,0,1,10,3.8l-3,4a10.55,10.55,0,0,0-6.67-2.6c-5.41,0-9.14,3.58-9.14,9s3.67,8.94,9,8.94a12.59,12.59,0,0,0,7.7-3l2.66,4.06a16.83,16.83,0,0,1-10.91,4.09C681,1805,674.55,1799.83,674.55,1790.88Z" transform="translate(0 -1266.28)"/><path class="cls-4" d="M706.88,1790.81a13.69,13.69,0,0,1,13.93-14.13c8.06,0,12.53,5.34,12.53,12.82a21.11,21.11,0,0,1-.28,3.19H711.42v-4.49H729l-1.22,1.41c0-5.34-2.51-8-6.73-8-4.47,0-7.91,3.22-7.91,9.25,0,6.28,3.78,9.27,9.4,9.27a14.66,14.66,0,0,0,7.57-2.2l2.18,3.94a19.64,19.64,0,0,1-10.58,3.18C713.38,1805,706.88,1799.8,706.88,1790.81Z" transform="translate(0 -1266.28)"/><path class="cls-4" d="M771.29,1794.88c0-10.74,15.14-12.11,15.14-19.48,0-1.89-.74-3.35-2.77-3.35s-3.17,1.87-3.17,4.59c0,6.22,7.24,14.56,14,19.31a21.24,21.24,0,0,0,7,3.87l-1.61,5.18a26.75,26.75,0,0,1-9.18-4.92c-8.13-6.06-15.57-16.36-15.57-23.37,0-5,3.31-9,8.4-9s7.85,3.06,7.85,7.64c0,8.94-14,11.59-14,19.13,0,3.35,2.51,5.58,5.88,5.58,2.44,0,4.8-1.59,6.82-3.93a27.25,27.25,0,0,0,5.42-11.68h5.83a40.92,40.92,0,0,1-6.85,14.61c-3,3.54-6.85,5.92-12,5.92C775.49,1805,771.29,1800.54,771.29,1794.88Z" transform="translate(0 -1266.28)"/><path class="cls-4" d="M848.23,1768.39h7.54l11.65,36h-6.8l-5.41-19.12c-1.08-3.8-2.23-7.88-3.21-11.85h-.22c-1,4-2.09,8-3.17,11.85l-5.48,19.12h-6.54Zm-4.73,21.19h16.86v5.05H843.5Z" transform="translate(0 -1266.28)"/><path class="cls-4" d="M873,1777.34h5.19l.48,4.06h.22c2.59-2.61,5.63-4.72,9.74-4.72,6.25,0,9.06,4,9.06,10.94v16.73h-6.36v-15.91c0-4.33-1.4-6.31-5-6.31-2.67,0-4.47,1.29-6.94,3.79v18.43H873Z" transform="translate(0 -1266.28)"/><path class="cls-4" d="M905.38,1797.09c0-6,5.33-9.07,18.67-10-.23-3-2-5.29-6.43-5.29-3,0-6,1.33-8.83,2.87l-2.36-4.21a24.76,24.76,0,0,1,12.36-3.77c7.5,0,11.62,4.16,11.62,11.68v16h-5.23l-.49-3.35h-.18c-2.84,2.19-6.46,4-10.08,4C909.16,1805,905.38,1801.78,905.38,1797.09Zm18.67-.35v-5.68c-9.71.64-12.51,2.63-12.51,5.54,0,2.38,2.11,3.41,4.78,3.41S921.55,1798.74,924.05,1796.74Z" transform="translate(0 -1266.28)"/><path class="cls-4" d="M946.9,1794.51v-24h-9v-5h15.37v29.33c0,3.61,2.13,5,4.86,5a12,12,0,0,0,4.62-1l1.48,4.7a19.22,19.22,0,0,1-7.66,1.53C950.26,1805,946.9,1801.14,946.9,1794.51Z" transform="translate(0 -1266.28)"/><path class="cls-4" d="M971.19,1814.87l1.2-4.93a7.85,7.85,0,0,0,2.25.37c3.44,0,5.41-1.9,6.51-4.6l.65-1.69-12.1-26.68h6.35l5.52,13.2c1,2.47,2,5.25,3,8h.22c.83-2.63,1.82-5.44,2.67-8l4.87-13.2h6.06l-11.28,28.24c-2.33,6.06-5.57,9.84-12.08,9.84A13.3,13.3,0,0,1,971.19,1814.87Z" transform="translate(0 -1266.28)"/><path class="cls-4" d="M1011,1793.49v-11.12h-7.23v-4.74l7.49-.29.83-8.46h5.27v8.46h12.28v5h-12.28v11.09c0,4.46,1.67,6.47,6.23,6.47a16.65,16.65,0,0,0,5.88-1.09l1.23,4.63A26.31,26.31,0,0,1,1022,1805C1013.76,1805,1011,1800.37,1011,1793.49Z" transform="translate(0 -1266.28)"/><path class="cls-4" d="M1049.8,1782.37h-11.67v-5h18v27h-6.36Zm-1.76-14.2a4.53,4.53,0,0,1,9,0,4.53,4.53,0,0,1-9,0Z" transform="translate(0 -1266.28)"/><path class="cls-4" d="M1070.54,1790.88c0-9,7.1-14.2,15.35-14.2a14.18,14.18,0,0,1,10,3.8l-3,4a10.55,10.55,0,0,0-6.67-2.6c-5.41,0-9.14,3.58-9.14,9s3.68,8.94,9,8.94a12.62,12.62,0,0,0,7.71-3l2.66,4.06a16.83,16.83,0,0,1-10.92,4.09C1077,1805,1070.54,1799.83,1070.54,1790.88Z" transform="translate(0 -1266.28)"/><path class="cls-4" d="M1102.9,1800.83l2.78-4.06a19.9,19.9,0,0,0,11.3,3.43c3.74,0,5.5-1.43,5.5-3.22s-1.19-2.75-7.48-4.06c-7.21-1.51-10.41-4.05-10.41-8.17,0-4.69,4.28-8.07,11.84-8.07a21.07,21.07,0,0,1,11.3,3.57l-2.93,3.9a16.65,16.65,0,0,0-8.94-2.7c-3.5,0-4.95,1.35-4.95,3,0,1.91,2,2.57,7,3.67,8.63,1.9,10.87,4.2,10.87,8.49,0,4.64-4.47,8.39-12.68,8.39A24.48,24.48,0,0,1,1102.9,1800.83Z" transform="translate(0 -1266.28)"/><path class="cls-4" d="M1170.14,1799h8.66v-25.2h-8.66v-5.38h23.72v5.38h-8.66V1799h8.66v5.38h-23.72Z" transform="translate(0 -1266.28)"/><path class="cls-4" d="M1203,1777.34h5.19l.49,4.06h.22c2.58-2.61,5.62-4.72,9.74-4.72,6.24,0,9.06,4,9.06,10.94v16.73h-6.36v-15.91c0-4.33-1.4-6.31-5-6.31-2.66,0-4.46,1.29-6.94,3.79v18.43H1203Z" transform="translate(0 -1266.28)"/><path class="cls-4" d="M1241.94,1793.49v-11.12h-7.22v-4.74l7.49-.29.82-8.46h5.27v8.46h12.28v5H1248.3v11.09c0,4.46,1.68,6.47,6.24,6.47a16.73,16.73,0,0,0,5.88-1.09l1.23,4.63A26.36,26.36,0,0,1,1253,1805C1244.75,1805,1241.94,1800.37,1241.94,1793.49Z" transform="translate(0 -1266.28)"/><path class="cls-4" d="M1271.65,1777.34h5.25l.54,6.14h.15c2.74-4.41,6.84-6.8,11.49-6.8a11.12,11.12,0,0,1,5.25,1.1l-1.34,5.37a13.87,13.87,0,0,0-4.89-.84c-3.69,0-7.33,1.9-10.09,7.14v14.9h-6.36Z" transform="translate(0 -1266.28)"/><path class="cls-4" d="M1300.44,1790.88c0-9,6.44-14.2,13.56-14.2s13.56,5.17,13.56,14.2S1321.12,1805,1314,1805,1300.44,1799.83,1300.44,1790.88Zm20.61,0c0-5.44-2.64-9-7-9s-7,3.58-7,9,2.64,8.94,7,8.94S1321.05,1796.27,1321.05,1790.88Z" transform="translate(0 -1266.28)"/><path class="cls-4" d="M1368.14,1799h8.66v-25.2h-8.66v-5.38h23.72v5.38h-8.67V1799h8.67v5.38h-23.72Z" transform="translate(0 -1266.28)"/><path class="cls-4" d="M1401.24,1768.39h11.15c7.41,0,12.76,2.25,12.76,8.84a7.85,7.85,0,0,1-6.22,7.8v.22c5.2.89,8.07,3.67,8.07,8.54,0,7.19-5.74,10.56-13.68,10.56h-12.08Zm10.59,14.78c5,0,7.08-1.82,7.08-5.17s-2.3-4.51-7-4.51h-4.36v9.68Zm.83,16.07c5.27,0,8.1-1.81,8.1-5.87,0-3.79-2.72-5.35-8.1-5.35h-5.06v11.22Z" transform="translate(0 -1266.28)"/><path class="cls-4" d="M1433.05,1768.39h7.09l4.27,14,1.48,5.38h.22l1.44-5.38,4.31-14h7.08v36h-5.65v-14.51c0-3.78.63-11.25.93-14.74h-.17l-2.39,8.36-4,11.36h-3.63l-3.92-11.36-2.34-8.36h-.15c.37,3.49.93,11,.93,14.74v14.51h-5.54Z" transform="translate(0 -1266.28)"/><path class="cls-4" d="M1499.09,1800.66c10.93-9.43,17.54-15.47,17.54-20.9,0-3.69-2.26-6-6.66-6-3,0-5.6,1.79-7.71,3.86l-3.51-3.49c3.41-3.44,6.9-5.44,12-5.44,7.2,0,11.9,4.27,11.9,10.74,0,6.24-6.31,12.64-14.44,19.88,2.1-.18,4.5-.33,6.45-.33h9.86v5.38h-25.48Z" transform="translate(0 -1266.28)"/><path class="cls-4" d="M1532,1786.71c0-11.83,5.06-18,13-18s13,6.2,13,18S1553,1805,1545,1805,1532,1798.47,1532,1786.71Zm20.28,0c0-9.56-3.1-13-7.26-13s-7.27,3.47-7.27,13,3.1,13.3,7.27,13.3S1552.26,1796.27,1552.26,1786.71Zm-11-.24a3.78,3.78,0,1,1,3.78,4A3.71,3.71,0,0,1,1541.22,1786.47Z" transform="translate(0 -1266.28)"/><path class="cls-4" d="M1565.09,1800.66c10.93-9.43,17.54-15.47,17.54-20.9,0-3.69-2.26-6-6.66-6-3,0-5.6,1.79-7.71,3.86l-3.51-3.49c3.41-3.44,6.9-5.44,12-5.44,7.2,0,11.9,4.27,11.9,10.74,0,6.24-6.32,12.64-14.44,19.88,2.1-.18,4.5-.33,6.45-.33h9.86v5.38h-25.48Z" transform="translate(0 -1266.28)"/><path class="cls-4" d="M1599.33,1799.16h9.75v-22.91h-7.8v-4a24.66,24.66,0,0,0,9.46-2.89h4.7v29.82H1624v5.19h-24.63Z" transform="translate(0 -1266.28)"/><path class="cls-16" d="M330.39,1884.84l6.54-4.28a94.64,94.64,0,0,1,8.74,17.5H346c5-16.77,13.47-32.23,23-41.9l6.31,5.52c-9.43,8.82-18.54,22.75-24.14,43l-9.68,1.11A85.41,85.41,0,0,0,330.39,1884.84Z" transform="translate(0 -1266.28)"/><path class="cls-4" d="M410.55,1890.88c0-9,7.1-14.2,15.35-14.2a14.18,14.18,0,0,1,10,3.8l-3,4a10.55,10.55,0,0,0-6.67-2.6c-5.41,0-9.14,3.58-9.14,9s3.68,8.94,8.95,8.94a12.62,12.62,0,0,0,7.71-3l2.66,4.06a16.83,16.83,0,0,1-10.92,4.09C417,1905,410.55,1899.83,410.55,1890.88Z" transform="translate(0 -1266.28)"/><path class="cls-4" d="M442.89,1890.81a13.68,13.68,0,0,1,13.92-14.13c8.06,0,12.53,5.34,12.53,12.82a21.11,21.11,0,0,1-.28,3.19H447.43v-4.49H465l-1.21,1.41c0-5.34-2.51-8-6.74-8-4.46,0-7.91,3.22-7.91,9.25,0,6.28,3.79,9.27,9.4,9.27a14.69,14.69,0,0,0,7.58-2.2l2.17,3.94a19.62,19.62,0,0,1-10.58,3.18C449.39,1905,442.89,1899.8,442.89,1890.81Z" transform="translate(0 -1266.28)"/><path class="cls-4" d="M479.66,1877.34h5.25l.54,6.14h.15c2.74-4.41,6.84-6.8,11.49-6.8a11.19,11.19,0,0,1,5.26,1.1l-1.35,5.37a13.87,13.87,0,0,0-4.89-.84c-3.69,0-7.32,1.9-10.09,7.14v14.9h-6.36Z" transform="translate(0 -1266.28)"/><path class="cls-4" d="M516,1893.49v-11.12h-7.22v-4.74l7.49-.29.82-8.46h5.27v8.46h12.28v5H522.31v11.09c0,4.46,1.68,6.47,6.24,6.47a16.73,16.73,0,0,0,5.88-1.09l1.23,4.63A26.36,26.36,0,0,1,527,1905C518.76,1905,516,1900.37,516,1893.49Z" transform="translate(0 -1266.28)"/><path class="cls-4" d="M554.8,1882.37H543.14v-5h18v27H554.8Zm-1.75-14.2a4.53,4.53,0,0,1,9,0,4.53,4.53,0,0,1-9,0Z" transform="translate(0 -1266.28)"/><path class="cls-4" d="M576.59,1877.63l7.61-.29h16.39v5h-24Zm7.42-1.76c0-6.37,3.53-11,11.51-11a22.79,22.79,0,0,1,8,1.5l-1.31,4.7a15.1,15.1,0,0,0-6-1.16c-4.12,0-5.9,2.09-5.9,5.87v28.59H584Z" transform="translate(0 -1266.28)"/><path class="cls-4" d="M620.8,1882.37H609.14v-5h18v27H620.8Zm-1.75-14.2a4.52,4.52,0,0,1,9,0,4.52,4.52,0,0,1-9,0Z" transform="translate(0 -1266.28)"/><path class="cls-4" d="M641.55,1890.88c0-9,7.1-14.2,15.34-14.2a14.19,14.19,0,0,1,10,3.8l-3,4a10.55,10.55,0,0,0-6.67-2.6c-5.41,0-9.14,3.58-9.14,9s3.67,8.94,9,8.94a12.59,12.59,0,0,0,7.7-3l2.66,4.06a16.83,16.83,0,0,1-10.91,4.09C648,1905,641.55,1899.83,641.55,1890.88Z" transform="translate(0 -1266.28)"/><path class="cls-4" d="M674.38,1897.09c0-6,5.33-9.07,18.67-10-.23-3-2-5.29-6.43-5.29-3,0-6,1.33-8.82,2.87l-2.36-4.21a24.69,24.69,0,0,1,12.36-3.77c7.49,0,11.61,4.16,11.61,11.68v16h-5.23l-.48-3.35h-.19c-2.83,2.19-6.46,4-10.08,4C678.17,1905,674.38,1901.78,674.38,1897.09Zm18.67-.35v-5.68c-9.7.64-12.5,2.63-12.5,5.54,0,2.38,2.1,3.41,4.78,3.41S690.56,1898.74,693.05,1896.74Z" transform="translate(0 -1266.28)"/><path class="cls-4" d="M714,1893.49v-11.12h-7.23v-4.74l7.49-.29.83-8.46h5.27v8.46h12.28v5H720.31v11.09c0,4.46,1.68,6.47,6.24,6.47a16.63,16.63,0,0,0,5.87-1.09l1.24,4.63A26.38,26.38,0,0,1,725,1905C716.76,1905,714,1900.37,714,1893.49Z" transform="translate(0 -1266.28)"/><path class="cls-4" d="M739.88,1890.81a13.69,13.69,0,0,1,13.93-14.13c8.06,0,12.53,5.34,12.53,12.82a21.11,21.11,0,0,1-.28,3.19H744.42v-4.49H762l-1.22,1.41c0-5.34-2.51-8-6.73-8-4.47,0-7.91,3.22-7.91,9.25,0,6.28,3.78,9.27,9.4,9.27a14.66,14.66,0,0,0,7.57-2.2l2.18,3.94a19.64,19.64,0,0,1-10.58,3.18C746.38,1905,739.88,1899.8,739.88,1890.81Z" transform="translate(0 -1266.28)"/><path class="cls-4" d="M805.44,1890.88c0-9,6.45-14.2,13.57-14.2s13.56,5.17,13.56,14.2S826.12,1905,819,1905,805.44,1899.83,805.44,1890.88Zm20.62,0c0-5.44-2.65-9-7-9s-7,3.58-7,9,2.64,8.94,7,8.94S826.06,1896.27,826.06,1890.88Z" transform="translate(0 -1266.28)"/><path class="cls-4" d="M840.59,1877.63l7.61-.29h16.39v5h-24Zm7.42-1.76c0-6.37,3.53-11,11.5-11a22.75,22.75,0,0,1,8,1.5l-1.3,4.7a15.14,15.14,0,0,0-6-1.16c-4.12,0-5.91,2.09-5.91,5.87v28.59H848Z" transform="translate(0 -1266.28)"/><path class="cls-4" d="M906,1877.34h5.19l.48,3.08h.19a13.36,13.36,0,0,1,8.67-3.74c7,0,11,5.39,11,13.76,0,9.21-5.72,14.56-12,14.56a11.12,11.12,0,0,1-7.32-3.2h-.16l.31,4.74V1915H906Zm19,13.14c0-5.38-1.89-8.54-6.26-8.54-2,0-4.2,1-6.39,3.23v12.14a9.05,9.05,0,0,0,5.86,2.43C922.1,1899.74,925.05,1896.59,925.05,1890.48Z" transform="translate(0 -1266.28)"/><path class="cls-4" d="M938.38,1897.09c0-6,5.33-9.07,18.67-10-.23-3-2-5.29-6.43-5.29-3,0-6,1.33-8.83,2.87l-2.36-4.21a24.76,24.76,0,0,1,12.36-3.77c7.5,0,11.62,4.16,11.62,11.68v16h-5.23l-.49-3.35h-.18c-2.84,2.19-6.46,4-10.08,4C942.16,1905,938.38,1901.78,938.38,1897.09Zm18.67-.35v-5.68c-9.71.64-12.51,2.63-12.51,5.54,0,2.38,2.11,3.41,4.78,3.41S954.55,1898.74,957.05,1896.74Z" transform="translate(0 -1266.28)"/><path class="cls-4" d="M974.65,1877.34h5.25l.54,6.14h.15c2.74-4.41,6.84-6.8,11.49-6.8a11.19,11.19,0,0,1,5.26,1.1l-1.35,5.37a13.87,13.87,0,0,0-4.89-.84c-3.69,0-7.32,1.9-10.09,7.14v14.9h-6.36Z" transform="translate(0 -1266.28)"/><path class="cls-4" d="M1011,1893.49v-11.12h-7.23v-4.74l7.49-.29.83-8.46h5.27v8.46h12.28v5h-12.28v11.09c0,4.46,1.67,6.47,6.23,6.47a16.65,16.65,0,0,0,5.88-1.09l1.23,4.63A26.31,26.31,0,0,1,1022,1905C1013.76,1905,1011,1900.37,1011,1893.49Z" transform="translate(0 -1266.28)"/><path class="cls-4" d="M1049.8,1882.37h-11.67v-5h18v27h-6.36Zm-1.76-14.2a4.53,4.53,0,0,1,9,0,4.53,4.53,0,0,1-9,0Z" transform="translate(0 -1266.28)"/><path class="cls-4" d="M1070.54,1890.88c0-9,7.1-14.2,15.35-14.2a14.18,14.18,0,0,1,10,3.8l-3,4a10.55,10.55,0,0,0-6.67-2.6c-5.41,0-9.14,3.58-9.14,9s3.68,8.94,9,8.94a12.62,12.62,0,0,0,7.71-3l2.66,4.06a16.83,16.83,0,0,1-10.92,4.09C1077,1905,1070.54,1899.83,1070.54,1890.88Z" transform="translate(0 -1266.28)"/><path class="cls-4" d="M1115.8,1882.37h-11.67v-5h18v27h-6.36Zm-1.76-14.2a4.53,4.53,0,0,1,9,0,4.53,4.53,0,0,1-9,0Z" transform="translate(0 -1266.28)"/><path class="cls-4" d="M1137,1877.34h5.19l.49,3.08h.19a13.36,13.36,0,0,1,8.67-3.74c7,0,11,5.39,11,13.76,0,9.21-5.72,14.56-12,14.56a11.16,11.16,0,0,1-7.33-3.2h-.15l.3,4.74V1915H1137Zm19,13.14c0-5.38-1.9-8.54-6.26-8.54-2,0-4.21,1-6.4,3.23v12.14a9.06,9.06,0,0,0,5.87,2.43C1153.1,1899.74,1156.05,1896.59,1156.05,1890.48Z" transform="translate(0 -1266.28)"/><path class="cls-4" d="M1169.38,1897.09c0-6,5.32-9.07,18.66-10-.22-3-2-5.29-6.43-5.29-3,0-6,1.33-8.82,2.87l-2.36-4.21a24.72,24.72,0,0,1,12.36-3.77c7.49,0,11.61,4.16,11.61,11.68v16h-5.22l-.49-3.35h-.19c-2.83,2.19-6.46,4-10.08,4C1173.16,1905,1169.38,1901.78,1169.38,1897.09Zm18.66-.35v-5.68c-9.7.64-12.5,2.63-12.5,5.54,0,2.38,2.1,3.41,4.78,3.41S1185.55,1898.74,1188,1896.74Z" transform="translate(0 -1266.28)"/><path class="cls-4" d="M1208.94,1893.49v-11.12h-7.22v-4.74l7.49-.29.83-8.46h5.26v8.46h12.28v5H1215.3v11.09c0,4.46,1.68,6.47,6.24,6.47a16.73,16.73,0,0,0,5.88-1.09l1.23,4.63A26.36,26.36,0,0,1,1220,1905C1211.75,1905,1208.94,1900.37,1208.94,1893.49Z" transform="translate(0 -1266.28)"/><path class="cls-4" d="M1247.79,1882.37h-11.66v-5h18v27h-6.37Zm-1.75-14.2a4.53,4.53,0,0,1,9,0,4.53,4.53,0,0,1-9,0Z" transform="translate(0 -1266.28)"/><path class="cls-4" d="M1267.44,1890.88c0-9,6.44-14.2,13.56-14.2s13.56,5.17,13.56,14.2S1288.12,1905,1281,1905,1267.44,1899.83,1267.44,1890.88Zm20.61,0c0-5.44-2.64-9-7-9s-7,3.58-7,9,2.64,8.94,7,8.94S1288.05,1896.27,1288.05,1890.88Z" transform="translate(0 -1266.28)"/><path class="cls-4" d="M1302,1877.34h5.19l.49,4.06h.22c2.58-2.61,5.62-4.72,9.74-4.72,6.24,0,9.06,4,9.06,10.94v16.73h-6.37v-15.91c0-4.33-1.39-6.31-5-6.31-2.66,0-4.47,1.29-6.94,3.79v18.43H1302Z" transform="translate(0 -1266.28)"/><path class="cls-4" d="M1367.42,1868.39h6.43v14.42h12.29v-14.42h6.43v36h-6.43v-15.93h-12.29v15.93h-6.43Z" transform="translate(0 -1266.28)"/><path class="cls-4" d="M1400.31,1894.07v-16.73h6.36v15.9c0,4.3,1.36,6.31,5,6.31,2.53,0,4.36-1.06,6.77-4v-18.23h6.36v27h-5.23l-.48-4.3h-.22c-2.56,3-5.55,5-9.57,5C1403.08,1905,1400.31,1901,1400.31,1894.07Z" transform="translate(0 -1266.28)"/><path class="cls-4" d="M1441.9,1894.51v-24h-9v-5h15.38v29.33c0,3.61,2.13,5,4.85,5a12,12,0,0,0,4.62-1l1.48,4.7a19.2,19.2,0,0,1-7.65,1.53C1445.25,1905,1441.9,1901.14,1441.9,1894.51Z" transform="translate(0 -1266.28)"/><path class="cls-4" d="M1472.94,1893.49v-11.12h-7.23v-4.74l7.49-.29.83-8.46h5.27v8.46h12.28v5H1479.3v11.09c0,4.46,1.67,6.47,6.24,6.47a16.63,16.63,0,0,0,5.87-1.09l1.24,4.63A26.38,26.38,0,0,1,1484,1905C1475.75,1905,1472.94,1900.37,1472.94,1893.49Z" transform="translate(0 -1266.28)"/><path class="cls-4" d="M1533.34,1868.39h11.82c7.87,0,13.7,2.76,13.7,11.08,0,8-5.95,11.67-13.7,11.67h-5.42v13.21h-6.4Zm11.31,17.64c5.34,0,7.9-2.15,7.9-6.56s-2.68-6-7.9-6h-4.91V1886Z" transform="translate(0 -1266.28)"/><path class="cls-4" d="M1568.64,1877.34h5.25l.54,6.14h.15c2.75-4.41,6.84-6.8,11.49-6.8a11.19,11.19,0,0,1,5.26,1.1l-1.35,5.37a13.87,13.87,0,0,0-4.89-.84c-3.69,0-7.32,1.9-10.09,7.14v14.9h-6.36Z" transform="translate(0 -1266.28)"/><path class="cls-4" d="M1610.79,1882.37h-11.67v-5h18v27h-6.36Zm-1.75-14.2a4.52,4.52,0,0,1,9,0,4.52,4.52,0,0,1-9,0Z" transform="translate(0 -1266.28)"/><path class="cls-4" d="M1631.38,1901l16.2-18.59h-14.35v-5h23.29v3.38l-16.23,18.55H1657v5.08h-25.58Z" transform="translate(0 -1266.28)"/><path class="cls-4" d="M1663.87,1890.81a13.68,13.68,0,0,1,13.92-14.13c8.06,0,12.53,5.34,12.53,12.82a21.11,21.11,0,0,1-.28,3.19h-21.63v-4.49h17.53l-1.22,1.41c0-5.34-2.51-8-6.74-8-4.46,0-7.9,3.22-7.9,9.25,0,6.28,3.78,9.27,9.4,9.27a14.69,14.69,0,0,0,7.57-2.2l2.17,3.94a19.62,19.62,0,0,1-10.58,3.18C1670.37,1905,1663.87,1899.8,1663.87,1890.81Z" transform="translate(0 -1266.28)"/><path class="cls-4" d="M1730.08,1900.66c10.93-9.43,17.54-15.47,17.54-20.9,0-3.69-2.25-6-6.66-6-3,0-5.59,1.79-7.7,3.86l-3.51-3.49c3.41-3.44,6.9-5.44,12-5.44,7.2,0,11.9,4.27,11.9,10.74,0,6.24-6.32,12.64-14.44,19.88,2.1-.18,4.5-.33,6.45-.33h9.85v5.38h-25.48Z" transform="translate(0 -1266.28)"/><path class="cls-4" d="M1763,1886.71c0-11.83,5.07-18,13-18s13,6.2,13,18-5.07,18.29-13,18.29S1763,1898.47,1763,1886.71Zm20.29,0c0-9.56-3.1-13-7.27-13s-7.27,3.47-7.27,13,3.1,13.3,7.27,13.3S1783.26,1896.27,1783.26,1886.71Zm-11-.24a3.77,3.77,0,1,1,3.77,4A3.7,3.7,0,0,1,1772.22,1886.47Z" transform="translate(0 -1266.28)"/><path class="cls-4" d="M1797.32,1899.16h9.76v-22.91h-7.81v-4a24.72,24.72,0,0,0,9.47-2.89h4.7v29.82H1822v5.19h-24.64Z" transform="translate(0 -1266.28)"/><path class="cls-4" d="M1829.37,1901.06l3.42-3.87a10,10,0,0,0,6.56,2.63c5.06,0,9.5-3.55,9.5-14,0-8.66-3.32-12.23-7.84-12.23-3.47,0-6.35,2.34-6.35,6.62s2.35,6.23,6.3,6.23c2.43,0,5.28-1.19,7.88-4.34l.27,4.44a13.82,13.82,0,0,1-9.47,4.48c-6.29,0-10.85-3.51-10.85-10.81,0-7,5.65-11.5,12.11-11.5,7.4,0,13.81,5.33,13.81,17.11,0,13.55-7.21,19.21-14.86,19.21A15.14,15.14,0,0,1,1829.37,1901.06Z" transform="translate(0 -1266.28)"/><path class="cls-16" d="M429.39,1984.84l6.54-4.28a94.64,94.64,0,0,1,8.74,17.5H445c5-16.77,13.47-32.23,23-41.9l6.31,5.52c-9.43,8.82-18.54,22.75-24.14,43l-9.68,1.11A85.41,85.41,0,0,0,429.39,1984.84Z" transform="translate(0 -1266.28)"/><path class="cls-4" d="M507.87,1986.2c0-11.82,5.8-18.47,14.14-18.47s14.14,6.65,14.14,18.47c0,12-5.8,18.8-14.14,18.8S507.87,1998.25,507.87,1986.2Zm21.7,0c0-8.24-3-12.91-7.56-12.91s-7.56,4.67-7.56,12.91c0,8.47,3,13.24,7.56,13.24S529.57,1994.67,529.57,1986.2Z" transform="translate(0 -1266.28)"/><path class="cls-4" d="M545.66,1977.34h5.25l.54,6.14h.15c2.74-4.41,6.84-6.8,11.49-6.8a11.19,11.19,0,0,1,5.26,1.1l-1.35,5.37a13.87,13.87,0,0,0-4.89-.84c-3.69,0-7.33,1.9-10.09,7.14v14.9h-6.36Z" transform="translate(0 -1266.28)"/><path class="cls-4" d="M574.91,2009.1c0-2.19,1.49-4.17,4.31-5.7v-.22a5,5,0,0,1-2.75-4.52,6.64,6.64,0,0,1,3.23-5.06v-.22a8.43,8.43,0,0,1-3.46-7c0-6.2,5.19-9.73,11.11-9.73a12.5,12.5,0,0,1,4.22.66h11.08v4.83h-6.2a7.11,7.11,0,0,1,1.71,4.46c0,6-4.75,9.17-10.81,9.17a12.35,12.35,0,0,1-4.12-.77,2.93,2.93,0,0,0-1.65,2.53c0,1.77,1.73,2.56,5.09,2.56h5.51c7,0,10.64,1.88,10.64,6.59,0,5.35-6.06,9.59-15.58,9.59C579.8,2016.3,574.91,2013.91,574.91,2009.1Zm21.8-1.33c0-2.13-1.85-2.66-5.44-2.66H587a15.91,15.91,0,0,1-4.12-.4c-1.94,1.11-2.66,2.29-2.66,3.54,0,2.43,2.85,3.82,7.82,3.82C593.28,2012.07,596.71,2010.07,596.71,2007.77Zm-4.23-21.36a5.13,5.13,0,1,0-5.13,5.41A5,5,0,0,0,592.48,1986.41Z" transform="translate(0 -1266.28)"/><path class="cls-4" d="M608.39,1997.09c0-6,5.32-9.07,18.66-10-.22-3-2-5.29-6.43-5.29-3,0-6,1.33-8.82,2.87l-2.36-4.21a24.69,24.69,0,0,1,12.36-3.77c7.49,0,11.61,4.16,11.61,11.68v16h-5.23l-.48-3.35h-.19c-2.83,2.19-6.46,4-10.08,4C612.17,2005,608.39,2001.78,608.39,1997.09Zm18.66-.35v-5.68c-9.7.64-12.5,2.63-12.5,5.54,0,2.38,2.1,3.41,4.78,3.41S624.56,1998.74,627.05,1996.74Z" transform="translate(0 -1266.28)"/><path class="cls-4" d="M642,1977.34h5.19l.49,4.06h.22c2.58-2.61,5.62-4.72,9.74-4.72,6.24,0,9.06,4,9.06,10.94v16.73h-6.37v-15.91c0-4.33-1.39-6.31-5-6.31-2.67,0-4.47,1.29-6.94,3.79v18.43H642Z" transform="translate(0 -1266.28)"/><path class="cls-4" d="M686.8,1982.37H675.14v-5h18v27H686.8Zm-1.75-14.2a4.52,4.52,0,0,1,9,0,4.52,4.52,0,0,1-9,0Z" transform="translate(0 -1266.28)"/><path class="cls-4" d="M707.39,2001l16.2-18.59H709.25v-5h23.29v3.38l-16.24,18.55H733v5.08H707.39Z" transform="translate(0 -1266.28)"/><path class="cls-4" d="M752.8,1982.37H741.13v-5h18v27H752.8Zm-1.75-14.2a4.52,4.52,0,0,1,9,0,4.52,4.52,0,0,1-9,0Z" transform="translate(0 -1266.28)"/><path class="cls-4" d="M774,1977.34h5.19l.49,4.06h.22c2.58-2.61,5.62-4.72,9.74-4.72,6.24,0,9.05,4,9.05,10.94v16.73h-6.36v-15.91c0-4.33-1.39-6.31-5-6.31-2.67,0-4.47,1.29-6.94,3.79v18.43H774Z" transform="translate(0 -1266.28)"/><path class="cls-4" d="M805.9,2009.1c0-2.19,1.5-4.17,4.32-5.7v-.22a5,5,0,0,1-2.75-4.52,6.64,6.64,0,0,1,3.23-5.06v-.22a8.43,8.43,0,0,1-3.46-7c0-6.2,5.18-9.73,11.11-9.73a12.5,12.5,0,0,1,4.22.66h11.07v4.83h-6.2a7.06,7.06,0,0,1,1.71,4.46c0,6-4.74,9.17-10.8,9.17a12.45,12.45,0,0,1-4.13-.77,2.94,2.94,0,0,0-1.64,2.53c0,1.77,1.73,2.56,5.09,2.56h5.51c7,0,10.64,1.88,10.64,6.59,0,5.35-6.06,9.59-15.58,9.59C810.79,2016.3,805.9,2013.91,805.9,2009.1Zm21.81-1.33c0-2.13-1.86-2.66-5.44-2.66H818a15.88,15.88,0,0,1-4.11-.4c-1.94,1.11-2.66,2.29-2.66,3.54,0,2.43,2.84,3.82,7.81,3.82C824.28,2012.07,827.71,2010.07,827.71,2007.77Zm-4.23-21.36a5.13,5.13,0,1,0-5.13,5.41A5,5,0,0,0,823.48,1986.41Z" transform="translate(0 -1266.28)"/><path class="cls-4" d="M872.54,1990.88c0-9,7.1-14.2,15.35-14.2a14.21,14.21,0,0,1,10,3.8l-3,4a10.5,10.5,0,0,0-6.66-2.6c-5.42,0-9.15,3.58-9.15,9s3.68,8.94,9,8.94a12.61,12.61,0,0,0,7.7-3l2.66,4.06a16.83,16.83,0,0,1-10.92,4.09C879,2005,872.54,1999.83,872.54,1990.88Z" transform="translate(0 -1266.28)"/><path class="cls-4" d="M904.44,1990.88c0-9,6.44-14.2,13.56-14.2s13.57,5.17,13.57,14.2S925.12,2005,918,2005,904.44,1999.83,904.44,1990.88Zm20.61,0c0-5.44-2.64-9-7-9s-7,3.58-7,9,2.65,8.94,7,8.94S925.05,1996.27,925.05,1990.88Z" transform="translate(0 -1266.28)"/><path class="cls-4" d="M937.05,1977.34h4.88l.49,3.44h.15c1.19-2.34,2.88-4.1,6-4.1,2.5,0,4.19,1.54,4.9,4.53,1.25-2.65,3-4.53,6.15-4.53,3.82,0,6,3.13,6,8.53v19.14h-6.13v-18.69c0-2.37-.64-3.57-2.15-3.57s-2.3,1.12-3.38,3.38v18.88h-5.27v-18.69c0-2.37-.63-3.57-2.15-3.57s-2.37,1.12-3.39,3.38v18.88h-6.12Z" transform="translate(0 -1266.28)"/><path class="cls-4" d="M970.05,1977.34h4.88l.49,3.44h.15c1.19-2.34,2.88-4.1,6-4.1,2.5,0,4.19,1.54,4.9,4.53,1.25-2.65,3-4.53,6.15-4.53,3.82,0,6,3.13,6,8.53v19.14h-6.12v-18.69c0-2.37-.64-3.57-2.15-3.57s-2.3,1.12-3.38,3.38v18.88h-5.27v-18.69c0-2.37-.63-3.57-2.15-3.57s-2.37,1.12-3.39,3.38v18.88h-6.12Z" transform="translate(0 -1266.28)"/><path class="cls-4" d="M1016.8,1982.37h-11.67v-5h18v27h-6.36Zm-1.76-14.2a4.53,4.53,0,0,1,9,0,4.53,4.53,0,0,1-9,0Z" transform="translate(0 -1266.28)"/><path class="cls-4" d="M1043.94,1993.49v-11.12h-7.22v-4.74l7.49-.29.83-8.46h5.26v8.46h12.29v5H1050.3v11.09c0,4.46,1.68,6.47,6.24,6.47a16.65,16.65,0,0,0,5.88-1.09l1.23,4.63A26.31,26.31,0,0,1,1055,2005C1046.76,2005,1043.94,2000.37,1043.94,1993.49Z" transform="translate(0 -1266.28)"/><path class="cls-4" d="M1076.94,1993.49v-11.12h-7.22v-4.74l7.49-.29.83-8.46h5.26v8.46h12.29v5H1083.3v11.09c0,4.46,1.68,6.47,6.24,6.47a16.65,16.65,0,0,0,5.88-1.09l1.23,4.63A26.31,26.31,0,0,1,1088,2005C1079.76,2005,1076.94,2000.37,1076.94,1993.49Z" transform="translate(0 -1266.28)"/><path class="cls-4" d="M1102.88,1990.81a13.68,13.68,0,0,1,13.92-14.13c8.06,0,12.53,5.34,12.53,12.82a21.11,21.11,0,0,1-.28,3.19h-21.63v-4.49h17.52l-1.21,1.41c0-5.34-2.51-8-6.74-8-4.46,0-7.91,3.22-7.91,9.25,0,6.28,3.79,9.27,9.4,9.27a14.69,14.69,0,0,0,7.58-2.2l2.17,3.94a19.62,19.62,0,0,1-10.58,3.18C1109.38,2005,1102.88,1999.8,1102.88,1990.81Z" transform="translate(0 -1266.28)"/><path class="cls-4" d="M1135.88,1990.81a13.68,13.68,0,0,1,13.92-14.13c8.06,0,12.53,5.34,12.53,12.82a21.11,21.11,0,0,1-.28,3.19h-21.63v-4.49h17.52l-1.21,1.41c0-5.34-2.51-8-6.74-8-4.46,0-7.91,3.22-7.91,9.25,0,6.28,3.79,9.27,9.4,9.27a14.69,14.69,0,0,0,7.58-2.2l2.17,3.94a19.62,19.62,0,0,1-10.58,3.18C1142.38,2005,1135.88,1999.8,1135.88,1990.81Z" transform="translate(0 -1266.28)"/><path class="cls-4" d="M1202.42,1968.39h6.43v14.42h12.3v-14.42h6.43v36h-6.43v-15.93h-12.3v15.93h-6.43Z" transform="translate(0 -1266.28)"/><path class="cls-4" d="M1235.31,1994.07v-16.73h6.36v15.9c0,4.3,1.36,6.31,5,6.31,2.54,0,4.37-1.06,6.77-4v-18.23h6.36v27h-5.23l-.48-4.3h-.22c-2.55,3-5.55,5-9.57,5C1238.08,2005,1235.31,2001,1235.31,1994.07Z" transform="translate(0 -1266.28)"/><path class="cls-4" d="M1276.9,1994.51v-24h-9v-5h15.38v29.33c0,3.61,2.13,5,4.86,5a12,12,0,0,0,4.62-1l1.47,4.7a19.13,19.13,0,0,1-7.65,1.53C1280.26,2005,1276.9,2001.14,1276.9,1994.51Z" transform="translate(0 -1266.28)"/><path class="cls-4" d="M1307.94,1993.49v-11.12h-7.23v-4.74l7.5-.29.82-8.46h5.27v8.46h12.28v5H1314.3v11.09c0,4.46,1.68,6.47,6.24,6.47a16.73,16.73,0,0,0,5.88-1.09l1.23,4.63A26.36,26.36,0,0,1,1319,2005C1310.75,2005,1307.94,2000.37,1307.94,1993.49Z" transform="translate(0 -1266.28)"/><path class="cls-4" d="M1368.34,1968.39h11.82c7.87,0,13.7,2.76,13.7,11.08,0,8-5.94,11.67-13.7,11.67h-5.42v13.21h-6.4Zm11.31,17.64c5.34,0,7.9-2.15,7.9-6.56s-2.68-6-7.9-6h-4.91V1986Z" transform="translate(0 -1266.28)"/><path class="cls-4" d="M1403.65,1977.34h5.24l.54,6.14h.15c2.75-4.41,6.85-6.8,11.49-6.8a11.19,11.19,0,0,1,5.26,1.1l-1.34,5.37a13.87,13.87,0,0,0-4.89-.84c-3.69,0-7.33,1.9-10.09,7.14v14.9h-6.36Z" transform="translate(0 -1266.28)"/><path class="cls-4" d="M1445.79,1982.37h-11.67v-5h18v27h-6.36Zm-1.75-14.2a4.52,4.52,0,0,1,9,0,4.52,4.52,0,0,1-9,0Z" transform="translate(0 -1266.28)"/><path class="cls-4" d="M1466.38,2001l16.2-18.59h-14.34v-5h23.29v3.38l-16.24,18.55H1492v5.08h-25.58Z" transform="translate(0 -1266.28)"/><path class="cls-4" d="M1498.87,1990.81a13.68,13.68,0,0,1,13.92-14.13c8.07,0,12.54,5.34,12.54,12.82a19.68,19.68,0,0,1-.29,3.19h-21.63v-4.49h17.53l-1.22,1.41c0-5.34-2.51-8-6.74-8-4.46,0-7.9,3.22-7.9,9.25,0,6.28,3.78,9.27,9.4,9.27a14.69,14.69,0,0,0,7.57-2.2l2.18,3.94a19.68,19.68,0,0,1-10.59,3.18C1505.37,2005,1498.87,1999.8,1498.87,1990.81Z" transform="translate(0 -1266.28)"/><path class="cls-4" d="M1565.09,2000.66c10.93-9.43,17.54-15.47,17.54-20.9,0-3.69-2.26-6-6.66-6-3,0-5.6,1.79-7.71,3.86l-3.51-3.49c3.41-3.44,6.9-5.44,12-5.44,7.2,0,11.9,4.27,11.9,10.74,0,6.24-6.32,12.64-14.44,19.88,2.1-.18,4.5-.33,6.45-.33h9.86v5.38h-25.48Z" transform="translate(0 -1266.28)"/><path class="cls-4" d="M1598,1986.71c0-11.83,5.06-18,13-18s13,6.2,13,18-5.07,18.29-13,18.29S1598,1998.47,1598,1986.71Zm20.28,0c0-9.56-3.1-13-7.27-13s-7.27,3.47-7.27,13,3.11,13.3,7.27,13.3S1618.26,1996.27,1618.26,1986.71Zm-11-.24a3.78,3.78,0,1,1,3.77,4A3.7,3.7,0,0,1,1607.22,1986.47Z" transform="translate(0 -1266.28)"/><path class="cls-4" d="M1631.09,2000.66c10.93-9.43,17.54-15.47,17.54-20.9,0-3.69-2.26-6-6.67-6-3,0-5.59,1.79-7.7,3.86l-3.51-3.49c3.41-3.44,6.9-5.44,12-5.44,7.2,0,11.9,4.27,11.9,10.74,0,6.24-6.32,12.64-14.44,19.88,2.1-.18,4.5-.33,6.45-.33h9.85v5.38h-25.47Z" transform="translate(0 -1266.28)"/><path class="cls-4" d="M1664,1986.71c0-11.83,5.06-18,13-18s13,6.2,13,18-5.07,18.29-13,18.29S1664,1998.47,1664,1986.71Zm20.28,0c0-9.56-3.1-13-7.27-13s-7.27,3.47-7.27,13,3.11,13.3,7.27,13.3S1684.26,1996.27,1684.26,1986.71Zm-11-.24a3.78,3.78,0,1,1,3.77,4A3.7,3.7,0,0,1,1673.22,1986.47Z" transform="translate(0 -1266.28)"/><path class="cls-16" d="M528.38,2084.84l6.55-4.28a94.87,94.87,0,0,1,8.74,17.49H544c5-16.76,13.46-32.22,23-41.89l6.31,5.52c-9.43,8.82-18.54,22.75-24.14,43l-9.68,1.11A85.1,85.1,0,0,0,528.38,2084.84Z" transform="translate(0 -1266.28)"/><path class="cls-4" d="M609.35,2068.39h11.82c7.87,0,13.71,2.76,13.71,11.08,0,8.05-6,11.67-13.71,11.67h-5.42v13.2h-6.4ZM620.66,2086c5.34,0,7.9-2.14,7.9-6.55s-2.67-6-7.9-6h-4.91V2086Z" transform="translate(0 -1266.28)"/><path class="cls-4" d="M641.43,2068.39h6.43v14.42h12.29v-14.42h6.43v36h-6.43v-15.92H647.86v15.92h-6.43Z" transform="translate(0 -1266.28)"/><path class="cls-4" d="M675.35,2068.39h11.82c7.87,0,13.71,2.76,13.71,11.08,0,8.05-6,11.67-13.71,11.67h-5.42v13.2h-6.4ZM686.66,2086c5.34,0,7.9-2.14,7.9-6.55s-2.68-6-7.9-6h-4.91V2086Z" transform="translate(0 -1266.28)"/><path class="cls-4" d="M743,2068.39h23v5.38H749.43V2084h14.12v5.38H749.43v15H743Z" transform="translate(0 -1266.28)"/><path class="cls-4" d="M773.32,2094.06v-16.72h6.36v15.9c0,4.3,1.36,6.31,5.05,6.31,2.53,0,4.36-1.06,6.77-4v-18.23h6.36v27h-5.23l-.48-4.29h-.22c-2.56,3-5.55,4.95-9.57,4.95C776.09,2105,773.32,2101,773.32,2094.06Z" transform="translate(0 -1266.28)"/><path class="cls-4" d="M807,2077.34h5.19l.49,4.06h.22c2.58-2.61,5.62-4.72,9.74-4.72,6.24,0,9.05,4,9.05,10.94v16.72h-6.36v-15.9c0-4.33-1.39-6.31-5-6.31-2.67,0-4.47,1.29-6.94,3.79v18.42H807Z" transform="translate(0 -1266.28)"/><path class="cls-4" d="M838.44,2090.88c0-8.81,5.76-14.2,11.88-14.2a10.19,10.19,0,0,1,7.44,3.16h.15l-.3-4.55v-9.78H864v38.83h-5.19l-.49-3.15h-.18A12.11,12.11,0,0,1,850,2105C843,2105,838.44,2099.78,838.44,2090.88Zm19.17,5.63v-12.14a8.1,8.1,0,0,0-5.75-2.43c-3.77,0-6.91,3.22-6.91,8.86,0,5.85,2.47,8.94,6.56,8.94C853.74,2099.74,855.73,2098.75,857.61,2096.51Z" transform="translate(0 -1266.28)"/><path class="cls-4" d="M872.38,2097.09c0-6.05,5.33-9.07,18.67-10-.23-3-2-5.29-6.43-5.29-3,0-6,1.32-8.83,2.86l-2.35-4.21a24.78,24.78,0,0,1,12.35-3.76c7.5,0,11.62,4.16,11.62,11.68v16h-5.23l-.49-3.34h-.18c-2.83,2.19-6.46,4-10.08,4C876.16,2105,872.38,2101.78,872.38,2097.09Zm18.67-.35v-5.68c-9.71.64-12.5,2.63-12.5,5.54,0,2.38,2.1,3.41,4.78,3.41S888.55,2098.74,891.05,2096.74Z" transform="translate(0 -1266.28)"/><path class="cls-4" d="M904.05,2077.34h4.88l.49,3.43h.15c1.19-2.33,2.88-4.09,6-4.09,2.5,0,4.19,1.54,4.9,4.53,1.25-2.65,3-4.53,6.15-4.53,3.82,0,6,3.13,6,8.53v19.13h-6.13v-18.68c0-2.37-.64-3.57-2.15-3.57s-2.3,1.12-3.38,3.38v18.87h-5.27v-18.68c0-2.37-.63-3.57-2.15-3.57s-2.37,1.12-3.39,3.38v18.87h-6.12Z" transform="translate(0 -1266.28)"/><path class="cls-4" d="M937.88,2090.81a13.68,13.68,0,0,1,13.92-14.13c8.07,0,12.53,5.34,12.53,12.82a21.11,21.11,0,0,1-.28,3.19H942.42v-4.49H960l-1.22,1.41c0-5.34-2.51-8.05-6.74-8.05-4.46,0-7.9,3.22-7.9,9.25,0,6.28,3.78,9.27,9.4,9.27a14.78,14.78,0,0,0,7.57-2.2l2.17,3.94a19.62,19.62,0,0,1-10.58,3.18C944.38,2105,937.88,2099.79,937.88,2090.81Z" transform="translate(0 -1266.28)"/><path class="cls-4" d="M972,2077.34h5.2l.48,4.06h.22c2.58-2.61,5.62-4.72,9.74-4.72,6.25,0,9.06,4,9.06,10.94v16.72h-6.36v-15.9c0-4.33-1.4-6.31-5-6.31-2.66,0-4.46,1.29-6.94,3.79v18.42H972Z" transform="translate(0 -1266.28)"/><path class="cls-4" d="M1011,2093.49v-11.12h-7.23v-4.74l7.49-.29.83-8.46h5.27v8.46h12.28v5h-12.28v11.09c0,4.46,1.67,6.47,6.23,6.47a16.65,16.65,0,0,0,5.88-1.09l1.23,4.63A26.31,26.31,0,0,1,1022,2105C1013.76,2105,1011,2100.37,1011,2093.49Z" transform="translate(0 -1266.28)"/><path class="cls-4" d="M1037.38,2097.09c0-6.05,5.33-9.07,18.66-10-.22-3-2-5.29-6.42-5.29-3,0-6,1.32-8.83,2.86l-2.36-4.21a24.85,24.85,0,0,1,12.36-3.76c7.5,0,11.62,4.16,11.62,11.68v16h-5.23l-.49-3.34h-.18c-2.84,2.19-6.47,4-10.08,4C1041.16,2105,1037.38,2101.78,1037.38,2097.09Zm18.66-.35v-5.68c-9.7.64-12.5,2.63-12.5,5.54,0,2.38,2.11,3.41,4.78,3.41S1053.55,2098.74,1056,2096.74Z" transform="translate(0 -1266.28)"/><path class="cls-4" d="M1078.9,2094.51v-24h-9v-5h15.37v29.33c0,3.61,2.13,5,4.86,5a12,12,0,0,0,4.62-1.05l1.48,4.7a19.22,19.22,0,0,1-7.66,1.53C1082.26,2105,1078.9,2101.14,1078.9,2094.51Z" transform="translate(0 -1266.28)"/><path class="cls-4" d="M1102.9,2100.83l2.78-4.06a19.9,19.9,0,0,0,11.3,3.43c3.74,0,5.5-1.43,5.5-3.22s-1.19-2.76-7.48-4.06c-7.21-1.51-10.41-4.06-10.41-8.17,0-4.69,4.28-8.07,11.84-8.07a21.07,21.07,0,0,1,11.3,3.57l-2.93,3.9a16.65,16.65,0,0,0-8.94-2.7c-3.5,0-4.95,1.35-4.95,3,0,1.9,2,2.57,7,3.67,8.63,1.9,10.87,4.2,10.87,8.49,0,4.64-4.47,8.39-12.68,8.39A24.48,24.48,0,0,1,1102.9,2100.83Z" transform="translate(0 -1266.28)"/><path class="cls-4" d="M1168.72,2099.75l3.72-4.4a15.21,15.21,0,0,0,10,4.09c4.19,0,6.4-1.84,6.4-4.35,0-3.2-2.46-4.06-6-5.54l-4.94-2.15c-3.78-1.47-7.67-4.26-7.67-9.54,0-5.72,5.15-10.13,12.49-10.13a16.57,16.57,0,0,1,11.51,4.58l-3.27,4.06a12.74,12.74,0,0,0-8.55-3.08c-3.41,0-5.71,1.54-5.71,4.2s2.87,3.82,6.13,5.07l4.71,2.05c4.58,1.76,7.82,4.49,7.82,9.69,0,5.84-4.92,10.7-13.33,10.7A19.5,19.5,0,0,1,1168.72,2099.75Z" transform="translate(0 -1266.28)"/><path class="cls-4" d="M1201.44,2090.88c0-9,6.44-14.2,13.56-14.2s13.56,5.17,13.56,14.2S1222.12,2105,1215,2105,1201.44,2099.83,1201.44,2090.88Zm20.61,0c0-5.44-2.64-9-7-9s-7,3.58-7,9,2.64,8.94,7,8.94S1222.05,2096.27,1222.05,2090.88Z" transform="translate(0 -1266.28)"/><path class="cls-4" d="M1243.9,2094.51v-24h-9v-5h15.38v29.33c0,3.61,2.13,5,4.86,5a12,12,0,0,0,4.62-1.05l1.47,4.7a19.13,19.13,0,0,1-7.65,1.53C1247.26,2105,1243.9,2101.14,1243.9,2094.51Z" transform="translate(0 -1266.28)"/><path class="cls-4" d="M1267.44,2090.88c0-9,6.44-14.2,13.56-14.2s13.56,5.17,13.56,14.2S1288.12,2105,1281,2105,1267.44,2099.83,1267.44,2090.88Zm20.61,0c0-5.44-2.64-9-7-9s-7,3.58-7,9,2.64,8.94,7,8.94S1288.05,2096.27,1288.05,2090.88Z" transform="translate(0 -1266.28)"/><path class="cls-4" d="M1304.1,2068.39h6.36V2099h16.87v5.37H1304.1Z" transform="translate(0 -1266.28)"/><path class="cls-4" d="M1333.88,2090.81a13.68,13.68,0,0,1,13.92-14.13c8.06,0,12.53,5.34,12.53,12.82a21.11,21.11,0,0,1-.28,3.19h-21.63v-4.49h17.52l-1.22,1.41c0-5.34-2.5-8.05-6.73-8.05-4.47,0-7.91,3.22-7.91,9.25,0,6.28,3.78,9.27,9.4,9.27a14.75,14.75,0,0,0,7.57-2.2l2.18,3.94a19.64,19.64,0,0,1-10.58,3.18C1340.38,2105,1333.88,2099.79,1333.88,2090.81Z" transform="translate(0 -1266.28)"/><path class="cls-4" d="M1367.37,2097.09c0-6.05,5.33-9.07,18.67-10-.23-3-2-5.29-6.43-5.29-3,0-6,1.32-8.82,2.86l-2.36-4.21a24.79,24.79,0,0,1,12.36-3.76c7.49,0,11.61,4.16,11.61,11.68v16h-5.23l-.48-3.34h-.19c-2.83,2.19-6.46,4-10.08,4C1371.16,2105,1367.37,2101.78,1367.37,2097.09Zm18.67-.35v-5.68c-9.7.64-12.5,2.63-12.5,5.54,0,2.38,2.1,3.41,4.78,3.41S1383.54,2098.74,1386,2096.74Z" transform="translate(0 -1266.28)"/><path class="cls-4" d="M1403.65,2077.34h5.24l.54,6.14h.15c2.75-4.41,6.85-6.8,11.49-6.8a11.19,11.19,0,0,1,5.26,1.1l-1.34,5.37a13.87,13.87,0,0,0-4.89-.84c-3.69,0-7.33,1.9-10.09,7.14v14.89h-6.36Z" transform="translate(0 -1266.28)"/><path class="cls-4" d="M1434,2077.34h5.19l.49,4.06h.22c2.58-2.61,5.62-4.72,9.74-4.72,6.24,0,9,4,9,10.94v16.72h-6.36v-15.9c0-4.33-1.39-6.31-5-6.31-2.67,0-4.47,1.29-6.94,3.79v18.42H1434Z" transform="translate(0 -1266.28)"/><path class="cls-4" d="M1499.09,2100.66c10.93-9.43,17.54-15.47,17.54-20.9,0-3.69-2.26-6-6.66-6-3,0-5.6,1.79-7.71,3.86l-3.51-3.49c3.41-3.44,6.9-5.44,12-5.44,7.2,0,11.9,4.27,11.9,10.74,0,6.24-6.31,12.64-14.44,19.88,2.1-.18,4.5-.33,6.45-.33h9.86v5.37h-25.48Z" transform="translate(0 -1266.28)"/><path class="cls-4" d="M1532,2086.71c0-11.83,5.06-18,13-18s13,6.2,13,18S1553,2105,1545,2105,1532,2098.47,1532,2086.71Zm20.28,0c0-9.56-3.1-13-7.26-13s-7.27,3.47-7.27,13,3.1,13.3,7.27,13.3S1552.26,2096.27,1552.26,2086.71Zm-11-.24a3.78,3.78,0,1,1,3.78,4A3.71,3.71,0,0,1,1541.22,2086.47Z" transform="translate(0 -1266.28)"/><path class="cls-4" d="M1565.09,2100.66c10.93-9.43,17.54-15.47,17.54-20.9,0-3.69-2.26-6-6.66-6-3,0-5.6,1.79-7.71,3.86l-3.51-3.49c3.41-3.44,6.9-5.44,12-5.44,7.2,0,11.9,4.27,11.9,10.74,0,6.24-6.32,12.64-14.44,19.88,2.1-.18,4.5-.33,6.45-.33h9.86v5.37h-25.48Z" transform="translate(0 -1266.28)"/><path class="cls-4" d="M1598,2086.71c0-11.83,5.06-18,13-18s13,6.2,13,18-5.07,18.29-13,18.29S1598,2098.47,1598,2086.71Zm20.28,0c0-9.56-3.1-13-7.27-13s-7.27,3.47-7.27,13,3.11,13.3,7.27,13.3S1618.26,2096.27,1618.26,2086.71Zm-11-.24a3.78,3.78,0,1,1,3.77,4A3.7,3.7,0,0,1,1607.22,2086.47Z" transform="translate(0 -1266.28)"/><path class="cls-16" d="M627.38,2184.84l6.55-4.28a95.51,95.51,0,0,1,8.74,17.49H643c5-16.76,13.46-32.22,23-41.89l6.3,5.52c-9.42,8.82-18.53,22.75-24.14,43l-9.67,1.11A85.1,85.1,0,0,0,627.38,2184.84Z" transform="translate(0 -1266.28)"/><path class="cls-4" d="M706.73,2199.75l3.72-4.4a15.19,15.19,0,0,0,10,4.09c4.18,0,6.4-1.84,6.4-4.35,0-3.2-2.46-4.06-6-5.54L716,2187.4c-3.78-1.47-7.68-4.26-7.68-9.54,0-5.72,5.15-10.13,12.49-10.13a16.53,16.53,0,0,1,11.51,4.58l-3.26,4.06a12.76,12.76,0,0,0-8.55-3.08c-3.42,0-5.72,1.54-5.72,4.2s2.87,3.82,6.13,5.07l4.72,2.05c4.58,1.76,7.81,4.49,7.81,9.69,0,5.84-4.92,10.7-13.32,10.7A19.48,19.48,0,0,1,706.73,2199.75Z" transform="translate(0 -1266.28)"/><path class="cls-4" d="M738.87,2186.2c0-11.82,5.8-18.47,14.14-18.47s14.14,6.65,14.14,18.47c0,12.05-5.8,18.8-14.14,18.8S738.87,2198.25,738.87,2186.2Zm21.7,0c0-8.24-3-12.91-7.56-12.91s-7.56,4.67-7.56,12.91c0,8.93,3,13.54,7.56,13.54S760.57,2195.13,760.57,2186.2Zm-10.75,18.06,6.58-.61c1,3.43,4.06,4.83,7.49,4.83a7.26,7.26,0,0,0,2.8-.59l1.13,4.87a10.87,10.87,0,0,1-4.68,1C756.27,2213.73,751.78,2209.72,749.82,2204.26Z" transform="translate(0 -1266.28)"/><path class="cls-4" d="M776.11,2168.39h6.36V2199h16.87v5.37H776.11Z" transform="translate(0 -1266.28)"/><path class="cls-4" d="M840.59,2177.63l7.61-.29h16.39v5h-24Zm7.42-1.76c0-6.37,3.53-11,11.5-11a22.75,22.75,0,0,1,8,1.5l-1.3,4.7a15.14,15.14,0,0,0-6-1.16c-4.12,0-5.91,2.09-5.91,5.87v28.58H848Z" transform="translate(0 -1266.28)"/><path class="cls-4" d="M872.32,2194.06v-16.72h6.36v15.9c0,4.3,1.35,6.31,5.05,6.31,2.53,0,4.36-1.06,6.77-4v-18.23h6.36v27h-5.23l-.49-4.29h-.22c-2.55,3-5.54,4.95-9.57,4.95C875.09,2205,872.32,2201,872.32,2194.06Z" transform="translate(0 -1266.28)"/><path class="cls-4" d="M906,2177.34h5.19l.48,4.06h.22c2.59-2.61,5.63-4.72,9.74-4.72,6.25,0,9.06,4,9.06,10.94v16.72h-6.36v-15.9c0-4.33-1.4-6.31-5-6.31-2.67,0-4.47,1.29-6.94,3.79v18.42H906Z" transform="translate(0 -1266.28)"/><path class="cls-4" d="M937.44,2190.88c0-8.81,5.76-14.2,11.88-14.2a10.19,10.19,0,0,1,7.44,3.16h.15l-.3-4.55v-9.78H963v38.83h-5.19l-.49-3.15h-.18A12.11,12.11,0,0,1,949,2205C942,2205,937.44,2199.78,937.44,2190.88Zm19.17,5.63v-12.14a8.1,8.1,0,0,0-5.75-2.43c-3.77,0-6.91,3.22-6.91,8.86,0,5.85,2.47,8.94,6.55,8.94C952.74,2199.74,954.73,2198.75,956.61,2196.51Z" transform="translate(0 -1266.28)"/><path class="cls-4" d="M971.38,2197.09c0-6.05,5.33-9.07,18.66-10-.22-3-2-5.29-6.42-5.29-3,0-6,1.32-8.83,2.86l-2.36-4.21a24.85,24.85,0,0,1,12.36-3.76c7.5,0,11.62,4.16,11.62,11.68v16h-5.23l-.49-3.34h-.18c-2.84,2.19-6.46,4-10.08,4C975.16,2205,971.38,2201.78,971.38,2197.09Zm18.66-.35v-5.68c-9.7.64-12.5,2.63-12.5,5.54,0,2.38,2.11,3.41,4.78,3.41S987.55,2198.74,990,2196.74Z" transform="translate(0 -1266.28)"/><path class="cls-4" d="M1003.05,2177.34h4.88l.49,3.43h.15c1.19-2.33,2.88-4.09,6-4.09,2.5,0,4.19,1.54,4.9,4.53,1.25-2.65,3-4.53,6.15-4.53,3.82,0,6,3.13,6,8.53v19.13h-6.12v-18.68c0-2.37-.64-3.57-2.15-3.57s-2.3,1.12-3.38,3.38v18.87h-5.27v-18.68c0-2.37-.63-3.57-2.15-3.57s-2.37,1.12-3.39,3.38v18.87h-6.12Z" transform="translate(0 -1266.28)"/><path class="cls-4" d="M1036.88,2190.81a13.68,13.68,0,0,1,13.92-14.13c8.06,0,12.53,5.34,12.53,12.82a21.11,21.11,0,0,1-.28,3.19h-21.63v-4.49h17.52l-1.21,1.41c0-5.34-2.51-8.05-6.74-8.05-4.46,0-7.91,3.22-7.91,9.25,0,6.28,3.79,9.27,9.4,9.27a14.79,14.79,0,0,0,7.58-2.2l2.17,3.94a19.62,19.62,0,0,1-10.58,3.18C1043.38,2205,1036.88,2199.79,1036.88,2190.81Z" transform="translate(0 -1266.28)"/><path class="cls-4" d="M1071,2177.34h5.2l.48,4.06h.22c2.58-2.61,5.62-4.72,9.74-4.72,6.25,0,9.06,4,9.06,10.94v16.72h-6.36v-15.9c0-4.33-1.4-6.31-5-6.31-2.66,0-4.46,1.29-6.94,3.79v18.42H1071Z" transform="translate(0 -1266.28)"/><path class="cls-4" d="M1109.94,2193.49v-11.12h-7.22v-4.74l7.49-.29.83-8.46h5.26v8.46h12.28v5H1116.3v11.09c0,4.46,1.68,6.47,6.24,6.47a16.69,16.69,0,0,0,5.88-1.09l1.23,4.63A26.36,26.36,0,0,1,1121,2205C1112.76,2205,1109.94,2200.37,1109.94,2193.49Z" transform="translate(0 -1266.28)"/><path class="cls-4" d="M1136.38,2197.09c0-6.05,5.32-9.07,18.66-10-.22-3-2-5.29-6.42-5.29-3,0-6,1.32-8.83,2.86l-2.36-4.21a24.82,24.82,0,0,1,12.36-3.76c7.49,0,11.61,4.16,11.61,11.68v16h-5.22l-.49-3.34h-.19c-2.83,2.19-6.46,4-10.07,4C1140.16,2205,1136.38,2201.78,1136.38,2197.09Zm18.66-.35v-5.68c-9.7.64-12.5,2.63-12.5,5.54,0,2.38,2.11,3.41,4.78,3.41S1152.55,2198.74,1155,2196.74Z" transform="translate(0 -1266.28)"/><path class="cls-4" d="M1177.9,2194.51v-24h-9v-5h15.38v29.33c0,3.61,2.13,5,4.86,5a12,12,0,0,0,4.62-1.05l1.47,4.7a19.13,19.13,0,0,1-7.65,1.53C1181.26,2205,1177.9,2201.14,1177.9,2194.51Z" transform="translate(0 -1266.28)"/><path class="cls-4" d="M1201.9,2200.83l2.78-4.06a19.9,19.9,0,0,0,11.3,3.43c3.74,0,5.5-1.43,5.5-3.22s-1.19-2.76-7.48-4.06c-7.21-1.51-10.41-4.06-10.41-8.17,0-4.69,4.28-8.07,11.84-8.07a21.07,21.07,0,0,1,11.3,3.57l-2.93,3.9a16.65,16.65,0,0,0-8.94-2.7c-3.5,0-4.95,1.35-4.95,3,0,1.9,2,2.57,7,3.67,8.64,1.9,10.88,4.2,10.88,8.49,0,4.64-4.47,8.39-12.68,8.39A24.48,24.48,0,0,1,1201.9,2200.83Z" transform="translate(0 -1266.28)"/><path class="cls-4" d="M1268.54,2190.88c0-9,7.1-14.2,15.34-14.2a14.15,14.15,0,0,1,10,3.8l-3,4a10.55,10.55,0,0,0-6.67-2.6c-5.41,0-9.14,3.58-9.14,9s3.67,8.94,9,8.94a12.59,12.59,0,0,0,7.7-3l2.66,4.06a16.81,16.81,0,0,1-10.91,4.09C1275,2205,1268.54,2199.83,1268.54,2190.88Z" transform="translate(0 -1266.28)"/><path class="cls-4" d="M1300.44,2190.88c0-9,6.44-14.2,13.56-14.2s13.56,5.17,13.56,14.2S1321.12,2205,1314,2205,1300.44,2199.83,1300.44,2190.88Zm20.61,0c0-5.44-2.64-9-7-9s-7,3.58-7,9,2.64,8.94,7,8.94S1321.05,2196.27,1321.05,2190.88Z" transform="translate(0 -1266.28)"/><path class="cls-4" d="M1334.31,2194.06v-16.72h6.36v15.9c0,4.3,1.36,6.31,5,6.31,2.53,0,4.37-1.06,6.77-4v-18.23h6.36v27h-5.23l-.48-4.29h-.22c-2.56,3-5.55,4.95-9.57,4.95C1337.08,2205,1334.31,2201,1334.31,2194.06Z" transform="translate(0 -1266.28)"/><path class="cls-4" d="M1370.65,2177.34h5.24l.54,6.14h.15c2.75-4.41,6.85-6.8,11.49-6.8a11.19,11.19,0,0,1,5.26,1.1l-1.34,5.37a13.87,13.87,0,0,0-4.89-.84c-3.69,0-7.33,1.9-10.09,7.14v14.89h-6.36Z" transform="translate(0 -1266.28)"/><path class="cls-4" d="M1399.9,2200.83l2.77-4.06a20,20,0,0,0,11.31,3.43c3.74,0,5.49-1.43,5.49-3.22s-1.18-2.76-7.47-4.06c-7.21-1.51-10.41-4.06-10.41-8.17,0-4.69,4.28-8.07,11.83-8.07a21.08,21.08,0,0,1,11.31,3.57l-2.93,3.9a16.65,16.65,0,0,0-8.94-2.7c-3.5,0-4.95,1.35-4.95,3,0,1.9,2,2.57,7,3.67,8.63,1.9,10.88,4.2,10.88,8.49,0,4.64-4.48,8.39-12.69,8.39A24.45,24.45,0,0,1,1399.9,2200.83Z" transform="translate(0 -1266.28)"/><path class="cls-4" d="M1432.87,2190.81a13.69,13.69,0,0,1,13.92-14.13c8.07,0,12.54,5.34,12.54,12.82a21.11,21.11,0,0,1-.28,3.19h-21.64v-4.49h17.53l-1.22,1.41c0-5.34-2.51-8.05-6.73-8.05-4.47,0-7.91,3.22-7.91,9.25,0,6.28,3.78,9.27,9.4,9.27a14.78,14.78,0,0,0,7.57-2.2l2.18,3.94a19.67,19.67,0,0,1-10.58,3.18C1439.37,2205,1432.87,2199.79,1432.87,2190.81Z" transform="translate(0 -1266.28)"/><path class="cls-4" d="M1498.72,2199.75l3.72-4.4a15.19,15.19,0,0,0,10,4.09c4.18,0,6.4-1.84,6.4-4.35,0-3.2-2.47-4.06-6-5.54l-5-2.15c-3.77-1.47-7.67-4.26-7.67-9.54,0-5.72,5.15-10.13,12.49-10.13a16.53,16.53,0,0,1,11.51,4.58l-3.27,4.06a12.72,12.72,0,0,0-8.55-3.08c-3.41,0-5.71,1.54-5.71,4.2s2.87,3.82,6.13,5.07l4.72,2.05c4.57,1.76,7.81,4.49,7.81,9.69,0,5.84-4.92,10.7-13.32,10.7A19.46,19.46,0,0,1,1498.72,2199.75Z" transform="translate(0 -1266.28)"/><path class="cls-4" d="M1531.43,2190.88c0-9,6.45-14.2,13.57-14.2s13.56,5.17,13.56,14.2S1552.11,2205,1545,2205,1531.43,2199.83,1531.43,2190.88Zm20.61,0c0-5.44-2.64-9-7-9s-7.06,3.58-7.06,9,2.65,8.94,7.06,8.94S1552,2196.27,1552,2190.88Z" transform="translate(0 -1266.28)"/><path class="cls-4" d="M1573.89,2194.51v-24h-9v-5h15.37v29.33c0,3.61,2.13,5,4.86,5a12,12,0,0,0,4.62-1.05l1.48,4.7a19.22,19.22,0,0,1-7.66,1.53C1577.25,2205,1573.89,2201.14,1573.89,2194.51Z" transform="translate(0 -1266.28)"/><path class="cls-4" d="M1597.43,2190.88c0-9,6.44-14.2,13.56-14.2s13.57,5.17,13.57,14.2S1618.11,2205,1611,2205,1597.43,2199.83,1597.43,2190.88Zm20.61,0c0-5.44-2.64-9-7-9s-7,3.58-7,9,2.65,8.94,7,8.94S1618,2196.27,1618,2190.88Z" transform="translate(0 -1266.28)"/><path class="cls-4" d="M1634.1,2168.39h6.36V2199h16.87v5.37H1634.1Z" transform="translate(0 -1266.28)"/><path class="cls-4" d="M1663.87,2190.81a13.68,13.68,0,0,1,13.92-14.13c8.06,0,12.53,5.34,12.53,12.82a21.11,21.11,0,0,1-.28,3.19h-21.63v-4.49h17.53l-1.22,1.41c0-5.34-2.51-8.05-6.74-8.05-4.46,0-7.9,3.22-7.9,9.25,0,6.28,3.78,9.27,9.4,9.27a14.78,14.78,0,0,0,7.57-2.2l2.17,3.94a19.62,19.62,0,0,1-10.58,3.18C1670.37,2205,1663.87,2199.79,1663.87,2190.81Z" transform="translate(0 -1266.28)"/><path class="cls-4" d="M1697.37,2197.09c0-6.05,5.33-9.07,18.66-10-.22-3-2-5.29-6.42-5.29-3,0-6,1.32-8.83,2.86l-2.36-4.21a24.85,24.85,0,0,1,12.36-3.76c7.5,0,11.62,4.16,11.62,11.68v16h-5.23l-.49-3.34h-.18c-2.84,2.19-6.46,4-10.08,4C1701.15,2205,1697.37,2201.78,1697.37,2197.09Zm18.66-.35v-5.68c-9.7.64-12.5,2.63-12.5,5.54,0,2.38,2.11,3.41,4.78,3.41S1713.54,2198.74,1716,2196.74Z" transform="translate(0 -1266.28)"/><path class="cls-4" d="M1733.64,2177.34h5.25l.54,6.14h.15c2.74-4.41,6.84-6.8,11.49-6.8a11.19,11.19,0,0,1,5.26,1.1l-1.35,5.37a13.87,13.87,0,0,0-4.89-.84c-3.69,0-7.32,1.9-10.09,7.14v14.89h-6.36Z" transform="translate(0 -1266.28)"/><path class="cls-4" d="M1764,2177.34h5.19l.49,4.06h.22c2.58-2.61,5.62-4.72,9.74-4.72,6.25,0,9.06,4,9.06,10.94v16.72h-6.36v-15.9c0-4.33-1.4-6.31-5-6.31-2.66,0-4.46,1.29-6.94,3.79v18.42H1764Z" transform="translate(0 -1266.28)"/><path class="cls-4" d="M1829.08,2200.66c10.93-9.43,17.54-15.47,17.54-20.9,0-3.69-2.26-6-6.66-6-3,0-5.59,1.79-7.71,3.86l-3.5-3.49c3.41-3.44,6.89-5.44,12-5.44,7.21,0,11.91,4.27,11.91,10.74,0,6.24-6.32,12.64-14.44,19.88,2.1-.18,4.49-.33,6.44-.33h9.86v5.37h-25.48Z" transform="translate(0 -1266.28)"/><path class="cls-4" d="M1862,2186.71c0-11.83,5.07-18,13-18s13,6.2,13,18-5.07,18.29-13,18.29S1862,2198.47,1862,2186.71Zm20.29,0c0-9.56-3.1-13-7.27-13s-7.27,3.47-7.27,13,3.1,13.3,7.27,13.3S1882.26,2196.27,1882.26,2186.71Zm-11-.24a3.77,3.77,0,1,1,3.77,4A3.7,3.7,0,0,1,1871.22,2186.47Z" transform="translate(0 -1266.28)"/><path class="cls-4" d="M1895.08,2200.66c10.93-9.43,17.54-15.47,17.54-20.9,0-3.69-2.26-6-6.66-6-3,0-5.59,1.79-7.71,3.86l-3.5-3.49c3.41-3.44,6.89-5.44,12-5.44,7.2,0,11.91,4.27,11.91,10.74,0,6.24-6.32,12.64-14.44,19.88,2.1-.18,4.49-.33,6.44-.33h9.86v5.37h-25.48Z" transform="translate(0 -1266.28)"/><path class="cls-4" d="M1928,2186.71c0-11.83,5.07-18,13-18s13,6.2,13,18-5.07,18.29-13,18.29S1928,2198.47,1928,2186.71Zm20.29,0c0-9.56-3.1-13-7.27-13s-7.27,3.47-7.27,13,3.1,13.3,7.27,13.3S1948.26,2196.27,1948.26,2186.71Zm-11-.24a3.77,3.77,0,1,1,3.77,4A3.7,3.7,0,0,1,1937.22,2186.47Z" transform="translate(0 -1266.28)"/><path class="cls-16" d="M726.38,2284.84l6.55-4.28a94.81,94.81,0,0,1,8.73,17.49h.28c5-16.76,13.47-32.22,23-41.89l6.3,5.52c-9.42,8.82-18.53,22.75-24.14,43l-9.67,1.11A85.1,85.1,0,0,0,726.38,2284.84Z" transform="translate(0 -1266.28)"/><path class="cls-4" d="M807.25,2268.39H818.4c7.41,0,12.76,2.25,12.76,8.84a7.85,7.85,0,0,1-6.22,7.8v.22c5.19.89,8.07,3.67,8.07,8.54,0,7.19-5.74,10.55-13.68,10.55H807.25Zm10.58,14.78c5,0,7.08-1.82,7.08-5.17s-2.29-4.51-6.94-4.51h-4.36v9.68Zm.84,16.07c5.27,0,8.1-1.81,8.1-5.88,0-3.78-2.73-5.34-8.1-5.34h-5.06v11.22Z" transform="translate(0 -1266.28)"/><path class="cls-4" d="M851.8,2282.37H840.13v-5h18v27H851.8Zm-1.75-14.2a4.52,4.52,0,0,1,9,0,4.52,4.52,0,0,1-9,0Z" transform="translate(0 -1266.28)"/><path class="cls-4" d="M871.9,2309.1c0-2.19,1.5-4.17,4.32-5.7v-.22a5,5,0,0,1-2.75-4.52,6.62,6.62,0,0,1,3.23-5.06v-.22a8.4,8.4,0,0,1-3.46-7c0-6.2,5.18-9.73,11.11-9.73a12.55,12.55,0,0,1,4.22.66h11.07v4.83h-6.2a7.06,7.06,0,0,1,1.71,4.46c0,6-4.74,9.16-10.8,9.16a12.38,12.38,0,0,1-4.13-.76,2.92,2.92,0,0,0-1.64,2.53c0,1.77,1.73,2.56,5.09,2.56h5.51c7,0,10.63,1.88,10.63,6.59,0,5.35-6,9.59-15.57,9.59C876.79,2316.3,871.9,2313.91,871.9,2309.1Zm21.81-1.33c0-2.13-1.86-2.66-5.44-2.66H884a15.88,15.88,0,0,1-4.11-.4c-1.94,1.11-2.66,2.29-2.66,3.54,0,2.42,2.84,3.82,7.81,3.82C890.28,2312.07,893.71,2310.07,893.71,2307.77Zm-4.23-21.36a5.13,5.13,0,1,0-5.13,5.41A5,5,0,0,0,889.48,2286.41Z" transform="translate(0 -1266.28)"/><path class="cls-4" d="M938.83,2268.39h9.41c10.61,0,17,5.93,17,17.81s-6.37,18.14-16.64,18.14h-9.75Zm9,30.77c6.86,0,10.79-4.11,10.79-13s-3.93-12.62-10.79-12.62h-2.63v25.58Z" transform="translate(0 -1266.28)"/><path class="cls-4" d="M971.38,2297.09c0-6.05,5.33-9.07,18.66-10-.22-3-2-5.29-6.42-5.29-3,0-6,1.32-8.83,2.86l-2.36-4.21a24.85,24.85,0,0,1,12.36-3.76c7.5,0,11.62,4.16,11.62,11.68v16h-5.23l-.49-3.34h-.18c-2.84,2.19-6.46,4-10.08,4C975.16,2305,971.38,2301.78,971.38,2297.09Zm18.66-.35v-5.68c-9.7.64-12.5,2.63-12.5,5.54,0,2.38,2.11,3.41,4.78,3.41S987.55,2298.74,990,2296.74Z" transform="translate(0 -1266.28)"/><path class="cls-4" d="M1011,2293.49v-11.12h-7.23v-4.74l7.49-.29.83-8.46h5.27v8.46h12.28v5h-12.28v11.09c0,4.46,1.67,6.47,6.23,6.47a16.65,16.65,0,0,0,5.88-1.09l1.23,4.63A26.31,26.31,0,0,1,1022,2305C1013.76,2305,1011,2300.37,1011,2293.49Z" transform="translate(0 -1266.28)"/><path class="cls-4" d="M1037.38,2297.09c0-6.05,5.33-9.07,18.66-10-.22-3-2-5.29-6.42-5.29-3,0-6,1.32-8.83,2.86l-2.36-4.21a24.85,24.85,0,0,1,12.36-3.76c7.5,0,11.62,4.16,11.62,11.68v16h-5.23l-.49-3.34h-.18c-2.84,2.19-6.47,4-10.08,4C1041.16,2305,1037.38,2301.78,1037.38,2297.09Zm18.66-.35v-5.68c-9.7.64-12.5,2.63-12.5,5.54,0,2.38,2.11,3.41,4.78,3.41S1053.55,2298.74,1056,2296.74Z" transform="translate(0 -1266.28)"/><path class="cls-4" d="M1105.17,2268.39h23v5.38h-16.66V2283h14.11v5.38h-14.11V2299h17.21v5.37h-23.6Z" transform="translate(0 -1266.28)"/><path class="cls-4" d="M1137,2277.34h5.19l.49,4.06h.22c2.58-2.61,5.62-4.72,9.74-4.72,6.25,0,9.06,4,9.06,10.94v16.72h-6.36v-15.9c0-4.33-1.4-6.31-5-6.31-2.66,0-4.46,1.29-6.94,3.79v18.42H1137Z" transform="translate(0 -1266.28)"/><path class="cls-4" d="M1168.9,2309.1c0-2.19,1.5-4.17,4.31-5.7v-.22a5,5,0,0,1-2.75-4.52,6.61,6.61,0,0,1,3.24-5.06v-.22a8.41,8.41,0,0,1-3.47-7c0-6.2,5.19-9.73,11.11-9.73a12.61,12.61,0,0,1,4.23.66h11.07v4.83h-6.2a7.11,7.11,0,0,1,1.71,4.46c0,6-4.75,9.16-10.81,9.16a12.33,12.33,0,0,1-4.12-.76,2.93,2.93,0,0,0-1.65,2.53c0,1.77,1.73,2.56,5.09,2.56h5.51c7,0,10.64,1.88,10.64,6.59,0,5.35-6.06,9.59-15.58,9.59C1173.79,2316.3,1168.9,2313.91,1168.9,2309.1Zm21.8-1.33c0-2.13-1.85-2.66-5.44-2.66H1181a15.78,15.78,0,0,1-4.11-.4c-1.95,1.11-2.67,2.29-2.67,3.54,0,2.42,2.85,3.82,7.82,3.82C1187.27,2312.07,1190.7,2310.07,1190.7,2307.77Zm-4.23-21.36a5.13,5.13,0,1,0-5.13,5.41A5,5,0,0,0,1186.47,2286.41Z" transform="translate(0 -1266.28)"/><path class="cls-4" d="M1214.79,2282.37h-11.66v-5h18v27h-6.37Zm-1.75-14.2a4.53,4.53,0,0,1,9,0,4.53,4.53,0,0,1-9,0Z" transform="translate(0 -1266.28)"/><path class="cls-4" d="M1236,2277.34h5.19l.49,4.06h.22c2.58-2.61,5.62-4.72,9.74-4.72,6.24,0,9.06,4,9.06,10.94v16.72h-6.36v-15.9c0-4.33-1.4-6.31-5-6.31-2.66,0-4.46,1.29-6.94,3.79v18.42H1236Z" transform="translate(0 -1266.28)"/><path class="cls-4" d="M1267.88,2290.81a13.68,13.68,0,0,1,13.92-14.13c8.06,0,12.53,5.34,12.53,12.82a21.11,21.11,0,0,1-.28,3.19h-21.63v-4.49h17.52l-1.21,1.41c0-5.34-2.51-8.05-6.74-8.05-4.47,0-7.91,3.22-7.91,9.25,0,6.28,3.79,9.27,9.4,9.27a14.75,14.75,0,0,0,7.57-2.2l2.18,3.94a19.62,19.62,0,0,1-10.58,3.18C1274.38,2305,1267.88,2299.79,1267.88,2290.81Z" transform="translate(0 -1266.28)"/><path class="cls-4" d="M1300.88,2290.81a13.68,13.68,0,0,1,13.92-14.13c8.06,0,12.53,5.34,12.53,12.82a21.11,21.11,0,0,1-.28,3.19h-21.63v-4.49h17.52l-1.22,1.41c0-5.34-2.5-8.05-6.73-8.05-4.47,0-7.91,3.22-7.91,9.25,0,6.28,3.78,9.27,9.4,9.27a14.75,14.75,0,0,0,7.57-2.2l2.18,3.94a19.64,19.64,0,0,1-10.58,3.18C1307.38,2305,1300.88,2299.79,1300.88,2290.81Z" transform="translate(0 -1266.28)"/><path class="cls-4" d="M1337.65,2277.34h5.24l.54,6.14h.15c2.75-4.41,6.85-6.8,11.5-6.8a11.15,11.15,0,0,1,5.25,1.1l-1.34,5.37a13.87,13.87,0,0,0-4.89-.84c-3.69,0-7.33,1.9-10.09,7.14v14.89h-6.36Z" transform="translate(0 -1266.28)"/><path class="cls-4" d="M1400.75,2283.91h24.49v4.58h-24.49Z" transform="translate(0 -1266.28)"/><path class="cls-4" d="M1466.05,2268.39h7.09l4.27,14,1.48,5.38h.22l1.44-5.38,4.31-14h7.08v36h-5.65v-14.5c0-3.78.63-11.25.93-14.74h-.17l-2.39,8.35-4,11.37h-3.63l-3.92-11.37-2.34-8.35h-.15c.37,3.49.93,11,.93,14.74v14.5h-5.54Z" transform="translate(0 -1266.28)"/><path class="cls-4" d="M1499.37,2297.09c0-6.05,5.33-9.07,18.67-10-.23-3-2-5.29-6.43-5.29-3,0-6,1.32-8.82,2.86l-2.36-4.21a24.78,24.78,0,0,1,12.35-3.76c7.5,0,11.62,4.16,11.62,11.68v16h-5.23l-.49-3.34h-.18c-2.83,2.19-6.46,4-10.08,4C1503.15,2305,1499.37,2301.78,1499.37,2297.09Zm18.67-.35v-5.68c-9.71.64-12.5,2.63-12.5,5.54,0,2.38,2.1,3.41,4.78,3.41S1515.54,2298.74,1518,2296.74Z" transform="translate(0 -1266.28)"/><path class="cls-4" d="M1531.9,2300.83l2.77-4.06a19.9,19.9,0,0,0,11.3,3.43c3.75,0,5.5-1.43,5.5-3.22s-1.18-2.76-7.47-4.06c-7.21-1.51-10.41-4.06-10.41-8.17,0-4.69,4.28-8.07,11.83-8.07a21.08,21.08,0,0,1,11.31,3.57l-2.93,3.9a16.7,16.7,0,0,0-8.94-2.7c-3.5,0-4.95,1.35-4.95,3,0,1.9,2,2.57,7,3.67,8.63,1.9,10.88,4.2,10.88,8.49,0,4.64-4.48,8.39-12.69,8.39A24.45,24.45,0,0,1,1531.9,2300.83Z" transform="translate(0 -1266.28)"/><path class="cls-4" d="M1571.94,2293.49v-11.12h-7.23v-4.74l7.49-.29.83-8.46h5.27v8.46h12.28v5H1578.3v11.09c0,4.46,1.67,6.47,6.24,6.47a16.63,16.63,0,0,0,5.87-1.09l1.23,4.63A26.31,26.31,0,0,1,1583,2305C1574.75,2305,1571.94,2300.37,1571.94,2293.49Z" transform="translate(0 -1266.28)"/><path class="cls-4" d="M1597.87,2290.81a13.68,13.68,0,0,1,13.92-14.13c8.07,0,12.53,5.34,12.53,12.82a21.11,21.11,0,0,1-.28,3.19h-21.63v-4.49h17.53l-1.22,1.41c0-5.34-2.51-8.05-6.74-8.05-4.46,0-7.9,3.22-7.9,9.25,0,6.28,3.78,9.27,9.4,9.27a14.78,14.78,0,0,0,7.57-2.2l2.17,3.94a19.62,19.62,0,0,1-10.58,3.18C1604.37,2305,1597.87,2299.79,1597.87,2290.81Z" transform="translate(0 -1266.28)"/><path class="cls-4" d="M1634.64,2277.34h5.25l.54,6.14h.15c2.74-4.41,6.84-6.8,11.49-6.8a11.19,11.19,0,0,1,5.26,1.1l-1.35,5.37a13.87,13.87,0,0,0-4.89-.84c-3.69,0-7.32,1.9-10.09,7.14v14.89h-6.36Z" transform="translate(0 -1266.28)"/><path class="cls-4" d="M1664.18,2314.86l1.2-4.92a7.85,7.85,0,0,0,2.25.37c3.44,0,5.41-1.9,6.51-4.6l.65-1.69-12.1-26.68H1669l5.52,13.2c1,2.46,2,5.25,3,8h.22c.83-2.64,1.82-5.44,2.68-8l4.86-13.2h6.06l-11.28,28.24c-2.33,6.06-5.57,9.83-12.08,9.83A13.3,13.3,0,0,1,1664.18,2314.86Z" transform="translate(0 -1266.28)"/><path class="cls-4" d="M1739.22,2268.39h7.54l11.65,36h-6.81l-5.4-19.11c-1.09-3.8-2.24-7.88-3.21-11.85h-.22c-1,4-2.09,8-3.17,11.85l-5.48,19.11h-6.55Zm-4.73,21.19h16.86v5.05h-16.86Z" transform="translate(0 -1266.28)"/><path class="cls-4" d="M1759.81,2277.34H1766l2.42,14c.41,2.61.72,5.08,1,7.73h.2a69.76,69.76,0,0,1,1.4-7.73l2.49-11.39h5.19l2.47,11.39c.56,2.61,1.16,5.08,1.51,7.73h.22c.4-2.65.59-5.12,1-7.73l2.34-14h5.88l-5,27h-7.69l-2.27-10.78c-.4-2.11-.78-4.73-1.16-8h-.22c-.34,2.85-.68,5.35-1.12,8l-2.2,10.78H1765Z" transform="translate(0 -1266.28)"/><path class="cls-4" d="M1796.37,2297.09c0-6.05,5.32-9.07,18.66-10-.22-3-2-5.29-6.42-5.29-3,0-6,1.32-8.83,2.86l-2.36-4.21a24.82,24.82,0,0,1,12.36-3.76c7.49,0,11.61,4.16,11.61,11.68v16h-5.22l-.49-3.34h-.18c-2.84,2.19-6.47,4-10.08,4C1800.15,2305,1796.37,2301.78,1796.37,2297.09Zm18.66-.35v-5.68c-9.7.64-12.5,2.63-12.5,5.54,0,2.38,2.11,3.41,4.78,3.41S1812.54,2298.74,1815,2296.74Z" transform="translate(0 -1266.28)"/><path class="cls-4" d="M1832.64,2277.34h5.25l.54,6.14h.15c2.74-4.41,6.84-6.8,11.49-6.8a11.19,11.19,0,0,1,5.26,1.1l-1.35,5.37a13.87,13.87,0,0,0-4.89-.84c-3.69,0-7.33,1.9-10.09,7.14v14.89h-6.36Z" transform="translate(0 -1266.28)"/><path class="cls-4" d="M1861.43,2290.88c0-8.81,5.75-14.2,11.87-14.2a10.22,10.22,0,0,1,7.45,3.16h.15l-.3-4.55v-9.78H1887v38.83h-5.19l-.49-3.15h-.19A12.07,12.07,0,0,1,1873,2305C1866,2305,1861.43,2299.78,1861.43,2290.88Zm19.17,5.63v-12.14a8.14,8.14,0,0,0-5.76-2.43c-3.77,0-6.9,3.22-6.9,8.86,0,5.85,2.46,8.94,6.55,8.94C1876.73,2299.74,1878.72,2298.75,1880.6,2296.51Z" transform="translate(0 -1266.28)"/><path class="cls-4" d="M1928.08,2300.66c10.93-9.43,17.54-15.47,17.54-20.9,0-3.69-2.26-6-6.66-6-3,0-5.59,1.79-7.71,3.86l-3.5-3.49c3.41-3.44,6.89-5.44,12-5.44,7.2,0,11.91,4.27,11.91,10.74,0,6.24-6.32,12.64-14.44,19.88,2.1-.18,4.49-.33,6.44-.33h9.86v5.37h-25.48Z" transform="translate(0 -1266.28)"/><path class="cls-4" d="M1961,2286.71c0-11.83,5.07-18,13-18s13,6.2,13,18-5.06,18.29-13,18.29S1961,2298.47,1961,2286.71Zm20.29,0c0-9.56-3.1-13-7.27-13s-7.27,3.47-7.27,13,3.1,13.3,7.27,13.3S1981.26,2296.27,1981.26,2286.71Zm-11-.24a3.78,3.78,0,1,1,3.78,4A3.71,3.71,0,0,1,1970.21,2286.47Z" transform="translate(0 -1266.28)"/><path class="cls-4" d="M1994.08,2300.66c10.93-9.43,17.54-15.47,17.54-20.9,0-3.69-2.26-6-6.66-6-3,0-5.59,1.79-7.71,3.86l-3.5-3.49c3.41-3.44,6.89-5.44,12-5.44,7.2,0,11.91,4.27,11.91,10.74,0,6.24-6.32,12.64-14.44,19.88,2.1-.18,4.49-.33,6.44-.33h9.86v5.37h-25.48Z" transform="translate(0 -1266.28)"/><path class="cls-4" d="M2028.32,2299.16h9.75v-22.91h-7.8v-4c4.43-.63,7-1.48,9.46-2.89h4.71v29.82H2053v5.18h-24.64Z" transform="translate(0 -1266.28)"/></g></svg>