<svg xmlns="http://www.w3.org/2000/svg" viewBox="0 0 3000 1112.57"><defs><style>.cls-1{isolation:isolate;}.cls-2{fill:#f7f7f7;}.cls-3{fill:#232323;}.cls-4{fill:#f2cc7f;}.cls-5{fill:#0f2e35;}.cls-6{fill:#c6dbe8;opacity:0.6;}.cls-7{fill:#fff;mix-blend-mode:soft-light;}.cls-8{fill:#154655;}.cls-12,.cls-9{fill:#4eb6a1;}.cls-9{opacity:0.5;mix-blend-mode:multiply;}.cls-10{fill:#f2f2f2;}.cls-11{fill:#feb31d;}.cls-13{fill:#96d2c5;}</style></defs><g class="cls-1"><g id="Calque_1" data-name="Calque 1"><rect class="cls-2" width="3000" height="1112.57"/><path class="cls-3" d="M1162.39,1289.5h9.27l5.6,18.36,1.93,7.05h.29l1.89-7.05,5.64-18.36h9.27v47.07h-7.4v-19c0-4.95.83-14.73,1.22-19.29h-.21l-3.14,10.93-5.19,14.88h-4.74l-5.14-14.88-3.06-10.93h-.19c.48,4.56,1.22,14.34,1.22,19.29v19h-7.26Z" transform="translate(-3.33 -1121.36)"/><path class="cls-3" d="M1205.76,1350.35l1.57-6.44a10.57,10.57,0,0,0,3,.47c4.5,0,7.09-2.49,8.52-6l.85-2.23-15.85-34.93h8.32l7.23,17.29c1.32,3.23,2.64,6.87,3.93,10.44h.28c1.1-3.44,2.38-7.11,3.51-10.44l6.37-17.29h7.93l-14.77,37c-3,7.94-7.29,12.88-15.81,12.88A17.41,17.41,0,0,1,1205.76,1350.35Z" transform="translate(-3.33 -1121.36)"/><path class="cls-3" d="M1291.78,1342.8c0-2.86,2-5.46,5.65-7.46v-.29a6.59,6.59,0,0,1-3.6-5.92c0-2.31,1.62-4.86,4.23-6.63v-.29a11,11,0,0,1-4.53-9.12c0-8.11,6.79-12.74,14.55-12.74a16.28,16.28,0,0,1,5.52.86h14.5v6.33H1320a9.28,9.28,0,0,1,2.24,5.84c0,7.86-6.21,12-14.14,12a16.29,16.29,0,0,1-5.41-1c-1.41.93-2.15,1.9-2.15,3.32,0,2.32,2.27,3.35,6.66,3.35h7.22c9.18,0,13.93,2.46,13.93,8.63,0,7-7.93,12.56-20.4,12.56C1298.18,1352.23,1291.78,1349.1,1291.78,1342.8Zm28.55-1.74c0-2.79-2.43-3.49-7.12-3.49h-5.66a20.79,20.79,0,0,1-5.38-.52c-2.54,1.46-3.48,3-3.48,4.64,0,3.17,3.72,5,10.23,5C1315.84,1346.69,1320.33,1344.07,1320.33,1341.06Zm-5.54-28a6.71,6.71,0,1,0-13.41,0c0,4.45,3,7.09,6.7,7.09S1314.79,1317.54,1314.79,1313.09Z" transform="translate(-3.33 -1121.36)"/><path class="cls-3" d="M1334.38,1318.94c0-11.82,8.43-18.59,17.75-18.59s17.76,6.77,17.76,18.59-8.43,18.5-17.76,18.5S1334.38,1330.66,1334.38,1318.94Zm27,0c0-7.12-3.46-11.8-9.24-11.8s-9.23,4.68-9.23,11.8,3.46,11.71,9.23,11.71S1361.37,1326,1361.37,1318.94Z" transform="translate(-3.33 -1121.36)"/><path class="cls-3" d="M1378.8,1327.08c0-7.93,7-11.88,24.45-13.11-.3-4-2.66-6.93-8.42-6.93-4,0-7.92,1.74-11.56,3.75l-3.09-5.51c4.29-2.57,10.09-4.93,16.19-4.93,9.81,0,15.2,5.45,15.2,15.3v20.92h-6.84l-.64-4.38h-.24c-3.71,2.87-8.46,5.25-13.2,5.25C1383.76,1337.44,1378.8,1333.21,1378.8,1327.08Zm24.45-.47v-7.43c-12.71.83-16.37,3.44-16.37,7.26,0,3.11,2.75,4.46,6.25,4.46S1400,1329.24,1403.25,1326.61Z" transform="translate(-3.33 -1121.36)"/><path class="cls-3" d="M1433.16,1323.7v-31.38h-11.8v-6.59h20.13v38.4c0,4.73,2.79,6.52,6.36,6.52a15.56,15.56,0,0,0,6.05-1.38l1.94,6.16a25.25,25.25,0,0,1-10,2C1437.56,1337.44,1433.16,1332.38,1433.16,1323.7Z" transform="translate(-3.33 -1121.36)"/><path class="cls-3" d="M1464.58,1332l3.64-5.31a26.06,26.06,0,0,0,14.79,4.49c4.9,0,7.2-1.87,7.2-4.21s-1.55-3.62-9.79-5.32c-9.43-2-13.63-5.31-13.63-10.7,0-6.15,5.61-10.57,15.5-10.57a27.7,27.7,0,0,1,14.8,4.67l-3.83,5.11a21.86,21.86,0,0,0-11.71-3.54c-4.58,0-6.48,1.77-6.48,3.93,0,2.5,2.6,3.37,9.22,4.8,11.3,2.5,14.24,5.51,14.24,11.12,0,6.09-5.86,11-16.61,11A32.06,32.06,0,0,1,1464.58,1332Z" transform="translate(-3.33 -1121.36)"/><path class="cls-3" d="M1567.86,1307.8h-15.27v-6.59h23.6v35.36h-8.33Zm-2.29-18.6c0-3.31,2.49-5.61,5.91-5.61s5.92,2.3,5.92,5.61-2.49,5.56-5.92,5.56S1565.57,1292.57,1565.57,1289.2Z" transform="translate(-3.33 -1121.36)"/><path class="cls-3" d="M1595.66,1301.21h6.8l.63,5.32h.29c3.38-3.42,7.36-6.18,12.76-6.18,8.17,0,11.86,5.21,11.86,14.32v21.9h-8.33v-20.82c0-5.67-1.83-8.26-6.59-8.26-3.49,0-5.85,1.69-9.09,5v24.11h-8.33Z" transform="translate(-3.33 -1121.36)"/><path class="cls-3" d="M1680.83,1331.75c14.31-12.35,23-20.26,23-27.36,0-4.83-3-7.87-8.72-7.87-4,0-7.32,2.34-10.09,5l-4.59-4.58c4.47-4.49,9-7.11,15.77-7.11,9.43,0,15.59,5.58,15.59,14.06,0,8.17-8.27,16.55-18.91,26,2.75-.24,5.89-.44,8.44-.44h12.91v7h-33.36Z" transform="translate(-3.33 -1121.36)"/><path class="cls-3" d="M1723.88,1313.49c0-15.49,6.64-23.61,17-23.61s17,8.12,17,23.61-6.63,24-17,24S1723.88,1328.88,1723.88,1313.49Zm26.57,0c0-12.52-4.07-17.07-9.52-17.07s-9.52,4.55-9.52,17.07,4.06,17.41,9.52,17.41S1750.45,1326,1750.45,1313.49Zm-14.46-.32a4.95,4.95,0,1,1,4.94,5.17A4.85,4.85,0,0,1,1736,1313.17Z" transform="translate(-3.33 -1121.36)"/><path class="cls-3" d="M1767.23,1331.75c14.31-12.35,23-20.26,23-27.36,0-4.83-3-7.87-8.72-7.87-4,0-7.32,2.34-10.09,5l-4.59-4.58c4.46-4.49,9-7.11,15.77-7.11,9.43,0,15.59,5.58,15.59,14.06,0,8.17-8.27,16.55-18.91,26,2.75-.24,5.89-.44,8.44-.44h12.91v7h-33.36Z" transform="translate(-3.33 -1121.36)"/><path class="cls-3" d="M1810.43,1331.75c14.31-12.35,23-20.26,23-27.36,0-4.83-3-7.87-8.72-7.87-4,0-7.32,2.34-10.09,5L1810,1297c4.46-4.49,9-7.11,15.77-7.11,9.43,0,15.59,5.58,15.59,14.06,0,8.17-8.27,16.55-18.91,26,2.75-.24,5.89-.44,8.44-.44h12.91v7h-33.36Z" transform="translate(-3.33 -1121.36)"/><path class="cls-4" d="M1146.72,1606.76l29.65,60.08a12.64,12.64,0,0,0,9.53,6.92l66.31,9.64a12.65,12.65,0,0,1,7,21.58l-48,46.77a12.68,12.68,0,0,0-3.64,11.2l11.33,66a12.65,12.65,0,0,1-18.36,13.34l-59.31-31.18a12.63,12.63,0,0,0-11.77,0l-59.31,31.18a12.65,12.65,0,0,1-18.36-13.34l11.32-66a12.64,12.64,0,0,0-3.63-11.2l-48-46.77a12.65,12.65,0,0,1,7-21.58l66.31-9.64a12.6,12.6,0,0,0,9.52-6.92l29.66-60.08A12.65,12.65,0,0,1,1146.72,1606.76Z" transform="translate(-3.33 -1121.36)"/><path class="cls-3" d="M850.8,2024.28h5.9v28.35h15.64v5H850.8Z" transform="translate(-3.33 -1121.36)"/><path class="cls-3" d="M878.41,2045.06a12.68,12.68,0,0,1,12.91-13.1c7.47,0,11.62,5,11.62,11.89a19.84,19.84,0,0,1-.26,3H882.62v-4.16h16.25l-1.13,1.3c0-5-2.32-7.46-6.25-7.46-4.14,0-7.33,3-7.33,8.57,0,5.83,3.51,8.61,8.72,8.61a13.6,13.6,0,0,0,7-2.05l2,3.65a18.17,18.17,0,0,1-9.81,3C884.44,2058.23,878.41,2053.4,878.41,2045.06Z" transform="translate(-3.33 -1121.36)"/><path class="cls-3" d="M909.47,2050.89c0-5.61,4.94-8.41,17.31-9.28-.21-2.8-1.88-4.91-6-4.91-2.82,0-5.61,1.23-8.18,2.66l-2.19-3.91a23.05,23.05,0,0,1,11.46-3.49c7,0,10.77,3.86,10.77,10.83v14.83h-4.85l-.45-3.11h-.17c-2.63,2-6,3.72-9.35,3.72C913,2058.23,909.47,2055.24,909.47,2050.89Zm17.31-.33v-5.26c-9,.59-11.59,2.43-11.59,5.14,0,2.2,1.95,3.16,4.43,3.16S924.47,2052.42,926.78,2050.56Z" transform="translate(-3.33 -1121.36)"/><path class="cls-3" d="M943.1,2032.57H948l.5,5.7h.14c2.55-4.09,6.35-6.31,10.66-6.31a10.39,10.39,0,0,1,4.87,1l-1.25,5a12.61,12.61,0,0,0-4.53-.78c-3.42,0-6.79,1.75-9.36,6.62v13.81h-5.9Z" transform="translate(-3.33 -1121.36)"/><path class="cls-3" d="M971.28,2032.57h4.81l.45,3.77h.21c2.39-2.42,5.21-4.38,9-4.38,5.79,0,8.4,3.69,8.4,10.14v15.52h-5.9v-14.75c0-4-1.3-5.85-4.67-5.85-2.47,0-4.14,1.19-6.44,3.52v17.08h-5.89Z" transform="translate(-3.33 -1121.36)"/><path class="cls-3" d="M1032.75,2052.81h9v-21.25h-7.24v-3.73a22.8,22.8,0,0,0,8.78-2.67h4.36v27.65h7.9v4.81h-22.85Z" transform="translate(-3.33 -1121.36)"/><path class="cls-3" d="M1062.1,2041.27c0-11,4.7-16.73,12.07-16.73s12.07,5.76,12.07,16.73-4.69,17-12.07,17S1062.1,2052.17,1062.1,2041.27Zm18.81,0c0-8.87-2.87-12.09-6.74-12.09s-6.74,3.22-6.74,12.09,2.88,12.33,6.74,12.33S1080.91,2050.13,1080.91,2041.27Zm-10.24-.23a3.5,3.5,0,1,1,3.5,3.66A3.44,3.44,0,0,1,1070.67,2041Z" transform="translate(-3.33 -1121.36)"/><path class="cls-3" d="M1126.13,2024.28h21.33v5h-15.4v9.46h13.09v5h-13.09v13.91h-5.93Z" transform="translate(-3.33 -1121.36)"/><path class="cls-3" d="M1157.3,2032.57h4.87l.5,5.7h.14c2.54-4.09,6.34-6.31,10.65-6.31a10.43,10.43,0,0,1,4.88,1l-1.25,5a12.61,12.61,0,0,0-4.53-.78c-3.43,0-6.8,1.75-9.36,6.62v13.81h-5.9Z" transform="translate(-3.33 -1121.36)"/><path class="cls-3" d="M1184.87,2050.89c0-5.61,4.94-8.41,17.3-9.28-.2-2.8-1.87-4.91-6-4.91-2.82,0-5.6,1.23-8.18,2.66l-2.19-3.91a23.12,23.12,0,0,1,11.46-3.49c7,0,10.77,3.86,10.77,10.83v14.83h-4.84l-.46-3.11h-.17c-2.62,2-6,3.72-9.34,3.72C1188.37,2058.23,1184.87,2055.24,1184.87,2050.89Zm17.3-.33v-5.26c-9,.59-11.59,2.43-11.59,5.14,0,2.2,2,3.16,4.43,3.16S1199.86,2052.42,1202.17,2050.56Z" transform="translate(-3.33 -1121.36)"/><path class="cls-3" d="M1214.23,2032.57h4.53l.45,3.19h.14c1.1-2.16,2.67-3.8,5.56-3.8,2.32,0,3.89,1.43,4.55,4.21,1.16-2.47,2.82-4.21,5.7-4.21,3.54,0,5.58,2.91,5.58,7.91v17.75h-5.68v-17.33c0-2.2-.59-3.31-2-3.31s-2.12,1-3.13,3.14v17.5H1225v-17.33c0-2.2-.58-3.31-2-3.31s-2.2,1-3.14,3.14v17.5h-5.68Z" transform="translate(-3.33 -1121.36)"/><path class="cls-3" d="M1245.6,2045.06a12.69,12.69,0,0,1,12.91-13.1c7.48,0,11.62,5,11.62,11.89a19.84,19.84,0,0,1-.26,3h-20.06v-4.16h16.25l-1.12,1.3c0-5-2.33-7.46-6.25-7.46-4.14,0-7.33,3-7.33,8.57,0,5.83,3.5,8.61,8.71,8.61a13.67,13.67,0,0,0,7-2.05l2,3.65a18.14,18.14,0,0,1-9.81,3C1251.63,2058.23,1245.6,2053.4,1245.6,2045.06Z" transform="translate(-3.33 -1121.36)"/><path class="cls-3" d="M1273.37,2032.57h5.75l2.25,13c.38,2.43.66,4.72,1,7.17h.18a67.59,67.59,0,0,1,1.3-7.17l2.31-10.56H1291l2.28,10.56c.53,2.43,1.08,4.72,1.4,7.17h.21c.37-2.45.55-4.74.91-7.17l2.18-13h5.44l-4.59,25h-7.13l-2.1-10c-.37-2-.73-4.39-1.08-7.42h-.2c-.32,2.64-.63,5-1,7.42l-2,10h-7Z" transform="translate(-3.33 -1121.36)"/><path class="cls-3" d="M1306.39,2045.13c0-8.37,6-13.17,12.58-13.17s12.58,4.8,12.58,13.17-6,13.1-12.58,13.1S1306.39,2053.43,1306.39,2045.13Zm19.12,0c0-5-2.45-8.36-6.54-8.36s-6.54,3.32-6.54,8.36,2.45,8.29,6.54,8.29S1325.51,2050.13,1325.51,2045.13Z" transform="translate(-3.33 -1121.36)"/><path class="cls-3" d="M1340.9,2032.57h4.86l.51,5.7h.14c2.54-4.09,6.34-6.31,10.65-6.31a10.46,10.46,0,0,1,4.88,1l-1.25,5a12.66,12.66,0,0,0-4.54-.78c-3.42,0-6.79,1.75-9.35,6.62v13.81h-5.9Z" transform="translate(-3.33 -1121.36)"/><path class="cls-3" d="M1369.46,2021.61h5.9v22.52h.2l11.27-11.56h6.55l-18,18.5v6.55h-5.9Zm10,23.71,3.45-3.73,11.49,16H1388Z" transform="translate(-3.33 -1121.36)"/><path class="cls-3" d="M1398.62,2054.35l2.58-3.76a18.38,18.38,0,0,0,10.48,3.18c3.47,0,5.09-1.32,5.09-3s-1.1-2.56-6.93-3.77c-6.68-1.4-9.65-3.76-9.65-7.57,0-4.36,4-7.49,11-7.49a19.66,19.66,0,0,1,10.49,3.31l-2.72,3.62a15.44,15.44,0,0,0-8.29-2.51c-3.25,0-4.59,1.26-4.59,2.79,0,1.76,1.84,2.38,6.53,3.4,8,1.76,10.09,3.9,10.09,7.87,0,4.31-4.15,7.79-11.77,7.79A22.66,22.66,0,0,1,1398.62,2054.35Z" transform="translate(-3.33 -1121.36)"/><path class="cls-5" d="M1858.71,1725.65q2.6-2.65,4.84-5.45l32.09,31.33c2,1.93,1.29,5.82-1.52,8.7s-6.68,3.65-8.66,1.72l-32.08-31.33C1855.2,1729.07,1857,1727.42,1858.71,1725.65Z" transform="translate(-3.33 -1121.36)"/><ellipse class="cls-6" cx="1799.83" cy="1668.15" rx="80.93" ry="81.43" transform="translate(-654.48 668.47) rotate(-45.67)"/><path class="cls-7" d="M1858.19,1724.19a80.9,80.9,0,0,1-51.53,25.22l-87.79-89.23c0-.17,0-.34.05-.51a81.45,81.45,0,0,1,25.53-51.09Z" transform="translate(-3.33 -1121.36)"/><path class="cls-7" d="M1799.14,1586.88l81.18,82.51q-.06,3.75-.46,7.55a81.46,81.46,0,0,1-10.19,31.7L1760,1597.2A80.16,80.16,0,0,1,1799.14,1586.88Z" transform="translate(-3.33 -1121.36)"/><path class="cls-8" d="M1735.91,1733.61c36.37,35.52,94.48,35,129.79-1.14s34.44-94.26-1.94-129.78-94.49-35-129.79,1.13S1699.53,1698.08,1735.91,1733.61Zm7.38-7.56c-32.18-31.43-33-82.82-1.72-114.8s82.63-32.43,114.81-1,32.94,82.82,1.71,114.79S1775.46,1757.47,1743.29,1726.05Z" transform="translate(-3.33 -1121.36)"/><path class="cls-9" d="M1739.79,1729.63c34.16,33.37,88.75,32.9,121.91-1.06s32.35-88.54-1.82-121.91-88.75-32.89-121.91,1.07S1705.62,1696.26,1739.79,1729.63Zm3.5-3.58c-32.18-31.43-33-82.82-1.72-114.8s82.63-32.43,114.81-1,32.94,82.82,1.71,114.79S1775.46,1757.47,1743.29,1726.05Z" transform="translate(-3.33 -1121.36)"/><path class="cls-8" d="M1995.29,1863.17l5-5.18a13,13,0,0,0-.33-18.38l-92.64-89.81a13,13,0,0,0-18.39.33l-5,5.17a13,13,0,0,0,.33,18.39l92.64,89.81A13,13,0,0,0,1995.29,1863.17Z" transform="translate(-3.33 -1121.36)"/><path class="cls-3" d="M1571.34,2024.28h21.34v5h-15.41v9.46h13.1v5h-13.1v13.91h-5.93Z" transform="translate(-3.33 -1121.36)"/><path class="cls-3" d="M1611,2037.24h-10.82v-4.67h16.72v25H1611Zm-1.63-13.17a4.2,4.2,0,0,1,8.38,0,4.2,4.2,0,0,1-8.38,0Z" transform="translate(-3.33 -1121.36)"/><path class="cls-3" d="M1630.69,2032.57h4.81l.45,3.77h.21c2.39-2.42,5.21-4.38,9-4.38,5.79,0,8.4,3.69,8.4,10.14v15.52h-5.9v-14.75c0-4-1.29-5.85-4.67-5.85-2.47,0-4.14,1.19-6.43,3.52v17.08h-5.9Z" transform="translate(-3.33 -1121.36)"/><path class="cls-3" d="M1659.81,2045.13c0-8.17,5.34-13.17,11-13.17a9.46,9.46,0,0,1,6.91,2.94h.14l-.28-4.22v-9.07h5.89v36h-4.81l-.45-2.93h-.17a11.23,11.23,0,0,1-7.55,3.54C1664.06,2058.23,1659.81,2053.39,1659.81,2045.13Zm17.78,5.22V2039.1a7.55,7.55,0,0,0-5.34-2.26c-3.5,0-6.4,3-6.4,8.22,0,5.43,2.28,8.29,6.07,8.29C1674,2053.35,1675.84,2052.42,1677.59,2050.35Z" transform="translate(-3.33 -1121.36)"/><path class="cls-3" d="M1721.88,2050.89c0-5.61,4.94-8.41,17.31-9.28-.21-2.8-1.88-4.91-6-4.91-2.82,0-5.61,1.23-8.19,2.66l-2.18-3.91a23.05,23.05,0,0,1,11.46-3.49c7,0,10.77,3.86,10.77,10.83v14.83h-4.85l-.45-3.11h-.17c-2.63,2-6,3.72-9.35,3.72C1725.39,2058.23,1721.88,2055.24,1721.88,2050.89Zm17.31-.33v-5.26c-9,.59-11.59,2.43-11.59,5.14,0,2.2,2,3.16,4.43,3.16S1736.88,2052.42,1739.19,2050.56Z" transform="translate(-3.33 -1121.36)"/><path class="cls-3" d="M1753.09,2032.57h4.81l.45,3.77h.21c2.39-2.42,5.21-4.38,9-4.38,5.79,0,8.4,3.69,8.4,10.14v15.52h-5.9v-14.75c0-4-1.3-5.85-4.67-5.85-2.47,0-4.14,1.19-6.44,3.52v17.08h-5.89Z" transform="translate(-3.33 -1121.36)"/><path class="cls-3" d="M1812.81,2045.13c0-8.37,6-13.17,12.57-13.17s12.58,4.8,12.58,13.17-6,13.1-12.58,13.1S1812.81,2053.43,1812.81,2045.13Zm19.11,0c0-5-2.45-8.36-6.54-8.36s-6.53,3.32-6.53,8.36,2.45,8.29,6.53,8.29S1831.92,2050.13,1831.92,2045.13Z" transform="translate(-3.33 -1121.36)"/><path class="cls-3" d="M1844.88,2032.57h4.82l.45,2.86h.17a12.43,12.43,0,0,1,8-3.47c6.49,0,10.19,5,10.19,12.76,0,8.54-5.3,13.51-11.12,13.51a10.36,10.36,0,0,1-6.8-3h-.14l.28,4.39v7.88h-5.9Zm17.64,12.19c0-5-1.76-7.92-5.81-7.92-1.89,0-3.9.9-5.93,3v11.25a8.42,8.42,0,0,0,5.44,2.26C1859.78,2053.35,1862.52,2050.43,1862.52,2044.76Z" transform="translate(-3.33 -1121.36)"/><path class="cls-3" d="M1875.48,2032.57h4.82l.45,2.86h.17a12.43,12.43,0,0,1,8-3.47c6.5,0,10.2,5,10.2,12.76,0,8.54-5.3,13.51-11.12,13.51a10.36,10.36,0,0,1-6.8-3h-.14l.28,4.39v7.88h-5.9Zm17.64,12.19c0-5-1.76-7.92-5.81-7.92-1.89,0-3.9.9-5.93,3v11.25a8.42,8.42,0,0,0,5.44,2.26C1890.38,2053.35,1893.12,2050.43,1893.12,2044.76Z" transform="translate(-3.33 -1121.36)"/><path class="cls-3" d="M1904.61,2045.13c0-8.37,6-13.17,12.57-13.17s12.58,4.8,12.58,13.17-6,13.1-12.58,13.1S1904.61,2053.43,1904.61,2045.13Zm19.11,0c0-5-2.45-8.36-6.54-8.36s-6.54,3.32-6.54,8.36,2.45,8.29,6.54,8.29S1923.72,2050.13,1923.72,2045.13Z" transform="translate(-3.33 -1121.36)"/><path class="cls-3" d="M1939.11,2032.57H1944l.5,5.7h.14c2.54-4.09,6.34-6.31,10.65-6.31a10.43,10.43,0,0,1,4.88,1l-1.25,5a12.61,12.61,0,0,0-4.53-.78c-3.43,0-6.8,1.75-9.36,6.62v13.81h-5.9Z" transform="translate(-3.33 -1121.36)"/><path class="cls-3" d="M1972.76,2047.55v-10.31h-6.7v-4.39l7-.28.77-7.84h4.88v7.84h11.39v4.67h-11.39v10.28c0,4.14,1.56,6,5.79,6a15.79,15.79,0,0,0,5.45-1l1.14,4.29a24.49,24.49,0,0,1-8,1.42C1975.37,2058.23,1972.76,2053.93,1972.76,2047.55Z" transform="translate(-3.33 -1121.36)"/><path class="cls-3" d="M1997.22,2048.08v-15.51h5.9v14.75c0,4,1.25,5.85,4.68,5.85,2.35,0,4-1,6.27-3.69v-16.91h5.9v25h-4.85l-.45-4h-.2c-2.37,2.74-5.14,4.59-8.87,4.59C1999.79,2058.23,1997.22,2054.54,1997.22,2048.08Z" transform="translate(-3.33 -1121.36)"/><path class="cls-3" d="M2028.48,2032.57h4.82l.45,3.77h.2c2.4-2.42,5.22-4.38,9-4.38,5.79,0,8.4,3.69,8.4,10.14v15.52h-5.9v-14.75c0-4-1.29-5.85-4.66-5.85-2.47,0-4.15,1.19-6.44,3.52v17.08h-5.9Z" transform="translate(-3.33 -1121.36)"/><path class="cls-3" d="M2070,2037.24h-10.82v-4.67h16.72v25H2070Zm-1.63-13.17a4.2,4.2,0,0,1,8.38,0,4.2,4.2,0,0,1-8.38,0Z" transform="translate(-3.33 -1121.36)"/><path class="cls-3" d="M2095.16,2047.55v-10.31h-6.7v-4.39l6.95-.28.77-7.84h4.88v7.84h11.39v4.67h-11.39v10.28c0,4.14,1.56,6,5.79,6a15.69,15.69,0,0,0,5.44-1l1.15,4.29a24.51,24.51,0,0,1-8,1.42C2097.77,2058.23,2095.16,2053.93,2095.16,2047.55Z" transform="translate(-3.33 -1121.36)"/><path class="cls-3" d="M2119.5,2067.37l1.11-4.56a7.43,7.43,0,0,0,2.09.34,6.15,6.15,0,0,0,6-4.26l.6-1.58-11.23-24.74H2124l5.12,12.25c.93,2.28,1.88,4.86,2.78,7.39h.21c.77-2.44,1.68-5,2.48-7.39l4.51-12.25h5.62l-10.46,26.19c-2.16,5.62-5.16,9.12-11.2,9.12A12.16,12.16,0,0,1,2119.5,2067.37Z" transform="translate(-3.33 -1121.36)"/><path class="cls-3" d="M157.7,2041c0-10.89,6.63-17.37,15.44-17.37a13.41,13.41,0,0,1,9.56,4.15l-3.31,3.69a8.57,8.57,0,0,0-6.25-2.69c-5.53,0-9.34,4.57-9.34,12s3.81,12.21,9.49,12.21a8.84,8.84,0,0,0,6.73-3.3l3.31,3.6a13.35,13.35,0,0,1-10.63,4.86C164.44,2058.23,157.7,2052.1,157.7,2041Z" transform="translate(-3.33 -1121.36)"/><path class="cls-3" d="M191.89,2032.57h4.87l.5,5.7h.14c2.54-4.09,6.35-6.31,10.65-6.31a10.4,10.4,0,0,1,4.88,1l-1.25,5a12.61,12.61,0,0,0-4.53-.78c-3.42,0-6.79,1.75-9.36,6.62v13.81h-5.9Z" transform="translate(-3.33 -1121.36)"/><path class="cls-3" d="M219,2045.06a12.68,12.68,0,0,1,12.91-13.1c7.47,0,11.62,5,11.62,11.89a19.84,19.84,0,0,1-.26,3H223.21v-4.16h16.25l-1.13,1.3c0-5-2.33-7.46-6.25-7.46-4.14,0-7.33,3-7.33,8.57,0,5.83,3.51,8.61,8.72,8.61a13.6,13.6,0,0,0,7-2.05l2,3.65a18.2,18.2,0,0,1-9.82,3C225,2058.23,219,2053.4,219,2045.06Z" transform="translate(-3.33 -1121.36)"/><path class="cls-3" d="M250.06,2050.89c0-5.61,4.94-8.41,17.31-9.28-.21-2.8-1.88-4.91-6-4.91-2.82,0-5.61,1.23-8.19,2.66l-2.18-3.91a23,23,0,0,1,11.45-3.49c7,0,10.78,3.86,10.78,10.83v14.83h-4.85l-.45-3.11h-.17c-2.63,2-6,3.72-9.35,3.72C253.56,2058.23,250.06,2055.24,250.06,2050.89Zm17.31-.33v-5.26c-9,.59-11.6,2.43-11.6,5.14,0,2.2,2,3.16,4.44,3.16S265.05,2052.42,267.37,2050.56Z" transform="translate(-3.33 -1121.36)"/><path class="cls-3" d="M286.75,2047.55v-10.31h-6.7v-4.39l6.94-.28.77-7.84h4.88v7.84H304v4.67H292.64v10.28c0,4.14,1.56,6,5.79,6a15.79,15.79,0,0,0,5.45-1l1.14,4.29a24.44,24.44,0,0,1-8,1.42C289.35,2058.23,286.75,2053.93,286.75,2047.55Z" transform="translate(-3.33 -1121.36)"/><path class="cls-3" d="M310.79,2045.06A12.69,12.69,0,0,1,323.7,2032c7.48,0,11.62,5,11.62,11.89a18.58,18.58,0,0,1-.26,3H315v-4.16h16.25l-1.12,1.3c0-5-2.33-7.46-6.25-7.46-4.14,0-7.33,3-7.33,8.57,0,5.83,3.51,8.61,8.71,8.61a13.64,13.64,0,0,0,7-2.05l2,3.65a18.14,18.14,0,0,1-9.81,3C316.82,2058.23,310.79,2053.4,310.79,2045.06Z" transform="translate(-3.33 -1121.36)"/><path class="cls-3" d="M389.69,2030.18H372.23v-5h23.95v3.63c-8.41,9.43-10.09,16.13-10.66,28.83h-6C380.09,2046.09,382.61,2039,389.69,2030.18Z" transform="translate(-3.33 -1121.36)"/><path class="cls-3" d="M434.26,2032.57h4.82l.45,2.86h.17a12.39,12.39,0,0,1,8-3.47c6.5,0,10.2,5,10.2,12.76,0,8.54-5.31,13.51-11.12,13.51a10.36,10.36,0,0,1-6.8-3h-.14l.28,4.39v7.88h-5.9Zm17.64,12.19c0-5-1.76-7.92-5.81-7.92-1.89,0-3.9.9-5.93,3v11.25a8.42,8.42,0,0,0,5.44,2.26C449.16,2053.35,451.9,2050.43,451.9,2044.76Z" transform="translate(-3.33 -1121.36)"/><path class="cls-3" d="M467.29,2032.57h4.87l.5,5.7h.14c2.54-4.09,6.34-6.31,10.65-6.31a10.46,10.46,0,0,1,4.88,1l-1.25,5a12.66,12.66,0,0,0-4.54-.78c-3.42,0-6.79,1.75-9.35,6.62v13.81h-5.9Z" transform="translate(-3.33 -1121.36)"/><path class="cls-3" d="M494,2045.13c0-8.37,6-13.17,12.58-13.17s12.58,4.8,12.58,13.17-6,13.1-12.58,13.1S494,2053.43,494,2045.13Zm19.12,0c0-5-2.45-8.36-6.54-8.36s-6.54,3.32-6.54,8.36,2.45,8.29,6.54,8.29S513.1,2050.13,513.1,2045.13Z" transform="translate(-3.33 -1121.36)"/><path class="cls-3" d="M524.33,2066.44l1.79-4.29a12.73,12.73,0,0,0,5.4,1.29c4.24,0,5.45-2.07,5.45-6v-20.21H526.15v-4.67h16.72v24.57c0,6.13-2.49,11-11.1,11A17.21,17.21,0,0,1,524.33,2066.44Zm11-42.37a4.2,4.2,0,0,1,8.38,0,4.2,4.2,0,0,1-8.38,0Z" transform="translate(-3.33 -1121.36)"/><path class="cls-3" d="M555.59,2045.06A12.69,12.69,0,0,1,568.5,2032c7.48,0,11.62,5,11.62,11.89a19.84,19.84,0,0,1-.26,3H559.8v-4.16h16.25l-1.13,1.3c0-5-2.32-7.46-6.24-7.46-4.14,0-7.33,3-7.33,8.57,0,5.83,3.5,8.61,8.71,8.61a13.6,13.6,0,0,0,7-2.05l2,3.65a18.14,18.14,0,0,1-9.81,3C561.62,2058.23,555.59,2053.4,555.59,2045.06Z" transform="translate(-3.33 -1121.36)"/><path class="cls-3" d="M586.8,2045.13c0-8.37,6.59-13.17,14.23-13.17a13.12,13.12,0,0,1,9.25,3.53l-2.78,3.69a9.75,9.75,0,0,0-6.18-2.41c-5,0-8.48,3.32-8.48,8.36a7.87,7.87,0,0,0,8.3,8.29,11.66,11.66,0,0,0,7.15-2.76l2.46,3.77a15.62,15.62,0,0,1-10.12,3.8C592.77,2058.23,586.8,2053.43,586.8,2045.13Z" transform="translate(-3.33 -1121.36)"/><path class="cls-3" d="M623.34,2047.55v-10.31h-6.7v-4.39l7-.28.76-7.84h4.89v7.84h11.39v4.67H629.24v10.28c0,4.14,1.55,6,5.79,6a15.73,15.73,0,0,0,5.44-1l1.15,4.29a24.56,24.56,0,0,1-8,1.42C626,2058.23,623.34,2053.93,623.34,2047.55Z" transform="translate(-3.33 -1121.36)"/><path class="cls-3" d="M647.41,2054.35l2.58-3.76a18.38,18.38,0,0,0,10.48,3.18c3.47,0,5.09-1.32,5.09-3s-1.1-2.56-6.93-3.77c-6.68-1.4-9.65-3.76-9.65-7.57,0-4.36,4-7.49,11-7.49a19.66,19.66,0,0,1,10.49,3.31l-2.72,3.62a15.44,15.44,0,0,0-8.29-2.51c-3.25,0-4.59,1.26-4.59,2.79,0,1.76,1.84,2.38,6.53,3.4,8,1.76,10.09,3.9,10.09,7.87,0,4.31-4.15,7.79-11.77,7.79A22.66,22.66,0,0,1,647.41,2054.35Z" transform="translate(-3.33 -1121.36)"/><path class="cls-10" d="M451.9,1814H377.65c-2.95,0-5.35,2.73-5.35,6.12s2.4,6.12,5.35,6.13h74.24c2.94,0,5.33-2.75,5.34-6.12S454.83,1814,451.9,1814Z" transform="translate(-3.33 -1121.36)"/><path class="cls-10" d="M451.9,1831.11H377.65c-2.95,0-5.36,2.77-5.35,6.13s2.39,6.14,5.35,6.14h7.94l8,16.27s3.85,5.24,5.85,5.8,24.82,3.12,31.9,0c0,0,3.46-1,6.15-6.23,2.09-4,6.47-12.17,8.44-15.84h6c2.93,0,5.33-2.75,5.32-6.14S454.84,1831.11,451.9,1831.11Z" transform="translate(-3.33 -1121.36)"/><path class="cls-10" d="M451.9,1796.88H377.65c-3,0-5.35,2.74-5.35,6.13s2.4,6.14,5.35,6.13h74.24c2.94,0,5.33-2.75,5.34-6.14S454.84,1796.88,451.9,1796.88Z" transform="translate(-3.33 -1121.36)"/><path class="cls-11" d="M440.26,1689c.75-1.51.89-2.67.42-3.45s-.95-1.16-1.44-1.16c-1.1,0-2.61,1.52-3.34,3-1.07,2.11-1,4.74-.56,7A15,15,0,0,0,440.26,1689Z" transform="translate(-3.33 -1121.36)"/><path class="cls-11" d="M408.37,1686c.51-1.11.68-3.2.13-4a.49.49,0,0,0-.51-.26,3.11,3.11,0,0,0-1.13.28,6.48,6.48,0,0,0-3.28,3.41,10,10,0,0,0-.5,8.06c.19-.22.38-.45.56-.68A33.53,33.53,0,0,0,408.37,1686Z" transform="translate(-3.33 -1121.36)"/><path class="cls-11" d="M384.68,1719c10.05,21.65,18.73,45.79,26.52,73.72h11.26c7.31-26.22,15.39-49,24.68-69.69-7.38-3.43-13.12-9.87-16.33-18.26A32.56,32.56,0,0,1,415,1707a29.91,29.91,0,0,1-11.68-3.32C400.3,1707.25,393.19,1714.9,384.68,1719Z" transform="translate(-3.33 -1121.36)"/><path class="cls-11" d="M367.84,1705.46a3.75,3.75,0,0,0-.48,0c-.93,0-2,.37-2.23,1.17a4.84,4.84,0,0,0,1.12,4,11.14,11.14,0,0,0,7.91,4.1,4.4,4.4,0,0,0,.64,0c-.59-1.23-1.21-2.45-1.83-3.67C371.73,1708.46,370.16,1705.81,367.84,1705.46Z" transform="translate(-3.33 -1121.36)"/><path class="cls-11" d="M463.57,1707.7h0c-.24,0-1,.31-2.74,3.15l-.14.22c-1.08,2.15-2.17,4.35-3.29,6.69a9,9,0,0,0,5.73-2.44,5.76,5.76,0,0,0,1.44-4.55C464.41,1708.64,463.86,1707.85,463.57,1707.7Z" transform="translate(-3.33 -1121.36)"/><path class="cls-11" d="M414.76,1576.54a100,100,0,0,0-41.9,190.83v19.43a5.92,5.92,0,0,0,5.92,5.91h25.07c-7.64-27.12-16.12-50.54-25.9-71.46a16.51,16.51,0,0,1-14.74-4c-2.86-2.56-5.59-7-5.24-11.15a7.94,7.94,0,0,1,3.93-6.18,9.8,9.8,0,0,1,5.27-1.6c5.54,0,9.92,5,12,9.29q1.2,2.37,2.37,4.79A50.39,50.39,0,0,0,398,1699.11a14.51,14.51,0,0,1-2.57-6.63c-.59-4.25,1.52-10.54,4.81-14.3,3.54-4.06,8.05-4.77,12.08-1.84a8.79,8.79,0,0,1,3.85,6c.7,5.45-4,11.22-7.48,15.44-.17.19-.32.37-.47.57a16,16,0,0,0,3.16,1c6,1.26,11.39,1.11,15.36-.44.73-.29,1.45-.59,2.17-.91-.29-1.47-.52-2.93-.66-4.35-.59-6.22,1.13-10.74,5.43-14.25a9.48,9.48,0,0,1,5.91-2.1,6.91,6.91,0,0,1,5.18,2.11,10.19,10.19,0,0,1,3.09,8.22c-.56,6-6.09,10.6-8.44,12.3-.69.49-1.4,1-2.13,1.44,1.8,5,5.6,12.52,12.77,15.35,1.47-3.09,3-6.15,4.47-9.11a3.25,3.25,0,0,1,.37-.59c1.31-2,4.73-6.46,8.93-6.46a6.36,6.36,0,0,1,4.29,1.74c4,3.54,4.17,9.56,2.54,13.94-2,5.47-7.4,8.73-14.39,8.74-.73,0-1.46,0-2.2-.11-9.08,20-17,42.24-24.23,67.83h20.93a5.92,5.92,0,0,0,5.92-5.92v-19.43a100,100,0,0,0-41.91-190.82Z" transform="translate(-3.33 -1121.36)"/><path class="cls-12" d="M2476.79,1701l-23.38,91.18L2525,1752l213.73-78.82-157.51-4.37s-81.67,9.79-86.43,13.17S2476.79,1701,2476.79,1701Z" transform="translate(-3.33 -1121.36)"/><polygon class="cls-13" points="2411.16 515.47 2735.38 551.84 2473.46 579.66 2411.16 515.47"/><polygon class="cls-13" points="2566.45 685.33 2489.72 607 2735.38 551.84 2566.45 685.33"/><path class="cls-3" d="M2304.19,2053.36l3.44-4.08a14.15,14.15,0,0,0,9.31,3.79c3.88,0,5.93-1.71,5.93-4,0-3-2.28-3.76-5.54-5.13l-4.58-2c-3.5-1.37-7.11-4-7.11-8.85,0-5.3,4.77-9.39,11.58-9.39a15.35,15.35,0,0,1,10.67,4.24l-3,3.76a11.83,11.83,0,0,0-7.93-2.85c-3.16,0-5.29,1.43-5.29,3.89s2.66,3.55,5.68,4.71l4.38,1.9c4.24,1.63,7.24,4.16,7.24,9,0,5.42-4.56,9.93-12.36,9.93A18.08,18.08,0,0,1,2304.19,2053.36Z" transform="translate(-3.33 -1121.36)"/><path class="cls-3" d="M2336,2021.61h5.9v9.29l-.35,5.36h.17c2.18-2.34,5-4.3,8.8-4.3,5.77,0,8.38,3.69,8.38,10.14v15.52H2353v-14.75c0-4-1.29-5.85-4.67-5.85-2.47,0-4.14,1.19-6.43,3.52v17.08H2336Z" transform="translate(-3.33 -1121.36)"/><path class="cls-3" d="M2366,2050.89c0-5.61,4.94-8.41,17.31-9.28-.21-2.8-1.88-4.91-6-4.91-2.82,0-5.61,1.23-8.18,2.66l-2.19-3.91a23.08,23.08,0,0,1,11.46-3.49c7,0,10.77,3.86,10.77,10.83v14.83h-4.85l-.45-3.11h-.17c-2.63,2-6,3.72-9.35,3.72C2369.5,2058.23,2366,2055.24,2366,2050.89Zm17.31-.33v-5.26c-9,.59-11.59,2.43-11.59,5.14,0,2.2,1.95,3.16,4.43,3.16S2381,2052.42,2383.3,2050.56Z" transform="translate(-3.33 -1121.36)"/><path class="cls-3" d="M2399.62,2032.57h4.87l.5,5.7h.14c2.55-4.09,6.35-6.31,10.66-6.31a10.39,10.39,0,0,1,4.87,1l-1.25,5a12.61,12.61,0,0,0-4.53-.78c-3.42,0-6.79,1.75-9.36,6.62v13.81h-5.9Z" transform="translate(-3.33 -1121.36)"/><path class="cls-3" d="M2426.73,2045.06a12.68,12.68,0,0,1,12.91-13.1c7.47,0,11.62,5,11.62,11.89a19.84,19.84,0,0,1-.26,3h-20.06v-4.16h16.25l-1.13,1.3c0-5-2.33-7.46-6.25-7.46-4.14,0-7.33,3-7.33,8.57,0,5.83,3.51,8.61,8.72,8.61a13.6,13.6,0,0,0,7-2.05l2,3.65a18.17,18.17,0,0,1-9.81,3C2432.76,2058.23,2426.73,2053.4,2426.73,2045.06Z" transform="translate(-3.33 -1121.36)"/><path class="cls-3" d="M2487.16,2032.57h4.52l.45,3.19h.14c1.11-2.16,2.68-3.8,5.57-3.8,2.32,0,3.88,1.43,4.54,4.21,1.17-2.47,2.83-4.21,5.7-4.21,3.54,0,5.58,2.91,5.58,7.91v17.75H2508v-17.33c0-2.2-.59-3.31-2-3.31s-2.13,1-3.14,3.14v17.5H2498v-17.33c0-2.2-.59-3.31-2-3.31s-2.2,1-3.15,3.14v17.5h-5.67Z" transform="translate(-3.33 -1121.36)"/><path class="cls-3" d="M2518.81,2067.37l1.11-4.56a7.56,7.56,0,0,0,2.1.34,6.15,6.15,0,0,0,6-4.26l.6-1.58-11.22-24.74h5.89l5.12,12.25c.93,2.28,1.87,4.86,2.78,7.39h.2c.78-2.44,1.69-5,2.49-7.39l4.51-12.25H2544l-10.46,26.19c-2.15,5.62-5.16,9.12-11.19,9.12A12.18,12.18,0,0,1,2518.81,2067.37Z" transform="translate(-3.33 -1121.36)"/><path class="cls-3" d="M2581.18,2021.61h5.9v22.52h.21l11.26-11.56h6.55l-18,18.5v6.55h-5.9Zm10,23.71,3.45-3.73,11.5,16h-6.46Z" transform="translate(-3.33 -1121.36)"/><path class="cls-3" d="M2611.39,2032.57h4.82l.45,3.77h.21c2.39-2.42,5.21-4.38,9-4.38,5.79,0,8.4,3.69,8.4,10.14v15.52h-5.9v-14.75c0-4-1.3-5.85-4.67-5.85-2.47,0-4.14,1.19-6.44,3.52v17.08h-5.9Z" transform="translate(-3.33 -1121.36)"/><path class="cls-3" d="M2640.52,2045.13c0-8.37,6-13.17,12.57-13.17s12.58,4.8,12.58,13.17-6,13.1-12.58,13.1S2640.52,2053.43,2640.52,2045.13Zm19.11,0c0-5-2.45-8.36-6.54-8.36s-6.54,3.32-6.54,8.36,2.46,8.29,6.54,8.29S2659.63,2050.13,2659.63,2045.13Z" transform="translate(-3.33 -1121.36)"/><path class="cls-3" d="M2668.69,2032.57h5.75l2.25,13c.38,2.43.67,4.72,1,7.17h.19a65.13,65.13,0,0,1,1.29-7.17l2.32-10.56h4.81l2.29,10.56c.52,2.43,1.07,4.72,1.4,7.17h.2c.37-2.45.55-4.74.92-7.17l2.17-13h5.45l-4.6,25H2687l-2.11-10c-.37-2-.72-4.39-1.08-7.42h-.2c-.31,2.64-.63,5-1,7.42l-2,10h-7.05Z" transform="translate(-3.33 -1121.36)"/><path class="cls-3" d="M2710.49,2048.5v-22.22h-8.36v-4.67h14.26v27.2c0,3.34,2,4.61,4.5,4.61a11.07,11.07,0,0,0,4.29-1l1.37,4.36a18,18,0,0,1-7.1,1.42C2713.6,2058.23,2710.49,2054.65,2710.49,2048.5Z" transform="translate(-3.33 -1121.36)"/><path class="cls-3" d="M2732.72,2045.06a12.69,12.69,0,0,1,12.91-13.1c7.48,0,11.62,5,11.62,11.89a19.84,19.84,0,0,1-.26,3h-20.06v-4.16h16.25l-1.12,1.3c0-5-2.33-7.46-6.25-7.46-4.14,0-7.33,3-7.33,8.57,0,5.83,3.51,8.61,8.71,8.61a13.67,13.67,0,0,0,7-2.05l2,3.65a18.14,18.14,0,0,1-9.81,3C2738.75,2058.23,2732.72,2053.4,2732.72,2045.06Z" transform="translate(-3.33 -1121.36)"/><path class="cls-3" d="M2762.92,2045.13c0-8.17,5.33-13.17,11-13.17a9.45,9.45,0,0,1,6.9,2.94h.14l-.28-4.22v-9.07h5.9v36h-4.81l-.46-2.93h-.17a11.19,11.19,0,0,1-7.54,3.54C2767.16,2058.23,2762.92,2053.39,2762.92,2045.13Zm17.77,5.22V2039.1a7.53,7.53,0,0,0-5.33-2.26c-3.5,0-6.41,3-6.41,8.22,0,5.43,2.29,8.29,6.08,8.29A7.23,7.23,0,0,0,2780.69,2050.35Z" transform="translate(-3.33 -1121.36)"/><path class="cls-3" d="M2793.94,2062c0-2,1.39-3.86,4-5.28v-.2a4.66,4.66,0,0,1-2.56-4.19,6.16,6.16,0,0,1,3-4.7v-.2a7.8,7.8,0,0,1-3.21-6.47c0-5.74,4.81-9,10.3-9a11.61,11.61,0,0,1,3.92.61h10.27v4.48h-5.76a6.54,6.54,0,0,1,1.59,4.14c0,5.57-4.4,8.5-10,8.5a11.51,11.51,0,0,1-3.82-.71,2.72,2.72,0,0,0-1.53,2.35c0,1.64,1.61,2.37,4.72,2.37H2810c6.5,0,9.86,1.74,9.86,6.11,0,5-5.61,8.89-14.44,8.89C2798.48,2068.7,2793.94,2066.49,2793.94,2062Zm20.22-1.23c0-2-1.72-2.47-5-2.47h-4a14.68,14.68,0,0,1-3.81-.37c-1.8,1-2.47,2.13-2.47,3.29,0,2.25,2.64,3.54,7.25,3.54C2811,2064.78,2814.16,2062.93,2814.16,2060.79Zm-3.92-19.81a4.76,4.76,0,1,0-4.76,5A4.67,4.67,0,0,0,2810.24,2041Z" transform="translate(-3.33 -1121.36)"/><path class="cls-3" d="M2824.52,2045.06a12.69,12.69,0,0,1,12.91-13.1c7.48,0,11.62,5,11.62,11.89a19.84,19.84,0,0,1-.26,3h-20.06v-4.16H2845l-1.12,1.3c0-5-2.33-7.46-6.25-7.46-4.14,0-7.33,3-7.33,8.57,0,5.83,3.5,8.61,8.71,8.61a13.67,13.67,0,0,0,7-2.05l2,3.65a18.14,18.14,0,0,1-9.81,3C2830.55,2058.23,2824.52,2053.4,2824.52,2045.06Z" transform="translate(-3.33 -1121.36)"/></g></g></svg>