<svg id="Calque_1" data-name="Calque 1" xmlns="http://www.w3.org/2000/svg" viewBox="0 0 3000 586.21"><defs><style>.cls-1{fill:#f7f7f7;}.cls-2{fill:#27aece;}.cls-3{fill:#232323;}.cls-4{fill:#25a6c2;}.cls-5{opacity:0.1;}.cls-6{fill:#333;}</style></defs><g id="header"><path class="cls-1" d="M-1705.92-1861.9a82,82,0,0,1,99.54-59.2,82,82,0,0,1,61.72,79.62h2.94a84.28,84.28,0,0,0-12-43.59,84.23,84.23,0,0,0-52-38.84,84.24,84.24,0,0,0-64.22,9.3,84.26,84.26,0,0,0-38.84,52,85.19,85.19,0,0,0-2.64,21.13h2.92A81.63,81.63,0,0,1-1705.92-1861.9Z" transform="translate(3566.3 2427.69)"/><path class="cls-1" d="M-1608.75-1900.87a61.76,61.76,0,0,0-76.94,41.35h0a61.66,61.66,0,0,0-2.63,18h123.53A61.77,61.77,0,0,0-1608.75-1900.87Z" transform="translate(3566.3 2427.69)"/><path class="cls-1" d="M-624.3-2427.69H-3136.46c1.06,7.81,2,15.66,2.54,23.52.2,2.6,1.09,3.5,3.22,4.37,8.8,3.6,17.52,7.39,26.31,11,2.18.91,3.13,2,2.77,4.6-1.65,11.89-5.73,22.95-10.78,33.73-1,2.14-2.44,2.06-4.39,1.65-9-1.92-18.11-3.62-27.13-5.6-2.6-.58-4-.19-5.69,2.18-6,8.16-12.44,16-19.22,24.57l12.92,31.06a122.55,122.55,0,0,1-36.56,19.69c-6.61-10-13.05-19.81-18.87-28.66-9.86.69-19,1.58-28.16,1.87-3.46.1-5.11,1.15-6.33,4.34-3.27,8.49-6.87,16.85-10.42,25.22-.7,1.66-1.13,4-3.94,3.1l-34.3-10.6c-2.43-.75-2.9-2.29-2.36-4.75,2-9.16,3.59-18.4,5.74-27.52.83-3.52-.54-5-3.09-7a214.44,214.44,0,0,1-18.31-15.28c-2.47-2.36-4-2.62-6.95-1.28-9.53,4.28-19.23,8.19-28.66,12.16-6-6-17.19-27.43-19.42-37,8.9-5.81,17.83-11.78,26.92-17.49,2.28-1.43,2.53-2.78,2.22-5.31-1-8.17-1.37-16.41-2.26-24.59a5.43,5.43,0,0,0-2.57-3.79c-7.7-3.37-15.52-6.47-23.33-9.57-4.37-1.73-6.14-2.42-6.52-4.37l.08-.3h-135.3a58,58,0,0,0-58,58v528.21H-1730c-.09-.85-.16-1.7-.25-2.55a5.43,5.43,0,0,0-2.57-3.8c-7.7-3.37-15.52-6.47-23.33-9.57-4.37-1.73-6.14-2.41-6.53-4.37l11-36.54c1.9-2,4.14-1.56,10.16-.39,7.44,1.45,14.82,3.16,22.28,4.45a5.49,5.49,0,0,0,4.38-1.54c5.61-6.76,10.82-13.83,16.47-20.54,1.65-2,2.18-3.31,1.13-5.71-3.7-8.45-7.17-17-10.72-25.53-.58-1.38-1.1-2.78-2.06-5.21l36.48-19.15c6.22,9.32,12,17.69,17.46,26.29,1.92,3,3.56,4.1,7.45,3.4,7.94-1.44,16.09-1.76,24.12-2.77a5,5,0,0,0,3.36-2.45c3.79-8.56,7.61-17.13,10.87-25.9,1.57-4.21,3.78-5.11,7.71-3.86a25.21,25.21,0,0,0,4.8.59l20.59,6.2a13.61,13.61,0,0,0,2,1.33c7.68,3.22,6.58,2.22,5.13,9.86-1.78,9.3-3.71,18.58-5.32,26.65l26.45,21.94,32.37-13.47c8.5,11.16,14.44,23.29,19.09,36.35-9.17,6.11-18.1,12.09-27.08,18-1.61,1.06-2.33,2-2,4.24,1.15,8,2.1,16,2.77,24H-566.3v-528.21A58,58,0,0,0-624.3-2427.69Z" transform="translate(3566.3 2427.69)"/><path class="cls-1" d="M-3296.11-2425.15h0a61.76,61.76,0,0,0,41.35,76.94,61.76,61.76,0,0,0,76.94-41.34h0a61.52,61.52,0,0,0-.84-38.14h-116.62C-3295.57-2426.85-3295.85-2426-3296.11-2425.15Z" transform="translate(3566.3 2427.69)"/><path class="cls-1" d="M-3154.61-2427.69h-3a81.34,81.34,0,0,1,.06,40.51,82,82,0,0,1-99.54,59.2,82,82,0,0,1-59.2-99.54,1.09,1.09,0,0,0,.05-.17h-3a84.2,84.2,0,0,0,9.42,63.68,84.26,84.26,0,0,0,52,38.84,84.23,84.23,0,0,0,64.23-9.3,84.27,84.27,0,0,0,38.84-52A84.34,84.34,0,0,0-3154.61-2427.69Z" transform="translate(3566.3 2427.69)"/><path class="cls-2" d="M-2433.67-2123.5h-22l35.92-22.75v16.36Zm13.93,22.8-35.92-22.8h22l13.93,6.84Z" transform="translate(3566.3 2427.69)"/><path class="cls-2" d="M-2389.64-2123.5h-22l35.92-22.75v16.36Zm13.93,22.8-35.92-22.8h22l13.93,6.84Z" transform="translate(3566.3 2427.69)"/><path class="cls-3" d="M-2330.9-2144h34.73v8.12h-25.08v15.39h21.32v8.12h-21.32v22.65h-9.65Z" transform="translate(3566.3 2427.69)"/><path class="cls-3" d="M-2285.85-2110.2c0-13.3,10.1-21.33,21-21.33,12.17,0,18.91,8.07,18.91,19.36a31.48,31.48,0,0,1-.42,4.82H-2279v-6.78h26.46l-1.84,2.12c0-8-3.78-12.14-10.17-12.14-6.74,0-11.93,4.85-11.93,14,0,9.49,5.71,14,14.19,14a22.2,22.2,0,0,0,11.43-3.33l3.28,5.94a29.62,29.62,0,0,1-16,4.82C-2276-2088.76-2285.85-2096.63-2285.85-2110.2Z" transform="translate(3566.3 2427.69)"/><path class="cls-3" d="M-2230.35-2130.53h7.92l.82,9.27h.23c4.14-6.65,10.33-10.27,17.34-10.27a17,17,0,0,1,7.94,1.66l-2,8.12a20.84,20.84,0,0,0-7.38-1.27c-5.57,0-11.06,2.86-15.24,10.78v22.48h-9.6Z" transform="translate(3566.3 2427.69)"/><path class="cls-3" d="M-2186.23-2110.2c0-13.3,10.1-21.33,21-21.33,12.17,0,18.91,8.07,18.91,19.36a31.48,31.48,0,0,1-.42,4.82h-32.66v-6.78h26.46l-1.84,2.12c0-8-3.78-12.14-10.17-12.14-6.74,0-11.93,4.85-11.93,14,0,9.49,5.71,14,14.19,14a22.2,22.2,0,0,0,11.43-3.33l3.28,5.94a29.62,29.62,0,0,1-16,4.82C-2176.42-2088.76-2186.23-2096.63-2186.23-2110.2Z" transform="translate(3566.3 2427.69)"/><path class="cls-3" d="M-2136.39-2095.07l4.19-6.12a30.09,30.09,0,0,0,17.07,5.17c5.65,0,8.3-2.15,8.3-4.85s-1.79-4.17-11.29-6.13c-10.88-2.28-15.71-6.13-15.71-12.34,0-7.09,6.46-12.19,17.86-12.19a31.89,31.89,0,0,1,17.07,5.39l-4.42,5.89a25.16,25.16,0,0,0-13.5-4.08c-5.29,0-7.47,2-7.47,4.54,0,2.87,3,3.88,10.63,5.53,13,2.88,16.42,6.35,16.42,12.82,0,7-6.76,12.68-19.15,12.68A37,37,0,0,1-2136.39-2095.07Z" transform="translate(3566.3 2427.69)"/><path class="cls-3" d="M-2036.87-2095.61l27.74-40.36h-25.24v-8.12h37.2v5.85l-27.8,40.36h28.15v8.12h-40Z" transform="translate(3566.3 2427.69)"/><path class="cls-3" d="M-1986.24-2100.71c0-9.14,8-13.69,28.18-15.11-.34-4.56-3.06-8-9.71-8-4.59,0-9.12,2-13.32,4.33l-3.56-6.36c4.94-3,11.63-5.69,18.66-5.69,11.31,0,17.53,6.28,17.53,17.64v24.13h-7.89l-.73-5h-.28c-4.28,3.3-9.76,6-15.22,6C-1980.53-2088.76-1986.24-2093.64-1986.24-2100.71Zm28.18-.54v-8.57c-14.65,1-18.87,4-18.87,8.37,0,3.59,3.17,5.15,7.21,5.15S-1961.83-2098.22-1958.06-2101.25Z" transform="translate(3566.3 2427.69)"/><path class="cls-3" d="M-1931.49-2130.53h7.92l.82,9.27h.22c4.15-6.65,10.33-10.27,17.35-10.27a17,17,0,0,1,7.94,1.66l-2,8.12a20.8,20.8,0,0,0-7.38-1.27c-5.57,0-11,2.86-15.23,10.78v22.48h-9.6Z" transform="translate(3566.3 2427.69)"/><path class="cls-3" d="M-1887.38-2110.2c0-13.3,10.11-21.33,21-21.33,12.17,0,18.92,8.07,18.92,19.36a32.81,32.81,0,0,1-.42,4.82h-32.66v-6.78h26.46l-1.84,2.12c0-8-3.79-12.14-10.17-12.14-6.74,0-11.94,4.85-11.94,14,0,9.49,5.71,14,14.19,14a22.24,22.24,0,0,0,11.44-3.33l3.28,5.94a29.65,29.65,0,0,1-16,4.82C-1877.56-2088.76-1887.38-2096.63-1887.38-2110.2Z" transform="translate(3566.3 2427.69)"/><path class="cls-3" d="M-1827.15-2094.24h-.28l-.84,4.48h-7.55v-58.62h9.6v15.13l-.4,7.13h.29a18.14,18.14,0,0,1,12.37-5.41c10.57,0,16.68,8.15,16.68,20.69,0,14-8.64,22.08-18,22.08C-1819.17-2088.76-1823.59-2090.75-1827.15-2094.24Zm20-16.46c0-8.12-2.86-12.88-9.46-12.88-3.08,0-6.35,1.46-9.65,4.88v18.32a13.7,13.7,0,0,0,9,3.67C-1811.57-2096.71-1807.11-2101.46-1807.11-2110.7Z" transform="translate(3566.3 2427.69)"/><path class="cls-4" d="M-1757.4-2146.25l35.93,22.75h-22l-13.94-6.39Zm13.94,22.75h22l-35.93,22.8v-16Z" transform="translate(3566.3 2427.69)"/><path class="cls-4" d="M-1712.86-2146.25l35.93,22.75h-22l-13.94-6.39Zm13.94,22.75h22l-35.93,22.8v-16Z" transform="translate(3566.3 2427.69)"/><g class="cls-5"><path class="cls-6" d="M-3083.21-2237.45c24.88,9.87,49.78,19.74,74.29,30.47,3.86,1.69,7.72,7.7,8.2,12.09,2.83,26,4.09,52.27,7.19,78.28,1,8.06.17,12.35-7.07,16.9-29,18.19-57.4,37.2-85.72,55.7,7.08,30.37,42.75,98.62,61.81,117.71,30-12.64,60.92-25.08,91.26-38.72,9.45-4.25,14.27-3.43,22.14,4.09,18.27,17.46,38.18,33.3,58.29,48.65,8.15,6.22,12.49,11.09,9.85,22.29-3.79,16.08-7,32.29-10.27,48.51h153.59l.85-2.19c3.91-10.14,9.15-13.48,20.17-13.83,29.17-.91,58.28-3.73,89.65-6l14.47,22h159.3c-13.36-32.1-26.62-64-38.41-92.28,21.6-27.36,42.16-52.25,61.21-78.26,5.52-7.52,9.84-8.76,18.11-6.94,28.72,6.3,57.64,11.72,86.4,17.83,6.22,1.32,10.78,1.56,14-5.24,16.09-34.32,29.08-69.55,34.32-107.4,1.17-8.44-1.86-11.77-8.81-14.64-28-11.56-55.75-23.65-83.77-35.09-6.79-2.77-9.63-5.65-10.25-13.94-2.14-28.72-5.52-57.4-9.63-85.92-1-7.28,1.27-10.12,6.4-13.49,28.57-18.82,57-37.85,86.21-57.29-11.79-33.1-26.17-64.29-45.19-93.55h-69l-49.7,20.69-24.94-20.69h-98.7a268.25,268.25,0,0,1,108.45,102.13A268.25,268.25,0,0,1-2408.88-2121a268.22,268.22,0,0,1-123.67,165.56,268.26,268.26,0,0,1-204.51,29.62,268.19,268.19,0,0,1-165.56-123.67A268.21,268.21,0,0,1-2932.25-2254a268.29,268.29,0,0,1,123.67-165.56c4.81-2.86,9.68-5.54,14.61-8.08h-103.28c-.6.84-1.27,1.69-2,2.59-18,21.37-34.59,43.9-52.44,65.4-2.76,3.33-9.6,5.67-13.94,4.92-23.75-4.13-47.28-9.57-71-14.17-19.15-3.72-26.28-5-32.35,1.22l-35,116.36C-3102.75-2245.14-3097.12-2243-3083.21-2237.45Z" transform="translate(3566.3 2427.69)"/><path class="cls-6" d="M-2568.88-2427.69h-203c-72.59,30.73-130.53,93.81-151.39,175.92-35.41,139.35,49.15,281.53,188.5,317s281.54-49.15,316.95-188.51C-2385.72-2249.7-2452.27-2378.4-2568.88-2427.69Zm86.64,296.81h0c-31.3,104-141,163-245,131.65s-162.95-141-131.66-245h0c31.3-104,141-163,245-131.65S-2450.94-2234.89-2482.24-2130.88Z" transform="translate(3566.3 2427.69)"/></g></g></svg>