<svg id="Calque_1" data-name="Calque 1" xmlns="http://www.w3.org/2000/svg" viewBox="0 0 3000 586.21"><defs><style>.cls-1{fill:#f7f7f7;}.cls-2{fill:#25a6c2;}.cls-3{fill:#232323;}</style></defs><g id="thanks"><path class="cls-1" d="M-1705.92,2408.39a82,82,0,0,0,99.54,59.2,82,82,0,0,0,61.72-79.61h2.94a84.31,84.31,0,0,1-12,43.59,84.27,84.27,0,0,1-52,38.84,84.24,84.24,0,0,1-64.22-9.31,84.24,84.24,0,0,1-38.84-52,85.19,85.19,0,0,1-2.64-21.13h2.92A81.49,81.49,0,0,0-1705.92,2408.39Z" transform="translate(3566.3 -2387.98)"/><path class="cls-1" d="M-1608.75,2447.37a61.76,61.76,0,0,1-76.94-41.35h0a61.75,61.75,0,0,1-2.63-18h123.53A61.77,61.77,0,0,1-1608.75,2447.37Z" transform="translate(3566.3 -2387.98)"/><path class="cls-1" d="M-624.3,2974.18H-3136.46c1.06-7.81,2-15.65,2.54-23.51.2-2.6,1.09-3.51,3.22-4.38,8.8-3.59,17.52-7.39,26.31-11,2.18-.9,3.13-1.95,2.77-4.6-1.65-11.88-5.73-23-10.78-33.73-1-2.13-2.44-2.05-4.39-1.64-9,1.92-18.11,3.62-27.13,5.6-2.6.57-4,.18-5.69-2.18-6-8.17-12.44-16-19.22-24.58l12.92-31a122.55,122.55,0,0,0-36.56-19.69c-6.61,10-13.05,19.81-18.87,28.66-9.86-.7-19-1.58-28.16-1.87-3.46-.11-5.11-1.16-6.33-4.34-3.27-8.49-6.87-16.85-10.42-25.22-.7-1.66-1.13-4-3.94-3.1l-34.3,10.59c-2.43.76-2.9,2.3-2.36,4.76,2,9.15,3.59,18.4,5.74,27.51.83,3.52-.54,5.05-3.09,7a216.31,216.31,0,0,0-18.31,15.28c-2.47,2.37-4,2.62-6.95,1.29-9.53-4.28-19.23-8.19-28.66-12.16-6,6-17.19,27.43-19.42,37,8.9,5.81,17.83,11.78,26.92,17.49,2.28,1.43,2.53,2.77,2.22,5.31-1,8.16-1.37,16.4-2.26,24.58a5.43,5.43,0,0,1-2.57,3.8c-7.7,3.37-15.52,6.47-23.33,9.57-4.37,1.73-6.14,2.41-6.52,4.37l.08.29h-135.3a58,58,0,0,1-58-58V2388H-1730c-.09.85-.16,1.7-.25,2.55a5.41,5.41,0,0,1-2.57,3.79c-7.7,3.37-15.52,6.48-23.33,9.57-4.37,1.74-6.14,2.42-6.53,4.38l11,36.54c1.9,2,4.14,1.55,10.16.38,7.44-1.44,14.82-3.15,22.28-4.45a5.5,5.5,0,0,1,4.38,1.55c5.61,6.75,10.82,13.83,16.47,20.54,1.65,2,2.18,3.3,1.13,5.7-3.7,8.46-7.17,17-10.72,25.54-.58,1.38-1.1,2.78-2.06,5.2l36.48,19.15c6.22-9.31,12-17.69,17.46-26.29,1.92-3,3.56-4.09,7.45-3.39,7.94,1.43,16.09,1.75,24.12,2.77a5,5,0,0,1,3.36,2.45c3.79,8.56,7.61,17.13,10.87,25.9,1.57,4.21,3.78,5.1,7.71,3.86a26,26,0,0,1,4.8-.6l20.59-6.19a12.87,12.87,0,0,1,2-1.33c7.68-3.22,6.58-2.22,5.13-9.86-1.78-9.31-3.71-18.59-5.32-26.65l26.45-22,32.37,13.47c8.5-11.15,14.44-23.28,19.09-36.35-9.17-6.11-18.1-12.08-27.08-18-1.61-1.06-2.33-1.95-2-4.24,1.15-8,2.1-16,2.77-24.05H-566.3v528.2A58,58,0,0,1-624.3,2974.18Z" transform="translate(3566.3 -2387.98)"/><path class="cls-1" d="M-3296.11,2971.64h0a61.76,61.76,0,0,1,41.35-76.94,61.76,61.76,0,0,1,76.94,41.35h0a61.49,61.49,0,0,1-.84,38.13h-116.62C-3295.57,2973.34-3295.85,2972.5-3296.11,2971.64Z" transform="translate(3566.3 -2387.98)"/><path class="cls-1" d="M-3154.61,2974.18h-3a81.3,81.3,0,0,0,.06-40.5,82,82,0,0,0-99.54-59.2,82,82,0,0,0-59.2,99.54,1,1,0,0,1,.05.16h-3a84.21,84.21,0,0,1,9.42-63.68,84.26,84.26,0,0,1,52-38.84,84.23,84.23,0,0,1,64.23,9.31,84.25,84.25,0,0,1,38.84,52A84.34,84.34,0,0,1-3154.61,2974.18Z" transform="translate(3566.3 -2387.98)"/><path class="cls-2" d="M-2778.33,2675.35h-22l35.93-22.75V2669Zm13.93,22.8-35.93-22.8h22l13.93,6.84Z" transform="translate(3566.3 -2387.98)"/><path class="cls-2" d="M-2734.3,2675.35h-22l35.92-22.75V2669Zm13.93,22.8-35.92-22.8h22l13.93,6.84Z" transform="translate(3566.3 -2387.98)"/><path class="cls-3" d="M-2654.18,2669.06H-2669v-7h38v7h-14.84v40h-8.37Z" transform="translate(3566.3 -2387.98)"/><path class="cls-3" d="M-2622.47,2658.25h8.33v13.13l-.49,7.56h.24c3.08-3.31,7-6.07,12.43-6.07,8.15,0,11.83,5.21,11.83,14.32v21.91h-8.33v-20.82c0-5.68-1.83-8.27-6.59-8.27-3.49,0-5.85,1.69-9.09,5v24.12h-8.33Z" transform="translate(3566.3 -2387.98)"/><path class="cls-3" d="M-2580.12,2699.6c0-7.93,7-11.88,24.44-13.1-.3-4-2.66-6.94-8.42-6.94-4,0-7.92,1.74-11.55,3.75l-3.09-5.51c4.28-2.57,10.08-4.93,16.18-4.93,9.81,0,15.21,5.45,15.21,15.3v20.93h-6.85l-.64-4.39h-.24c-3.71,2.87-8.46,5.25-13.2,5.25C-2575.17,2710-2580.12,2705.73-2580.12,2699.6Zm24.44-.47v-7.43c-12.71.83-16.37,3.44-16.37,7.26,0,3.11,2.75,4.46,6.26,4.46S-2558.95,2701.76-2555.68,2699.13Z" transform="translate(3566.3 -2387.98)"/><path class="cls-3" d="M-2536.07,2673.73h6.8l.64,5.32h.29c3.38-3.42,7.36-6.18,12.75-6.18,8.17,0,11.86,5.21,11.86,14.32v21.91h-8.33v-20.82c0-5.68-1.83-8.27-6.59-8.27-3.49,0-5.85,1.69-9.09,5v24.12h-8.33Z" transform="translate(3566.3 -2387.98)"/><path class="cls-3" d="M-2492.32,2658.25h8.33v31.81h.28l15.92-16.33h9.24l-25.44,26.13v9.24h-8.33Zm14.18,33.49,4.87-5.27,16.23,22.63h-9.11Z" transform="translate(3566.3 -2387.98)"/><path class="cls-3" d="M-2407.58,2722.87l1.57-6.44a10.35,10.35,0,0,0,3,.48c4.5,0,7.08-2.49,8.52-6l.85-2.22-15.85-34.94h8.32L-2394,2691c1.31,3.23,2.64,6.88,3.92,10.44h.29c1.09-3.44,2.38-7.11,3.51-10.44l6.37-17.29h7.93l-14.77,37c-3,7.94-7.29,12.88-15.81,12.88A17.53,17.53,0,0,1-2407.58,2722.87Z" transform="translate(3566.3 -2387.98)"/><path class="cls-3" d="M-2365.36,2691.46c0-11.82,8.44-18.59,17.76-18.59s17.76,6.77,17.76,18.59-8.44,18.5-17.76,18.5S-2365.36,2703.19-2365.36,2691.46Zm27,0c0-7.11-3.46-11.8-9.23-11.8s-9.23,4.69-9.23,11.8,3.46,11.71,9.23,11.71S-2338.37,2698.53-2338.37,2691.46Z" transform="translate(3566.3 -2387.98)"/><path class="cls-3" d="M-2321,2695.64v-21.91h8.33v20.82c0,5.63,1.77,8.27,6.61,8.27,3.32,0,5.71-1.4,8.86-5.22v-23.87h8.33v35.37h-6.84l-.64-5.62h-.29c-3.34,3.87-7.26,6.48-12.53,6.48C-2317.38,2710-2321,2704.75-2321,2695.64Z" transform="translate(3566.3 -2387.98)"/><path class="cls-3" d="M-2225.93,2694.88v-14.55h-9.46v-6.21l9.81-.39,1.08-11.07h6.9v11.07h16.08v6.6h-16.08v14.52c0,5.84,2.19,8.47,8.17,8.47a22,22,0,0,0,7.69-1.43l1.61,6.06a34.43,34.43,0,0,1-11.31,2C-2222.25,2710-2225.93,2703.89-2225.93,2694.88Z" transform="translate(3566.3 -2387.98)"/><path class="cls-3" d="M-2192.56,2691.46c0-11.82,8.44-18.59,17.76-18.59s17.76,6.77,17.76,18.59-8.44,18.5-17.76,18.5S-2192.56,2703.19-2192.56,2691.46Zm27,0c0-7.11-3.46-11.8-9.23-11.8s-9.23,4.69-9.23,11.8,3.46,11.71,9.23,11.71S-2165.57,2698.53-2165.57,2691.46Z" transform="translate(3566.3 -2387.98)"/><path class="cls-3" d="M-2104.72,2691.46c0-11.82,9.3-18.59,20.1-18.59a18.54,18.54,0,0,1,13.06,5l-3.93,5.22a13.75,13.75,0,0,0-8.73-3.41c-7.09,0-12,4.69-12,11.8s4.81,11.71,11.72,11.71a16.45,16.45,0,0,0,10.08-3.89l3.49,5.31a22,22,0,0,1-14.3,5.37C-2096.3,2710-2104.72,2703.19-2104.72,2691.46Z" transform="translate(3566.3 -2387.98)"/><path class="cls-3" d="M-2060.88,2658.25h8.33v13.13l-.49,7.56h.24c3.08-3.31,7.06-6.07,12.43-6.07,8.15,0,11.83,5.21,11.83,14.32v21.91h-8.33v-20.82c0-5.68-1.82-8.27-6.59-8.27-3.49,0-5.85,1.69-9.09,5v24.12h-8.33Z" transform="translate(3566.3 -2387.98)"/><path class="cls-3" d="M-2019.18,2691.37c0-11.54,8.76-18.5,18.22-18.5,10.56,0,16.41,7,16.41,16.79a26.93,26.93,0,0,1-.37,4.18h-28.32V2688h23l-1.6,1.84c0-7-3.28-10.53-8.82-10.53-5.84,0-10.35,4.21-10.35,12.1,0,8.23,5,12.15,12.31,12.15a19.25,19.25,0,0,0,9.91-2.89l2.85,5.16a25.71,25.71,0,0,1-13.85,4.17C-2010.67,2710-2019.18,2703.14-2019.18,2691.37Z" transform="translate(3566.3 -2387.98)"/><path class="cls-3" d="M-1975.12,2691.46c0-11.82,9.3-18.59,20.09-18.59a18.55,18.55,0,0,1,13.07,5l-3.93,5.22a13.79,13.79,0,0,0-8.73-3.41c-7.09,0-12,4.69-12,11.8s4.82,11.71,11.72,11.71a16.48,16.48,0,0,0,10.09-3.89l3.49,5.31a22,22,0,0,1-14.3,5.37C-1966.7,2710-1975.12,2703.19-1975.12,2691.46Z" transform="translate(3566.3 -2387.98)"/><path class="cls-3" d="M-1930.73,2658.25h8.33v31.81h.29l15.91-16.33h9.24l-25.44,26.13v9.24h-8.33Zm14.18,33.49,4.87-5.27,16.23,22.63h-9.11Z" transform="translate(3566.3 -2387.98)"/><path class="cls-3" d="M-1847.48,2673.73h6.39l.64,4.5h.2c1.56-3.05,3.77-5.36,7.86-5.36,3.27,0,5.48,2,6.41,5.94,1.65-3.48,4-5.94,8-5.94,5,0,7.88,4.1,7.88,11.17v25.06h-8v-24.47c0-3.11-.83-4.67-2.82-4.67s-3,1.46-4.42,4.42v24.72h-6.9v-24.47c0-3.11-.83-4.67-2.81-4.67s-3.11,1.46-4.44,4.42v24.72h-8Z" transform="translate(3566.3 -2387.98)"/><path class="cls-3" d="M-1802.79,2722.87l1.57-6.44a10.35,10.35,0,0,0,3,.48c4.5,0,7.08-2.49,8.52-6l.85-2.22-15.85-34.94h8.32l7.23,17.29c1.31,3.23,2.64,6.88,3.92,10.44h.29c1.09-3.44,2.38-7.11,3.51-10.44l6.37-17.29h7.93l-14.77,37c-3,7.94-7.29,12.88-15.81,12.88A17.53,17.53,0,0,1-1802.79,2722.87Z" transform="translate(3566.3 -2387.98)"/><path class="cls-3" d="M-1717.74,2685.69c0-15.48,9.14-24.53,21.35-24.53A18,18,0,0,1-1683,2667l-4.67,5.22a11.21,11.21,0,0,0-8.71-3.8c-7.48,0-12.66,6.45-12.66,17,0,10.75,4.52,17.24,12.81,17.24a9.45,9.45,0,0,0,6.31-2v-10.17H-1698v-6.85h15.66v20.77a21.16,21.16,0,0,1-14.4,5.58C-1708.67,2710-1717.74,2701.31-1717.74,2685.69Z" transform="translate(3566.3 -2387.98)"/><path class="cls-3" d="M-1656.68,2680.33h-15.27v-6.6h23.6v35.37h-8.33Zm-2.29-18.6c0-3.32,2.49-5.62,5.91-5.62s5.92,2.3,5.92,5.62-2.49,5.56-5.92,5.56S-1659,2665.09-1659,2661.73Z" transform="translate(3566.3 -2387.98)"/><path class="cls-3" d="M-1621.14,2694.88v-14.55h-9.46v-6.21l9.81-.39,1.08-11.07h6.9v11.07h16.08v6.6h-16.08v14.52c0,5.84,2.19,8.47,8.17,8.47a22,22,0,0,0,7.69-1.43l1.61,6.06a34.43,34.43,0,0,1-11.31,2C-1617.46,2710-1621.14,2703.89-1621.14,2694.88Z" transform="translate(3566.3 -2387.98)"/><path class="cls-3" d="M-1585.68,2658.25h8.33v13.13l-.5,7.56h.25c3.08-3.31,7-6.07,12.42-6.07,8.15,0,11.84,5.21,11.84,14.32v21.91h-8.33v-20.82c0-5.68-1.83-8.27-6.6-8.27-3.48,0-5.84,1.69-9.08,5v24.12h-8.33Z" transform="translate(3566.3 -2387.98)"/><path class="cls-3" d="M-1543.42,2695.64v-21.91h8.33v20.82c0,5.63,1.77,8.27,6.61,8.27,3.31,0,5.71-1.4,8.86-5.22v-23.87h8.33v35.37h-6.85l-.63-5.62h-.29c-3.34,3.87-7.26,6.48-12.53,6.48C-1539.79,2710-1543.42,2704.75-1543.42,2695.64Z" transform="translate(3566.3 -2387.98)"/><path class="cls-3" d="M-1491.76,2705.21h-.24l-.73,3.89h-6.55v-50.85h8.32v13.13l-.34,6.18h.25a15.77,15.77,0,0,1,10.73-4.69c9.17,0,14.47,7.06,14.47,17.94,0,12.14-7.49,19.15-15.62,19.15C-1484.84,2710-1488.68,2708.24-1491.76,2705.21Zm17.38-14.27c0-7.05-2.48-11.18-8.2-11.18-2.67,0-5.51,1.27-8.38,4.23v15.89a11.89,11.89,0,0,0,7.77,3.19C-1478.25,2703.07-1474.38,2698.94-1474.38,2690.94Z" transform="translate(3566.3 -2387.98)"/><path class="cls-2" d="M-1412.73,2652.6l35.92,22.75h-22l-13.93-6.38Zm13.93,22.75h22l-35.92,22.8v-16Z" transform="translate(3566.3 -2387.98)"/><path class="cls-2" d="M-1368.2,2652.6l35.93,22.75h-22l-13.94-6.38Zm13.94,22.75h22l-35.93,22.8v-16Z" transform="translate(3566.3 -2387.98)"/></g></svg>